<?xml version="1.0" standalone="no"?>
<!DOCTYPE svg PUBLIC "-//W3C//DTD SVG 1.1//EN" "http://www.w3.org/Graphics/SVG/1.1/DTD/svg11.dtd" >
<svg>
<metadata>
Created by FontForge 20110222 at Wed Sep  9 13:59:13 2015
 By www-data
(c) 2009 Microsoft Corporation. All Rights Reserved.
</metadata>
<defs>
<font id="KhmerUI-Bold" horiz-adv-x="0" >
  <font-face 
    font-family="Khmer UI"
    font-weight="700"
    font-stretch="normal"
    units-per-em="2048"
    panose-1="2 11 7 2 4 2 4 2 2 3"
    ascent="1638"
    descent="-410"
    x-height="1024"
    cap-height="1434"
    bbox="-1595 -481 3720 1892"
    underline-thickness="119"
    underline-position="-119"
    unicode-range="U+0020-25CC"
  />
<missing-glyph horiz-adv-x="1322" 
d="M166 0v1398h990v-1398h-990zM314 148h694v1102h-694v-1102z" />
    <glyph glyph-name=".notdef" horiz-adv-x="1322" 
d="M166 0v1398h990v-1398h-990zM314 148h694v1102h-694v-1102z" />
    <glyph glyph-name="null" 
 />
    <glyph glyph-name="nonmarkingreturn" horiz-adv-x="199" 
 />
    <glyph glyph-name="space" unicode=" " horiz-adv-x="565" 
 />
    <glyph glyph-name="space" unicode="&#xa0;" horiz-adv-x="565" 
 />
    <glyph glyph-name="exclam" unicode="!" horiz-adv-x="670" 
d="M500 1434l-39 -988h-256l-37 988h332zM336 -23q-80 0 -132 48.5t-52 117.5q0 72 52.5 118t131.5 46q80 0 131 -46.5t51 -117.5q0 -72 -50.5 -119t-131.5 -47z" />
    <glyph glyph-name="quotedbl" unicode="&#x22;" horiz-adv-x="1010" 
d="M834 1452l-31 -444h-201l-31 444h263zM438 1452l-30 -442h-203l-29 442h262z" />
    <glyph glyph-name="numbersign" unicode="#" horiz-adv-x="1213" 
d="M1176 1069l-39 -180h-185l-55 -248h207l-45 -180h-199l-78 -346h-200l73 346h-229l-74 -346h-200l71 346h-186l37 180h188l53 248h-202l34 180h205l74 356h205l-74 -356h229l76 356h203l-74 -356h185zM750 889h-232l-55 -248h231z" />
    <glyph glyph-name="dollar" unicode="$" horiz-adv-x="1178" 
d="M674 8v-217h-146v211q-203 1 -378 92v277q58 -47 173 -87t205 -46v364q-234 87 -319.5 188.5t-85.5 247.5q0 157 111 267.5t294 128.5v186h146v-182q211 -10 315 -68v-270q-140 85 -315 104v-379q219 -79 314 -180.5t95 -245.5q0 -166 -106 -267.5t-303 -123.5zM528 883
v317q-139 -25 -139 -145q0 -103 139 -172zM674 545v-303q143 22 143 143q0 98 -143 160z" />
    <glyph glyph-name="percent" unicode="%" horiz-adv-x="1776" 
d="M430 707q-153 0 -246.5 97t-93.5 261q0 179 99.5 284t265.5 105q159 0 248.5 -95t89.5 -267q0 -177 -99 -281t-264 -104zM449 1278q-146 0 -146 -203q0 -192 139 -192q142 0 142 200q0 195 -135 195zM1477 1434l-934 -1434h-244l932 1434h246zM1323 -20q-153 0 -246.5 97
t-93.5 261q0 179 99.5 284t265.5 105q160 0 249 -94t89 -266q0 -177 -99 -282t-264 -105zM1339 551q-145 0 -145 -203q0 -192 141 -192q142 0 142 200q0 93 -38 144t-100 51z" />
    <glyph glyph-name="ampersand" unicode="&#x26;" horiz-adv-x="1740" 
d="M1479 -23q-53 0 -100.5 14t-90 38t-80.5 56.5t-72 69.5q-37 -30 -89 -62t-117.5 -57.5t-144.5 -42t-169 -16.5q-117 0 -216.5 28t-171.5 83.5t-112.5 137.5t-40.5 190q0 85 30.5 151.5t79.5 116.5t111 86t126 60q-31 24 -62.5 55.5t-56.5 69t-40.5 81.5t-15.5 93
q0 79 32 140t89.5 103t137.5 64t176 22q92 0 168.5 -23t131.5 -64t85 -98.5t30 -126.5q0 -111 -66.5 -192.5t-187.5 -132.5q48 -22 92 -50t86 -64t82 -81.5t79 -104.5q82 103 117.5 219.5t35.5 242.5q0 38 -4.5 73t-14.5 65h269q11 -32 16 -62t5 -71q0 -97 -20.5 -189
t-57.5 -176t-89.5 -159t-115.5 -140q49 -51 101 -78.5t98 -27.5q48 0 98 10.5t87 29.5v-238q-55 -22 -108.5 -32.5t-119.5 -10.5zM632 216q59 0 111 11.5t98 30.5t85.5 44t72.5 52q-51 80 -101 135.5t-99 95t-97.5 66.5t-97.5 49q-41 -20 -78.5 -44.5t-66.5 -57t-46.5 -74
t-17.5 -95.5q0 -48 17 -87t48.5 -67t75 -43.5t96.5 -15.5zM817 1124q0 29 -11 52t-30 38.5t-43 24t-51 8.5q-33 0 -60.5 -10t-48 -27t-31.5 -40.5t-11 -50.5q0 -56 35 -103t87 -76q33 12 62.5 28t52 38t36 51t13.5 67z" />
    <glyph glyph-name="quotesingle" unicode="'" horiz-adv-x="600" 
d="M430 1452l-31 -442h-200l-29 442h260z" />
    <glyph glyph-name="parenleft" unicode="(" horiz-adv-x="756" 
d="M739 -326h-258q-323 356 -323 875q0 501 323 885h256q-303 -402 -303 -885t305 -875z" />
    <glyph glyph-name="parenright" unicode=")" horiz-adv-x="756" 
d="M274 -326h-256q306 390 306 875q0 481 -306 885h258q324 -385 324 -885q0 -515 -326 -875z" />
    <glyph glyph-name="asterisk" unicode="*" horiz-adv-x="932" 
d="M864 1053l-274 -37l196 -211l-182 -125l-137 254l-137 -254l-183 125l197 211l-274 37l71 202l252 -108l-43 287h234l-43 -287l250 108z" />
    <glyph glyph-name="plus" unicode="+" horiz-adv-x="1448" 
d="M1212 485h-385v-385h-202v385h-387v203h387v387h202v-387h385v-203z" />
    <glyph glyph-name="comma" unicode="," horiz-adv-x="555" 
d="M432 252l-147 -506h-246l102 506h291z" />
    <glyph glyph-name="hyphen" unicode="-" horiz-adv-x="828" 
d="M690 436h-547v221h547v-221z" />
    <glyph glyph-name="hyphen" unicode="&#xad;" horiz-adv-x="828" 
d="M690 436h-547v221h547v-221z" />
    <glyph glyph-name="period" unicode="." horiz-adv-x="555" 
d="M274 -25q-78 0 -130 48t-52 118q0 72 53.5 118t133.5 46q81 0 132.5 -46.5t51.5 -117.5q0 -73 -52.5 -119.5t-136.5 -46.5z" />
    <glyph glyph-name="slash" unicode="/" horiz-adv-x="908" 
d="M932 1434l-699 -1672h-282l696 1672h285z" />
    <glyph glyph-name="zero" unicode="0" horiz-adv-x="1178" 
d="M582 -25q-512 0 -512 719q0 373 138.5 568.5t401.5 195.5q500 0 500 -731q0 -364 -136.5 -558t-391.5 -194zM596 1217q-205 0 -205 -515q0 -485 201 -485q196 0 196 500t-192 500z" />
    <glyph glyph-name="one" unicode="1" horiz-adv-x="1178" 
d="M1077 0h-907v250h297v893l-305 -66v256l620 125v-1208h295v-250z" />
    <glyph glyph-name="two" unicode="2" horiz-adv-x="1178" 
d="M471 268v-6h582v-262h-944v246l411 393q124 119 174.5 199.5t50.5 169.5q0 198 -213 198q-185 0 -354 -147v278q187 121 422 121q220 0 343.5 -110.5t123.5 -298.5q0 -251 -301 -519z" />
    <glyph glyph-name="three" unicode="3" horiz-adv-x="1178" 
d="M147 47v275q144 -105 336 -105q121 0 188.5 52t67.5 145q0 96 -83.5 148t-229.5 52h-129v242h119q280 0 280 186q0 175 -215 175q-144 0 -280 -93v258q151 76 352 76q220 0 342.5 -99t122.5 -257q0 -281 -285 -352v-5q152 -19 240 -110.5t88 -224.5q0 -201 -147 -318
t-406 -117q-222 0 -361 72z" />
    <glyph glyph-name="four" unicode="4" horiz-adv-x="1178" 
d="M1124 305h-172v-305h-288v305h-625v201l602 928h311v-904h172v-225zM668 1118h-6q-14 -36 -54 -112l-307 -476h363v451q0 60 4 137z" />
    <glyph glyph-name="five" unicode="5" horiz-adv-x="1178" 
d="M164 37v270q147 -90 313 -90q125 0 195.5 59.5t70.5 161.5q0 213 -301 213q-98 0 -237 -18v801h794v-258h-524v-287q63 6 119 6q221 0 346 -116t125 -312q0 -217 -149 -354.5t-404 -137.5q-207 0 -348 62z" />
    <glyph glyph-name="six" unicode="6" horiz-adv-x="1178" 
d="M1008 1419v-264q-109 62 -238 62q-159 0 -256.5 -121.5t-101.5 -325.5h6q103 152 301 152q180 0 285.5 -122t105.5 -323q0 -216 -140 -359t-356 -143q-242 0 -378 175t-136 491q0 372 175 594.5t475 222.5q166 0 258 -39zM612 688q-87 0 -138.5 -61t-51.5 -156
q0 -105 52.5 -179.5t139.5 -74.5q85 0 136 66.5t51 173.5q0 231 -189 231z" />
    <glyph glyph-name="seven" unicode="7" horiz-adv-x="1178" 
d="M1094 1288l-506 -1288h-334l510 1176h-668v258h998v-146z" />
    <glyph glyph-name="eight" unicode="8" horiz-adv-x="1178" 
d="M371 745v5q-246 101 -246 327q0 166 132 273.5t341 107.5q213 0 340 -100.5t127 -259.5q0 -235 -272 -346v-4q146 -43 226.5 -141.5t80.5 -221.5q0 -190 -140.5 -300t-392.5 -110q-218 0 -351.5 107.5t-133.5 284.5q0 257 289 378zM768 1071q0 73 -46.5 116.5
t-123.5 43.5q-75 0 -124.5 -45.5t-49.5 -116.5q0 -134 172 -203q172 71 172 205zM582 625q-201 -79 -201 -242q0 -78 61.5 -129t149.5 -51q95 0 153 50t58 132q0 164 -221 240z" />
    <glyph glyph-name="nine" unicode="9" horiz-adv-x="1178" 
d="M160 31v260q113 -74 272 -74q166 0 256.5 112.5t91.5 319.5l-6 2q-95 -141 -289 -141q-176 0 -291.5 123t-115.5 319q0 229 141 367.5t365 138.5q230 0 366.5 -174t136.5 -498q0 -384 -164.5 -597.5t-459.5 -213.5q-175 0 -303 56zM575 1217q-82 0 -135 -66.5t-53 -171.5
q0 -109 52.5 -171.5t142.5 -62.5q82 0 134 59.5t52 149.5q0 113 -54.5 188t-138.5 75z" />
    <glyph glyph-name="colon" unicode=":" horiz-adv-x="555" 
d="M274 707q-78 0 -130 47.5t-52 117.5q0 72 53.5 118t133.5 46q81 0 132.5 -46.5t51.5 -117.5q0 -73 -52.5 -119t-136.5 -46zM274 -25q-78 0 -130 48t-52 118q0 72 53.5 118t133.5 46q81 0 132.5 -46.5t51.5 -117.5q0 -73 -52.5 -119.5t-136.5 -46.5z" />
    <glyph glyph-name="semicolon" unicode=";" horiz-adv-x="555" 
d="M281 707q-79 0 -131 48t-52 117q0 73 52.5 118.5t132.5 45.5q81 0 132.5 -46.5t51.5 -117.5q0 -73 -51 -119t-135 -46zM432 252l-147 -506h-246l102 506h291z" />
    <glyph glyph-name="less" unicode="&#x3c;" horiz-adv-x="1448" 
d="M1192 63l-934 426v162l934 447v-238l-666 -285v-6l666 -268v-238z" />
    <glyph glyph-name="equal" unicode="=" horiz-adv-x="1448" 
d="M1212 700h-974v205h974v-205zM1212 266h-974v203h974v-203z" />
    <glyph glyph-name="greater" unicode="&#x3e;" horiz-adv-x="1448" 
d="M1192 502l-934 -426v237l668 267v4l-668 286v238l934 -444v-162z" />
    <glyph glyph-name="question" unicode="?" horiz-adv-x="897" 
d="M263 415q-10 26 -15.5 58.5t-5.5 61.5q0 46 9 84t27 71.5t45 64t63 60.5q38 32 66.5 59.5t48.5 55t30 57t10 65.5q0 31 -11 57.5t-31.5 45.5t-50 30t-65.5 11q-78 0 -162 -32.5t-159 -98.5v301q77 46 168 69t188 23q93 0 173 -20.5t139.5 -64.5t93 -112.5t33.5 -164.5
q0 -61 -14 -110.5t-41 -93.5t-67 -84.5t-92 -83.5q-35 -29 -61.5 -54t-44 -49.5t-26.5 -52t-9 -62.5q0 -24 6.5 -49t17.5 -42h-263zM409 -23q-80 0 -133 48q-53 50 -53 118q0 70 53 117t133 47q79 0 131 -47q52 -46 52 -117q0 -72 -51 -119q-52 -47 -132 -47z" />
    <glyph glyph-name="at" unicode="@" horiz-adv-x="1954" 
d="M1122 371h-6q-70 -191 -254 -191q-138 0 -222.5 100t-84.5 277q0 229 117 372.5t282 143.5q149 0 187 -117h4l10 99h225q-45 -426 -45 -557q0 -140 76 -140q80 0 132 106t52 277q0 234 -149 383.5t-416 149.5q-286 0 -475.5 -199.5t-189.5 -486.5q0 -278 167.5 -438
t462.5 -160q225 0 412 86v-191q-171 -73 -440 -73q-369 0 -600.5 211.5t-231.5 568.5q0 364 247 612t636 248q360 0 582.5 -192.5t222.5 -507.5q0 -259 -136 -415.5t-337 -156.5q-99 0 -161 53t-67 138zM989 899q-90 0 -146.5 -102.5t-56.5 -237.5q0 -96 38.5 -149.5
t99.5 -53.5q94 0 148 101t54 270q0 80 -37.5 126t-99.5 46z" />
    <glyph glyph-name="A" unicode="A" horiz-adv-x="1440" 
d="M1425 0h-352l-102 319h-510l-101 -319h-350l522 1434h383zM897 567l-154 482q-17 54 -24 129h-8q-5 -63 -25 -125l-156 -486h367z" />
    <glyph glyph-name="B" unicode="B" horiz-adv-x="1313" 
d="M164 0v1434h522q240 0 369 -88t129 -248q0 -116 -78.5 -203t-200.5 -121v-4q153 -19 244.5 -113t91.5 -229q0 -197 -141 -312.5t-385 -115.5h-551zM487 1196v-340h142q100 0 157.5 48.5t57.5 133.5q0 158 -236 158h-121zM487 616v-378h175q112 0 175.5 52t63.5 142
q0 86 -62.5 135t-174.5 49h-177z" />
    <glyph glyph-name="C" unicode="C" horiz-adv-x="1278" 
d="M1192 51q-157 -76 -410 -76q-330 0 -519 194t-189 517q0 344 212.5 558t551.5 214q210 0 354 -53v-311q-144 86 -328 86q-202 0 -326 -127t-124 -344q0 -208 117 -331.5t315 -123.5q189 0 346 92v-295z" />
    <glyph glyph-name="D" unicode="D" horiz-adv-x="1510" 
d="M164 0v1434h508q764 0 764 -699q0 -335 -208.5 -535t-555.5 -200h-508zM487 1171v-909h160q210 0 329.5 126t119.5 343q0 205 -118.5 322.5t-332.5 117.5h-158z" />
    <glyph glyph-name="E" unicode="E" horiz-adv-x="1090" 
d="M1024 0h-860v1434h827v-263h-504v-319h469v-262h-469v-328h537v-262z" />
    <glyph glyph-name="F" unicode="F" horiz-adv-x="1065" 
d="M993 1171h-506v-352h465v-262h-465v-557h-323v1434h829v-263z" />
    <glyph glyph-name="G" unicode="G" horiz-adv-x="1456" 
d="M1341 96q-210 -121 -522 -121q-346 0 -545.5 191.5t-199.5 527.5q0 338 218 551t580 213q228 0 402 -63v-303q-166 96 -406 96q-201 0 -327.5 -130.5t-126.5 -348.5q0 -221 113.5 -342t306.5 -121q116 0 184 33v280h-287v258h610v-721z" />
    <glyph glyph-name="H" unicode="H" horiz-adv-x="1569" 
d="M1405 0h-324v584h-594v-584h-323v1434h323v-572h594v572h324v-1434z" />
    <glyph glyph-name="I" unicode="I" horiz-adv-x="649" 
d="M607 1434v-250h-120v-934h120v-250h-563v250h120v934h-120v250h563z" />
    <glyph glyph-name="J" unicode="J" horiz-adv-x="912" 
d="M762 569q0 -288 -133.5 -441t-386.5 -153q-113 0 -209 39v303q83 -63 186 -63q221 0 221 328v852h322v-865z" />
    <glyph glyph-name="K" unicode="K" horiz-adv-x="1329" 
d="M1356 0h-408l-418 623q-12 18 -38 79h-5v-702h-323v1434h323v-678h5q12 28 40 80l396 598h385l-500 -684z" />
    <glyph glyph-name="L" unicode="L" horiz-adv-x="1047" 
d="M1018 0h-854v1434h323v-1172h531v-262z" />
    <glyph glyph-name="M" unicode="M" horiz-adv-x="1960" 
d="M1798 0h-319v858q0 139 12 307h-8q-25 -132 -45 -190l-336 -975h-264l-342 965q-14 39 -45 200h-9q13 -212 13 -372v-793h-291v1434h473l293 -850q35 -102 51 -205h6q27 119 57 207l293 848h461v-1434z" />
    <glyph glyph-name="N" unicode="N" horiz-adv-x="1618" 
d="M1454 0h-326l-591 901q-52 79 -72 119h-4q8 -76 8 -232v-788h-305v1434h348l569 -873q39 -59 72 -117h4q-8 50 -8 197v793h305v-1434z" />
    <glyph glyph-name="O" unicode="O" horiz-adv-x="1553" 
d="M770 -25q-308 0 -502 200.5t-194 522.5q0 340 197 550t522 210q307 0 496.5 -201t189.5 -530q0 -338 -196.5 -545t-512.5 -207zM784 1180q-170 0 -270 -127.5t-100 -337.5q0 -213 100 -337t262 -124q167 0 265 120.5t98 334.5q0 223 -95 347t-260 124z" />
    <glyph glyph-name="P" unicode="P" horiz-adv-x="1258" 
d="M487 494v-494h-323v1434h506q542 0 542 -457q0 -216 -155.5 -349.5t-415.5 -133.5h-154zM487 1186v-447h127q258 0 258 226q0 221 -258 221h-127z" />
    <glyph glyph-name="Q" unicode="Q" horiz-adv-x="1553" 
d="M784 1180q-169 0 -270 -128q-100 -127 -100 -337q0 -212 99 -337q100 -124 263 -124q168 0 265 120q98 122 98 335q0 221 -94 345q-94 126 -261 126zM1040 27q52 -56 99 -92t94.5 -57t97.5 -29t109 -8q16 0 35 1.5t38.5 5t37.5 8t33 10.5v-272q-32 -9 -88.5 -18
t-137.5 -9q-98 0 -180.5 32t-158 87.5t-147 130.5t-148.5 161q-147 4 -267 61t-205 153.5t-131.5 226.5t-46.5 279q0 341 196 550q197 210 525 210q305 0 494 -202q190 -200 190 -529q0 -257 -116 -442q-116 -183 -323 -258z" />
    <glyph glyph-name="R" unicode="R" horiz-adv-x="1337" 
d="M1367 0h-371l-223 369q-25 42 -48 75t-46.5 56.5t-49 36t-55.5 12.5h-87v-549h-323v1434h512q522 0 522 -390q0 -75 -23 -138.5t-65 -114.5t-101.5 -88t-132.5 -58v-4q32 -10 62 -32.5t58 -52.5t53.5 -64.5t46.5 -67.5zM487 1192v-399h140q104 0 167 60q64 61 64 151
q0 188 -225 188h-146z" />
    <glyph glyph-name="S" unicode="S" horiz-adv-x="1148" 
d="M98 55v320q87 -73 189 -109.5t206 -36.5q61 0 106.5 11t76 30.5t45.5 46t15 57.5q0 42 -24 75t-65.5 61t-98.5 54t-123 53q-168 70 -250.5 171t-82.5 244q0 112 45 192.5t122.5 132.5t179.5 76.5t216 24.5q112 0 198.5 -13.5t159.5 -41.5v-299q-36 25 -78.5 44
t-87.5 31.5t-89.5 18.5t-84.5 6q-55 0 -100 -10.5t-76 -29.5t-48 -45.5t-17 -59.5q0 -36 19 -64.5t54 -54t85 -50t113 -50.5q86 -36 154.5 -76.5t117.5 -91.5t75 -116.5t26 -152.5q0 -120 -45.5 -201.5t-123.5 -132t-181.5 -72.5t-218.5 -22q-118 0 -224.5 20t-184.5 60z
" />
    <glyph glyph-name="T" unicode="T" horiz-adv-x="1200" 
d="M1171 1171h-409v-1171h-324v1171h-407v263h1140v-263z" />
    <glyph glyph-name="U" unicode="U" horiz-adv-x="1481" 
d="M1333 621q0 -646 -602 -646q-584 0 -584 631v828h324v-832q0 -348 272 -348q267 0 267 336v844h323v-813z" />
    <glyph glyph-name="V" unicode="V" horiz-adv-x="1366" 
d="M1358 1434l-494 -1434h-366l-488 1434h348l299 -998q24 -81 29 -143h6q7 67 31 147l297 994h338z" />
    <glyph glyph-name="W" unicode="W" horiz-adv-x="2058" 
d="M2040 1434l-379 -1434h-358l-238 920q-19 72 -23 161h-4q-9 -98 -26 -161l-244 -920h-373l-377 1434h353l202 -955q13 -61 19 -164h6q4 77 29 168l260 951h346l235 -963q13 -53 23 -154h4q4 79 21 160l198 957h326z" />
    <glyph glyph-name="X" unicode="X" horiz-adv-x="1342" 
d="M1335 0h-383l-247 467q-14 26 -29 96h-4q-7 -33 -33 -100l-248 -463h-385l457 717l-418 717h393l205 -430q24 -51 43 -121h4q12 42 45 125l228 426h360l-430 -711z" />
    <glyph glyph-name="Y" unicode="Y" horiz-adv-x="1243" 
d="M1245 1434l-467 -924v-510h-323v504l-455 930h369l231 -535q6 -15 33 -117h4q13 72 31 113l235 539h342z" />
    <glyph glyph-name="Z" unicode="Z" horiz-adv-x="1243" 
d="M1196 0h-1155v186l735 985h-682v263h1100v-181l-719 -991h721v-262z" />
    <glyph glyph-name="bracketleft" unicode="[" horiz-adv-x="756" 
d="M686 -326h-469v1760h469v-201h-209v-1358h209v-201z" />
    <glyph glyph-name="backslash" unicode="\" horiz-adv-x="893" 
d="M961 -238h-279l-682 1672h281z" />
    <glyph glyph-name="bracketright" unicode="]" horiz-adv-x="756" 
d="M541 -326h-471v201h211v1358h-211v201h471v-1760z" />
    <glyph glyph-name="asciicircum" unicode="^" horiz-adv-x="1448" 
d="M1249 610h-243l-287 586h-4l-271 -586h-241l430 848h162z" />
    <glyph glyph-name="underscore" unicode="_" horiz-adv-x="850" 
d="M850 -297h-850v119h850v-119z" />
    <glyph glyph-name="grave" unicode="`" horiz-adv-x="643" 
d="M596 1186h-227l-314 323h281z" />
    <glyph glyph-name="a" unicode="a" horiz-adv-x="1102" 
d="M985 0h-299v147h-4q-103 -172 -305 -172q-149 0 -234.5 84.5t-85.5 225.5q0 298 353 344l278 37q0 168 -182 168q-183 0 -348 -109v238q66 34 180.5 60t208.5 26q438 0 438 -437v-612zM688 416v69l-186 -24q-154 -20 -154 -139q0 -54 37.5 -88.5t101.5 -34.5
q89 0 145 61.5t56 155.5z" />
    <glyph glyph-name="b" unicode="b" horiz-adv-x="1270" 
d="M453 119h-4v-119h-316v1516h316v-646h4q117 179 333 179q198 0 305 -136t107 -372q0 -256 -125 -411t-334 -155q-189 0 -286 144zM444 551v-105q0 -99 57 -164t146 -65q108 0 167.5 83.5t59.5 236.5q0 127 -54.5 198.5t-155.5 71.5q-95 0 -157.5 -71t-62.5 -185z" />
    <glyph glyph-name="c" unicode="c" horiz-adv-x="983" 
d="M909 37q-107 -62 -309 -62q-236 0 -382 143t-146 369q0 261 156.5 411.5t418.5 150.5q181 0 262 -48v-268q-99 74 -221 74q-136 0 -215.5 -79.5t-79.5 -219.5q0 -136 76 -213.5t209 -77.5q118 0 231 74v-254z" />
    <glyph glyph-name="d" unicode="d" horiz-adv-x="1268" 
d="M1135 0h-316v141h-4q-108 -166 -317 -166q-192 0 -309 135.5t-117 378.5q0 254 129 407t338 153q198 0 276 -142h4v609h316v-1516zM825 498v77q0 100 -58 166t-151 66q-105 0 -164 -82.5t-59 -226.5q0 -135 57 -208t158 -73q96 0 156.5 77t60.5 204z" />
    <glyph glyph-name="e" unicode="e" horiz-adv-x="1108" 
d="M1053 422h-668q16 -223 281 -223q169 0 297 80v-228q-142 -76 -369 -76q-248 0 -385 137.5t-137 383.5q0 255 148 404t364 149q224 0 346.5 -133t122.5 -361v-133zM760 616q0 220 -178 220q-76 0 -131.5 -63t-67.5 -157h377z" />
    <glyph glyph-name="f" unicode="f" horiz-adv-x="785" 
d="M801 1274q-61 24 -117 24q-152 0 -152 -165v-109h234v-233h-234v-791h-315v791h-172v233h172v127q0 175 114 282t310 107q96 0 160 -20v-246z" />
    <glyph glyph-name="g" unicode="g" horiz-adv-x="1268" 
d="M1137 117q0 -285 -165 -441.5t-478 -156.5q-207 0 -328 59v266q158 -92 319 -92q160 0 248 84.5t88 229.5v81h-4q-108 -172 -319 -172q-196 0 -311 138t-115 370q0 260 128 413t337 153q187 0 280 -144h4v119h316v-907zM825 492v81q0 97 -57.5 165.5t-149.5 68.5
q-105 0 -165 -82t-60 -231q0 -128 57 -202.5t156 -74.5q98 0 158.5 75.5t60.5 199.5z" />
    <glyph glyph-name="h" unicode="h" horiz-adv-x="1233" 
d="M1116 0h-315v582q0 225 -164 225q-84 0 -136 -63t-52 -160v-584h-316v1516h316v-644h4q116 177 315 177q348 0 348 -420v-629z" />
    <glyph glyph-name="i" unicode="i" horiz-adv-x="582" 
d="M293 1186q-80 0 -131 47.5t-51 116.5q0 71 51 116t131 45q81 0 131.5 -45t50.5 -116q0 -72 -50.5 -118t-131.5 -46zM449 0h-316v1024h316v-1024z" />
    <glyph glyph-name="j" unicode="j" horiz-adv-x="582" 
d="M293 1186q-80 0 -131 47.5t-51 116.5q0 71 51 116t131 45q81 0 131.5 -45t50.5 -116q0 -72 -50.5 -118t-131.5 -46zM449 18q0 -227 -111 -363t-320 -136q-69 0 -151 30v248q66 -37 117 -37q149 0 149 234v1030h316v-1006z" />
    <glyph glyph-name="k" unicode="k" horiz-adv-x="1145" 
d="M1159 0h-379l-327 508h-4v-508h-316v1516h316v-965h4l305 473h375l-367 -481z" />
    <glyph glyph-name="l" unicode="l" horiz-adv-x="582" 
d="M449 0h-316v1516h316v-1516z" />
    <glyph glyph-name="m" unicode="m" horiz-adv-x="1876" 
d="M1759 0h-315v584q0 223 -164 223q-78 0 -127 -67t-49 -167v-573h-316v590q0 217 -161 217q-81 0 -129.5 -64t-48.5 -174v-569h-316v1024h316v-160h4q49 82 137.5 133.5t193.5 51.5q217 0 297 -191q117 191 344 191q334 0 334 -412v-637z" />
    <glyph glyph-name="n" unicode="n" horiz-adv-x="1239" 
d="M1122 0h-315v569q0 238 -170 238q-82 0 -135 -63t-53 -160v-584h-316v1024h316v-162h4q113 187 329 187q340 0 340 -422v-627z" />
    <glyph glyph-name="o" unicode="o" horiz-adv-x="1252" 
d="M621 -25q-256 0 -402.5 143.5t-146.5 389.5q0 254 152 397.5t411 143.5q255 0 400 -143.5t145 -379.5q0 -255 -149.5 -403t-409.5 -148zM629 807q-112 0 -174 -77t-62 -218q0 -295 238 -295q227 0 227 303q0 287 -229 287z" />
    <glyph glyph-name="p" unicode="p" horiz-adv-x="1270" 
d="M453 119h-4v-590h-316v1495h316v-154h4q117 179 329 179q199 0 307.5 -136.5t108.5 -371.5q0 -256 -126.5 -411t-336.5 -155q-185 0 -282 144zM444 539v-82q0 -106 56 -173t147 -67q108 0 167.5 83.5t59.5 236.5q0 270 -210 270q-97 0 -158.5 -73.5t-61.5 -194.5z" />
    <glyph glyph-name="q" unicode="q" horiz-adv-x="1268" 
d="M1135 -471h-316v612h-4q-107 -166 -315 -166q-193 0 -310.5 134.5t-117.5 377.5q0 256 129 409t336 153q188 0 278 -144h4v119h316v-1495zM825 489v82q0 100 -58 168t-149 68q-105 0 -165 -82.5t-60 -228.5q0 -131 58.5 -205t152.5 -74q100 0 160.5 75t60.5 197z" />
    <glyph glyph-name="r" unicode="r" horiz-adv-x="815" 
d="M801 739q-57 31 -133 31q-103 0 -161 -75.5t-58 -205.5v-489h-316v1024h316v-190h4q75 208 270 208q50 0 78 -12v-291z" />
    <glyph glyph-name="s" unicode="s" horiz-adv-x="901" 
d="M66 27v256q78 -47 155.5 -70t146.5 -23q84 0 132.5 23t48.5 70q0 30 -22 50t-56.5 35t-75.5 27t-79 27q-61 23 -107.5 49.5t-78 61.5t-48 81t-16.5 109q0 86 37.5 148t100 101.5t143 58t167.5 18.5q68 0 138 -10.5t138 -30.5v-244q-60 35 -128.5 52.5t-134.5 17.5
q-31 0 -58.5 -5.5t-48.5 -16t-33 -27t-12 -37.5q0 -28 18 -48t47 -34.5t64.5 -26t70.5 -23.5q63 -22 114 -48t87.5 -61t56 -82t19.5 -112q0 -91 -39.5 -155.5t-105 -105t-151 -59t-177.5 -18.5q-169 0 -313 52z" />
    <glyph glyph-name="t" unicode="t" horiz-adv-x="797" 
d="M752 12q-70 -37 -211 -37q-334 0 -334 347v469h-166v233h166v221l315 90v-311h230v-233h-230v-414q0 -160 127 -160q50 0 103 29v-234z" />
    <glyph glyph-name="u" unicode="u" horiz-adv-x="1239" 
d="M1106 0h-315v156h-5q-117 -181 -313 -181q-356 0 -356 431v618h315v-590q0 -217 172 -217q85 0 136 59.5t51 161.5v586h315v-1024z" />
    <glyph glyph-name="v" unicode="v" horiz-adv-x="1110" 
d="M1108 1024l-381 -1024h-360l-363 1024h338l178 -631q30 -107 35 -182h4q7 71 37 176l182 637h330z" />
    <glyph glyph-name="w" unicode="w" horiz-adv-x="1633" 
d="M1616 1024l-295 -1024h-332l-151 600q-15 60 -17 131h-6q-7 -78 -20 -127l-162 -604h-328l-289 1024h322l141 -668q10 -47 15 -114h6q5 70 18 118l176 664h301l158 -668q6 -25 14 -116h7q5 58 16 116l133 668h293z" />
    <glyph glyph-name="x" unicode="x" horiz-adv-x="1131" 
d="M1122 1024l-338 -496l336 -528h-364l-148 276q-18 33 -43 93h-4q-15 -42 -41 -90l-149 -279h-363l346 510l-325 514h366l146 -287q29 -57 41 -96h4q16 47 43 98l149 285h344z" />
    <glyph glyph-name="y" unicode="y" horiz-adv-x="1102" 
d="M1108 1024l-416 -1106q-150 -399 -452 -399q-115 0 -189 26v252q63 -37 137 -37q122 0 170 115l54 127l-416 1022h350l191 -623q18 -58 28 -137h4q9 58 33 135l193 625h313z" />
    <glyph glyph-name="z" unicode="z" horiz-adv-x="981" 
d="M944 0h-919v131l514 660h-463v233h864v-156l-487 -635h491v-233z" />
    <glyph glyph-name="braceleft" unicode="{" horiz-adv-x="756" 
d="M674 -326q-218 0 -317 80t-99 285v240q0 184 -152 184v184q152 0 152 191v223q0 206 98 289.5t318 83.5v-187q-160 0 -160 -174v-213q0 -240 -154 -303v-4q154 -62 154 -307v-205q0 -98 37.5 -139t122.5 -41v-187z" />
    <glyph glyph-name="bar" unicode="|" horiz-adv-x="668" 
d="M461 -481h-252v2048h252v-2048z" />
    <glyph glyph-name="braceright" unicode="}" horiz-adv-x="756" 
d="M651 463q-153 0 -153 -187v-231q0 -211 -97.5 -291t-316.5 -80v187q84 0 122 40.5t38 137.5v213q0 239 153 299v4q-153 63 -153 313v205q0 174 -160 174v187q218 0 316 -83.5t98 -285.5v-229q0 -189 153 -189v-184z" />
    <glyph glyph-name="asciitilde" unicode="~" horiz-adv-x="1448" 
d="M1255 772q-6 -168 -89.5 -266t-223.5 -98q-106 0 -258 88q-109 63 -156 63q-123 0 -129 -160h-204q6 169 89.5 267t227.5 98q112 0 238 -76q130 -78 180 -78q52 0 85.5 44.5t35.5 117.5h204z" />
    <glyph glyph-name="Adieresis" unicode="&#xc4;" horiz-adv-x="1440" 
d="M1425 0h-352l-102 319h-510l-101 -319h-350l522 1434h383zM897 567l-154 482q-17 54 -24 129h-8q-5 -63 -25 -125l-156 -486h367zM945 1567q-67 0 -110 39t-43 98q0 61 43 99t110 38t110.5 -38.5t43.5 -98.5t-43 -98.5t-111 -38.5zM487 1567q-68 0 -111 39.5t-43 97.5
q0 60 44 98.5t110 38.5q68 0 110.5 -38.5t42.5 -98.5q0 -61 -42.5 -99t-110.5 -38z" />
    <glyph glyph-name="Aring" unicode="&#xc5;" horiz-adv-x="1440" 
d="M1425 0h-352l-102 319h-510l-101 -319h-350l512 1407q-53 54 -53 137q0 106 73.5 169t180.5 63q114 0 184 -63.5t70 -164.5q0 -80 -53 -137zM719 1645q-47 0 -75 -28.5t-28 -70.5q0 -98 103 -98q48 0 77 28.5t29 69.5q0 43 -29.5 71t-76.5 28zM893 584l-152 465
q-13 40 -22 120h-8q-7 -68 -23 -116l-153 -469h358z" />
    <glyph glyph-name="Ccedilla" unicode="&#xc7;" horiz-adv-x="1278" 
d="M1192 51q-157 -76 -410 -76q-330 0 -519 194t-189 517q0 344 212.5 558t551.5 214q210 0 354 -53v-311q-144 86 -328 86q-202 0 -326 -127t-124 -344q0 -208 117 -331.5t315 -123.5q189 0 346 92v-295zM610 -451v138q35 -6 72 -6q123 0 123 73q0 66 -111 66q-13 0 -37 -2
v182h172v-82q187 -8 187 -166q0 -207 -318 -207q-46 0 -88 4z" />
    <glyph glyph-name="Eacute" unicode="&#xc9;" horiz-adv-x="1090" 
d="M1024 0h-860v1434h827v-263h-504v-319h469v-262h-469v-328h537v-262zM934 1890l-313 -323h-228l260 323h281z" />
    <glyph glyph-name="Ntilde" unicode="&#xd1;" horiz-adv-x="1618" 
d="M1454 0h-326l-591 901q-52 79 -72 119h-4q8 -76 8 -232v-788h-305v1434h348l569 -873q39 -59 72 -117h4q-8 50 -8 197v793h305v-1434zM1206 1878q0 -140 -55.5 -216.5t-151.5 -76.5q-86 0 -168 43q-89 47 -123 47q-80 0 -80 -108h-141q0 139 55 216t154 77q81 0 168 -49
q79 -44 120 -44q78 0 78 111h144z" />
    <glyph glyph-name="Odieresis" unicode="&#xd6;" horiz-adv-x="1553" 
d="M770 -25q-308 0 -502 200.5t-194 522.5q0 340 197 550t522 210q307 0 496.5 -201t189.5 -530q0 -338 -196.5 -545t-512.5 -207zM784 1180q-170 0 -270 -127.5t-100 -337.5q0 -213 100 -337t262 -124q167 0 265 120.5t98 334.5q0 223 -95 347t-260 124zM1004 1567
q-67 0 -110 39t-43 98q0 61 43 99t110 38t110.5 -38.5t43.5 -98.5t-43 -98.5t-111 -38.5zM546 1567q-68 0 -111 39.5t-43 97.5q0 60 44 98.5t110 38.5q68 0 110.5 -38.5t42.5 -98.5q0 -61 -42.5 -99t-110.5 -38z" />
    <glyph glyph-name="Udieresis" unicode="&#xdc;" horiz-adv-x="1481" 
d="M1333 621q0 -646 -602 -646q-584 0 -584 631v828h324v-832q0 -348 272 -348q267 0 267 336v844h323v-813zM969 1567q-67 0 -110 39t-43 98q0 61 43 99t110 38t110.5 -38.5t43.5 -98.5t-43 -98.5t-111 -38.5zM511 1567q-68 0 -111 39.5t-43 97.5q0 60 44 98.5t110 38.5
q68 0 110.5 -38.5t42.5 -98.5q0 -61 -42.5 -99t-110.5 -38z" />
    <glyph glyph-name="aacute" unicode="&#xe1;" horiz-adv-x="1102" 
d="M985 0h-299v147h-4q-103 -172 -305 -172q-149 0 -234.5 84.5t-85.5 225.5q0 298 353 344l278 37q0 168 -182 168q-183 0 -348 -109v238q66 34 180.5 60t208.5 26q438 0 438 -437v-612zM688 416v69l-186 -24q-154 -20 -154 -139q0 -54 37.5 -88.5t101.5 -34.5
q89 0 145 61.5t56 155.5zM891 1509l-313 -323h-228l260 323h281z" />
    <glyph glyph-name="agrave" unicode="&#xe0;" horiz-adv-x="1102" 
d="M985 0h-299v147h-4q-103 -172 -305 -172q-149 0 -234.5 84.5t-85.5 225.5q0 298 353 344l278 37q0 168 -182 168q-183 0 -348 -109v238q66 34 180.5 60t208.5 26q438 0 438 -437v-612zM688 416v69l-186 -24q-154 -20 -154 -139q0 -54 37.5 -88.5t101.5 -34.5
q89 0 145 61.5t56 155.5zM775 1186h-227l-314 323h281z" />
    <glyph glyph-name="acircumflex" unicode="&#xe2;" horiz-adv-x="1102" 
d="M985 0h-299v147h-4q-103 -172 -305 -172q-149 0 -234.5 84.5t-85.5 225.5q0 298 353 344l278 37q0 168 -182 168q-183 0 -348 -109v238q66 34 180.5 60t208.5 26q438 0 438 -437v-612zM688 416v69l-186 -24q-154 -20 -154 -139q0 -54 37.5 -88.5t101.5 -34.5
q89 0 145 61.5t56 155.5zM914 1186h-207l-158 188l-147 -188h-207l235 325h248z" />
    <glyph glyph-name="adieresis" unicode="&#xe4;" horiz-adv-x="1102" 
d="M985 0h-299v147h-4q-103 -172 -305 -172q-149 0 -234.5 84.5t-85.5 225.5q0 298 353 344l278 37q0 168 -182 168q-183 0 -348 -109v238q66 34 180.5 60t208.5 26q438 0 438 -437v-612zM688 416v69l-186 -24q-154 -20 -154 -139q0 -54 37.5 -88.5t101.5 -34.5
q89 0 145 61.5t56 155.5zM787 1186q-67 0 -110 39t-43 98q0 61 43 99t110 38t110.5 -38.5t43.5 -98.5t-43 -98.5t-111 -38.5zM329 1186q-68 0 -111 39.5t-43 97.5q0 60 44 98.5t110 38.5q68 0 110.5 -38.5t42.5 -98.5q0 -61 -42.5 -99t-110.5 -38z" />
    <glyph glyph-name="atilde" unicode="&#xe3;" horiz-adv-x="1102" 
d="M985 0h-299v147h-4q-103 -172 -305 -172q-149 0 -234.5 84.5t-85.5 225.5q0 298 353 344l278 37q0 168 -182 168q-183 0 -348 -109v238q66 34 180.5 60t208.5 26q438 0 438 -437v-612zM688 416v69l-186 -24q-154 -20 -154 -139q0 -54 37.5 -88.5t101.5 -34.5
q89 0 145 61.5t56 155.5zM907 1497q0 -140 -55.5 -216.5t-151.5 -76.5q-86 0 -168 43q-89 47 -123 47q-80 0 -80 -108h-141q0 139 55 216t154 77q81 0 168 -49q79 -44 120 -44q78 0 78 111h144z" />
    <glyph glyph-name="aring" unicode="&#xe5;" horiz-adv-x="1102" 
d="M985 0h-299v147h-4q-103 -172 -305 -172q-149 0 -234.5 84.5t-85.5 225.5q0 298 353 344l278 37q0 168 -182 168q-183 0 -348 -109v238q66 34 180.5 60t208.5 26q438 0 438 -437v-612zM688 416v69l-186 -24q-154 -20 -154 -139q0 -54 37.5 -88.5t101.5 -34.5
q89 0 145 61.5t56 155.5zM573 1186q-102 0 -168.5 59.5t-66.5 155.5q0 101 69.5 161t170.5 60q107 0 173 -59.5t66 -155.5q0 -98 -71.5 -159.5t-172.5 -61.5zM573 1499q-96 0 -96 -94t96 -94q45 0 74 27.5t29 66.5q0 41 -28.5 67.5t-74.5 26.5z" />
    <glyph glyph-name="ccedilla" unicode="&#xe7;" horiz-adv-x="983" 
d="M909 37q-107 -62 -309 -62q-236 0 -382 143t-146 369q0 261 156.5 411.5t418.5 150.5q181 0 262 -48v-268q-99 74 -221 74q-136 0 -215.5 -79.5t-79.5 -219.5q0 -136 76 -213.5t209 -77.5q118 0 231 74v-254zM426 -451v138q35 -6 72 -6q123 0 123 73q0 66 -111 66
q-13 0 -37 -2v182h172v-82q187 -8 187 -166q0 -207 -318 -207q-46 0 -88 4z" />
    <glyph glyph-name="eacute" unicode="&#xe9;" horiz-adv-x="1108" 
d="M1053 422h-668q16 -223 281 -223q169 0 297 80v-228q-142 -76 -369 -76q-248 0 -385 137.5t-137 383.5q0 255 148 404t364 149q224 0 346.5 -133t122.5 -361v-133zM760 616q0 220 -178 220q-76 0 -131.5 -63t-67.5 -157h377zM921 1509l-313 -323h-228l260 323h281z" />
    <glyph glyph-name="egrave" unicode="&#xe8;" horiz-adv-x="1108" 
d="M1053 422h-668q16 -223 281 -223q169 0 297 80v-228q-142 -76 -369 -76q-248 0 -385 137.5t-137 383.5q0 255 148 404t364 149q224 0 346.5 -133t122.5 -361v-133zM760 616q0 220 -178 220q-76 0 -131.5 -63t-67.5 -157h377zM795 1186h-227l-314 323h281z" />
    <glyph glyph-name="ecircumflex" unicode="&#xea;" horiz-adv-x="1108" 
d="M1053 422h-668q16 -223 281 -223q169 0 297 80v-228q-142 -76 -369 -76q-248 0 -385 137.5t-137 383.5q0 255 148 404t364 149q224 0 346.5 -133t122.5 -361v-133zM760 616q0 220 -178 220q-76 0 -131.5 -63t-67.5 -157h377zM949 1186h-207l-158 188l-147 -188h-207
l235 325h248z" />
    <glyph glyph-name="edieresis" unicode="&#xeb;" horiz-adv-x="1108" 
d="M1053 422h-668q16 -223 281 -223q169 0 297 80v-228q-142 -76 -369 -76q-248 0 -385 137.5t-137 383.5q0 255 148 404t364 149q224 0 346.5 -133t122.5 -361v-133zM760 616q0 220 -178 220q-76 0 -131.5 -63t-67.5 -157h377zM808 1186q-67 0 -110 39t-43 98q0 61 43 99
t110 38t110.5 -38.5t43.5 -98.5t-43 -98.5t-111 -38.5zM350 1186q-68 0 -111 39.5t-43 97.5q0 60 44 98.5t110 38.5q68 0 110.5 -38.5t42.5 -98.5q0 -61 -42.5 -99t-110.5 -38z" />
    <glyph glyph-name="iacute" unicode="&#xed;" horiz-adv-x="582" 
d="M449 0h-316v1024h316v-1024zM612 1509l-313 -323h-228l260 323h281z" />
    <glyph glyph-name="igrave" unicode="&#xec;" horiz-adv-x="582" 
d="M449 0h-316v1024h316v-1024zM514 1186h-227l-314 323h281z" />
    <glyph glyph-name="icircumflex" unicode="&#xee;" horiz-adv-x="582" 
d="M449 0h-316v1024h316v-1024zM657 1186h-207l-158 188l-147 -188h-207l235 325h248z" />
    <glyph glyph-name="idieresis" unicode="&#xef;" horiz-adv-x="582" 
d="M449 0h-316v1024h316v-1024zM526 1186q-67 0 -110 39t-43 98q0 61 43 99t110 38t110.5 -38.5t43.5 -98.5t-43 -98.5t-111 -38.5zM68 1186q-68 0 -111 39.5t-43 97.5q0 60 44 98.5t110 38.5q68 0 110.5 -38.5t42.5 -98.5q0 -61 -42.5 -99t-110.5 -38z" />
    <glyph glyph-name="ntilde" unicode="&#xf1;" horiz-adv-x="1239" 
d="M1122 0h-315v569q0 238 -170 238q-82 0 -135 -63t-53 -160v-584h-316v1024h316v-162h4q113 187 329 187q340 0 340 -422v-627zM982 1497q0 -140 -55.5 -216.5t-151.5 -76.5q-86 0 -168 43q-89 47 -123 47q-80 0 -80 -108h-141q0 139 55 216t154 77q81 0 168 -49
q79 -44 120 -44q78 0 78 111h144z" />
    <glyph glyph-name="oacute" unicode="&#xf3;" horiz-adv-x="1252" 
d="M621 -25q-256 0 -402.5 143.5t-146.5 389.5q0 254 152 397.5t411 143.5q255 0 400 -143.5t145 -379.5q0 -255 -149.5 -403t-409.5 -148zM629 807q-112 0 -174 -77t-62 -218q0 -295 238 -295q227 0 227 303q0 287 -229 287zM968 1509l-313 -323h-228l260 323h281z" />
    <glyph glyph-name="ograve" unicode="&#xf2;" horiz-adv-x="1252" 
d="M621 -25q-256 0 -402.5 143.5t-146.5 389.5q0 254 152 397.5t411 143.5q255 0 400 -143.5t145 -379.5q0 -255 -149.5 -403t-409.5 -148zM629 807q-112 0 -174 -77t-62 -218q0 -295 238 -295q227 0 227 303q0 287 -229 287zM852 1186h-227l-314 323h281z" />
    <glyph glyph-name="ocircumflex" unicode="&#xf4;" horiz-adv-x="1252" 
d="M621 -25q-256 0 -402.5 143.5t-146.5 389.5q0 254 152 397.5t411 143.5q255 0 400 -143.5t145 -379.5q0 -255 -149.5 -403t-409.5 -148zM629 807q-112 0 -174 -77t-62 -218q0 -295 238 -295q227 0 227 303q0 287 -229 287zM988 1186h-207l-158 188l-147 -188h-207
l235 325h248z" />
    <glyph glyph-name="odieresis" unicode="&#xf6;" horiz-adv-x="1252" 
d="M621 -25q-256 0 -402.5 143.5t-146.5 389.5q0 254 152 397.5t411 143.5q255 0 400 -143.5t145 -379.5q0 -255 -149.5 -403t-409.5 -148zM629 807q-112 0 -174 -77t-62 -218q0 -295 238 -295q227 0 227 303q0 287 -229 287zM859 1186q-67 0 -110 39t-43 98q0 61 43 99
t110 38t110.5 -38.5t43.5 -98.5t-43 -98.5t-111 -38.5zM401 1186q-68 0 -111 39.5t-43 97.5q0 60 44 98.5t110 38.5q68 0 110.5 -38.5t42.5 -98.5q0 -61 -42.5 -99t-110.5 -38z" />
    <glyph glyph-name="otilde" unicode="&#xf5;" horiz-adv-x="1252" 
d="M621 -25q-256 0 -402.5 143.5t-146.5 389.5q0 254 152 397.5t411 143.5q255 0 400 -143.5t145 -379.5q0 -255 -149.5 -403t-409.5 -148zM629 807q-112 0 -174 -77t-62 -218q0 -295 238 -295q227 0 227 303q0 287 -229 287zM985 1497q0 -140 -55.5 -216.5t-151.5 -76.5
q-86 0 -168 43q-89 47 -123 47q-80 0 -80 -108h-141q0 139 55 216t154 77q81 0 168 -49q79 -44 120 -44q78 0 78 111h144z" />
    <glyph glyph-name="uacute" unicode="&#xfa;" horiz-adv-x="1239" 
d="M1106 0h-315v156h-5q-117 -181 -313 -181q-356 0 -356 431v618h315v-590q0 -217 172 -217q85 0 136 59.5t51 161.5v586h315v-1024zM977 1509l-313 -323h-228l260 323h281z" />
    <glyph glyph-name="ugrave" unicode="&#xf9;" horiz-adv-x="1239" 
d="M1106 0h-315v156h-5q-117 -181 -313 -181q-356 0 -356 431v618h315v-590q0 -217 172 -217q85 0 136 59.5t51 161.5v586h315v-1024zM784 1186h-227l-314 323h281z" />
    <glyph glyph-name="ucircumflex" unicode="&#xfb;" horiz-adv-x="1239" 
d="M1106 0h-315v156h-5q-117 -181 -313 -181q-356 0 -356 431v618h315v-590q0 -217 172 -217q85 0 136 59.5t51 161.5v586h315v-1024zM970 1186h-207l-158 188l-147 -188h-207l235 325h248z" />
    <glyph glyph-name="udieresis" unicode="&#xfc;" horiz-adv-x="1239" 
d="M1106 0h-315v156h-5q-117 -181 -313 -181q-356 0 -356 431v618h315v-590q0 -217 172 -217q85 0 136 59.5t51 161.5v586h315v-1024zM844 1186q-67 0 -110 39t-43 98q0 61 43 99t110 38t110.5 -38.5t43.5 -98.5t-43 -98.5t-111 -38.5zM386 1186q-68 0 -111 39.5t-43 97.5
q0 60 44 98.5t110 38.5q68 0 110.5 -38.5t42.5 -98.5q0 -61 -42.5 -99t-110.5 -38z" />
    <glyph glyph-name="dagger" unicode="&#x2020;" horiz-adv-x="832" 
d="M798 868l-273 30l-45 -696h-129l-45 696l-273 -30v226l293 -30l-30 370h239l-30 -370l293 30v-226z" />
    <glyph glyph-name="degree" unicode="&#xb0;" horiz-adv-x="778" 
d="M399 895q-119 0 -201.5 82.5t-82.5 200.5t82.5 199t201.5 81q118 0 201.5 -81t83.5 -199t-83.5 -200.5t-201.5 -82.5zM399 1307q-54 0 -91.5 -37.5t-37.5 -91.5t37.5 -92.5t91.5 -38.5q53 0 91 38.5t38 92.5t-37.5 91.5t-91.5 37.5z" />
    <glyph glyph-name="cent" unicode="&#xa2;" horiz-adv-x="1178" 
d="M1004 207q-73 -42 -181 -55v-189h-161v184q-216 12 -354 151.5t-138 358.5q0 234 134 381.5t358 171.5v211h161v-207q110 -6 181 -45v-272q-76 58 -181 70v-574q108 17 181 68v-254zM662 399v559q-195 -59 -195 -280q0 -222 195 -279z" />
    <glyph glyph-name="sterling" unicode="&#xa3;" horiz-adv-x="1178" 
d="M1114 0h-971v227q193 52 193 269v116h-172v217h172v187q0 198 122 320t330 122q127 0 234 -49v-258q-98 66 -209 66q-184 0 -184 -230v-158h268v-217h-268v-86q0 -184 -152 -284h637v-242z" />
    <glyph glyph-name="section" unicode="&#xa7;" horiz-adv-x="994" 
d="M752 434q82 -75 82 -174q0 -149 -108.5 -237.5t-285.5 -88.5q-163 0 -290 68v248q180 -105 311 -105q127 0 127 99q0 61 -96 108q-141 65 -210 112.5t-110 116.5t-41 150q0 143 125 234q-88 88 -88 215q0 140 102.5 225.5t274.5 85.5q139 0 260 -55v-250q-139 96 -260 96
q-123 0 -123 -94q0 -45 40.5 -77.5t184.5 -96.5q254 -112 254 -309q0 -167 -149 -271zM432 864q-65 -38 -65 -110q0 -57 51 -102t178 -99q66 44 66 123q0 62 -53.5 100.5t-176.5 87.5z" />
    <glyph glyph-name="bullet" unicode="&#x2022;" horiz-adv-x="865" 
d="M434 281q-113 0 -193.5 81t-80.5 195t80 194t194 80t195.5 -80.5t81.5 -193.5t-81.5 -194.5t-195.5 -81.5z" />
    <glyph glyph-name="paragraph" unicode="&#xb6;" horiz-adv-x="1043" 
d="M946 1272h-117v-1272h-174v1272h-118v-1272h-177v836q-115 7 -191.5 92t-76.5 211q0 129 85.5 212t211.5 83h557v-162z" />
    <glyph glyph-name="germandbls" unicode="&#xdf;" horiz-adv-x="1286" 
d="M545 8v262q83 -53 176 -53q83 0 132.5 52.5t49.5 144.5q0 116 -89 183.5t-251 72.5v221q111 8 172.5 68t61.5 159q0 84 -44.5 132t-119.5 48q-184 0 -184 -245v-1053h-316v1049q0 223 137 357t381 134q217 0 343 -109.5t126 -281.5q0 -122 -71.5 -214t-184.5 -126v-4
q363 -69 363 -399q0 -180 -126.5 -305.5t-342.5 -125.5q-105 0 -213 33z" />
    <glyph glyph-name="sfthyphen" horiz-adv-x="828" 
d="M690 436h-547v221h547v-221z" />
    <glyph glyph-name="registered" unicode="&#xae;" horiz-adv-x="1790" 
d="M893 -25q-333 0 -547.5 207t-214.5 531q0 317 220.5 531t549.5 214q328 0 544 -208.5t216 -532.5q0 -317 -221.5 -529.5t-546.5 -212.5zM897 1346q-275 0 -454 -180t-179 -449q0 -272 181.5 -450.5t451.5 -178.5q265 0 448 179.5t183 447.5q0 272 -180 451.5t-451 179.5z
M1288 264h-254l-76 232q-40 122 -110 122h-74v-354h-211v922h320q370 0 370 -262q0 -189 -217 -244v-4q90 -20 142 -146zM774 1010v-230h111q139 0 139 119q0 111 -160 111h-90z" />
    <glyph glyph-name="copyright" unicode="&#xa9;" horiz-adv-x="1790" 
d="M893 -25q-333 0 -547.5 207t-214.5 531q0 317 220.5 531t549.5 214q328 0 544 -208.5t216 -532.5q0 -317 -221.5 -529.5t-546.5 -212.5zM897 1346q-275 0 -454 -180t-179 -449q0 -272 181.5 -450.5t451.5 -178.5q265 0 448 179.5t183 447.5q0 272 -180 451.5t-451 179.5z
M1204 295q-125 -68 -274 -68q-209 0 -346.5 134t-137.5 335q0 231 143.5 370.5t373.5 139.5q125 0 239 -55v-236q-98 76 -244 76q-115 0 -192.5 -76.5t-77.5 -205.5q0 -122 78.5 -197.5t198.5 -75.5q141 0 239 76v-217z" />
    <glyph glyph-name="trademark" unicode="&#x2122;" horiz-adv-x="1579" 
d="M1395 772h-150v445h-4l-160 -445h-135l-145 445h-6v-445h-148v662h217l156 -453h4l168 453h203v-662zM582 1311h-179v-539h-155v539h-172v123h506v-123z" />
    <glyph glyph-name="acute" unicode="&#xb4;" horiz-adv-x="621" 
d="M596 1509l-313 -323h-228l260 323h281z" />
    <glyph glyph-name="dieresis" unicode="&#xa8;" horiz-adv-x="946" 
d="M698 1186q-67 0 -110 39t-43 98q0 61 43 99t110 38t110.5 -38.5t43.5 -98.5t-43 -98.5t-111 -38.5zM240 1186q-68 0 -111 39.5t-43 97.5q0 60 44 98.5t110 38.5q68 0 110.5 -38.5t42.5 -98.5q0 -61 -42.5 -99t-110.5 -38z" />
    <glyph glyph-name="AE" unicode="&#xc6;" horiz-adv-x="1915" 
d="M1849 0h-858v319h-471l-147 -319h-375l725 1434h1094v-263h-504v-319h469v-262h-469v-328h536v-262zM991 567v604h-78l-282 -604h360z" />
    <glyph glyph-name="Oslash" unicode="&#xd8;" horiz-adv-x="1553" 
d="M348 109l-143 -170l-125 104l149 176q-155 192 -155 479q0 340 196.5 550t522.5 210q234 0 401 -119l129 150l125 -103l-135 -157q166 -196 166 -502q0 -338 -196.5 -545t-512.5 -207q-240 0 -422 134zM1016 1130q-97 76 -232 76q-181 0 -287 -136.5t-106 -360.5
q0 -146 47 -252zM1110 995l-578 -676q101 -92 244 -92q175 0 281 128.5t106 351.5q0 164 -53 288z" />
    <glyph glyph-name="plusminus" unicode="&#xb1;" horiz-adv-x="1448" 
d="M1212 694h-385v-387h-202v387h-383v203h383v391h202v-391h385v-203zM1210 0h-972v203h972v-203z" />
    <glyph glyph-name="yen" unicode="&#xa5;" horiz-adv-x="1178" 
d="M1157 1434l-354 -641h252v-189h-305v-153h305v-189h-305v-262h-308v262h-315v189h315v153h-315v189h256l-342 641h321l246 -570h4q4 11 37 90l203 480h305z" />
    <glyph glyph-name="mu1" unicode="&#xb5;" horiz-adv-x="1255" 
d="M1161 0h-324q-25 70 -25 154h-4q-57 -177 -216 -177q-97 0 -140 64h-3v-436h-316v1419h316v-589q0 -207 170 -207q184 0 184 254v542h319v-710q0 -236 39 -314z" />
    <glyph glyph-name="ordfeminine" unicode="&#xaa;" horiz-adv-x="840" 
d="M739 717h-213v86h-4q-87 -107 -219 -107q-101 0 -166 61t-65 158q0 211 262 244l192 25q0 114 -139 114q-118 0 -246 -77v176q124 57 287 57q311 0 311 -299v-438zM526 985v70l-123 -17q-116 -16 -116 -96q0 -88 104 -88q54 0 94.5 38.5t40.5 92.5z" />
    <glyph glyph-name="ordmasculine" unicode="&#xba;" horiz-adv-x="934" 
d="M459 696q-185 0 -287 99.5t-102 277.5q0 179 108.5 280t292.5 101q181 0 284 -101.5t103 -265.5q0 -184 -106.5 -287.5t-292.5 -103.5zM465 1280q-164 0 -164 -203q0 -207 164 -207q160 0 160 209q0 201 -160 201z" />
    <glyph glyph-name="ae" unicode="&#xe6;" horiz-adv-x="1696" 
d="M1640 422h-667q20 -223 282 -223q160 0 297 80v-226q-156 -78 -378 -78q-269 0 -398 179h-4q-141 -179 -362 -179q-166 0 -259.5 82.5t-93.5 229.5q0 146 96.5 234t276.5 102l256 20q0 191 -184 191q-174 0 -344 -107v236q187 86 370 86q234 0 324 -134h4
q132 134 326 134q214 0 336 -133t122 -365v-129zM1348 616q0 220 -177 220q-75 0 -131.5 -62t-66.5 -158h375zM686 414v45l-156 -13q-184 -15 -184 -131q0 -50 39 -83t102 -33q86 0 142.5 59.5t56.5 155.5z" />
    <glyph glyph-name="oslash" unicode="&#xf8;" horiz-adv-x="1252" 
d="M1206 1010l-139 -146q113 -143 113 -338q0 -259 -148 -404t-411 -145q-198 0 -328 86l-135 -141l-119 107l137 143q-104 141 -104 338q0 253 152.5 397t412.5 144q179 0 311 -82l139 147zM772 791q-56 40 -141 40q-258 0 -258 -317q0 -73 18 -121zM862 651l-393 -409
q61 -45 160 -45q252 0 252 323q0 74 -19 131z" />
    <glyph glyph-name="questiondown" unicode="&#xbf;" horiz-adv-x="897" 
d="M647 611q10 -26 15.5 -58.5t5.5 -61.5q0 -46 -9 -84t-27 -71.5t-45 -64t-63 -60.5q-37 -32 -66 -59.5t-49 -55t-30 -57t-10 -65.5q0 -31 11 -57.5t31.5 -45.5t50 -30t65.5 -11q78 0 162 32.5t159 98.5v-301q-77 -46 -168 -69t-188 -23q-93 0 -173 20.5t-139.5 64.5
t-93 112.5t-33.5 164.5q0 61 14 110.5t41 93.5t67 84.5t92 83.5q35 29 61.5 54t44 49.5t26.5 52t9 62.5q0 24 -6.5 49t-17.5 42h263zM501 1049q81 0 133 -48q53 -50 53 -118q0 -70 -53 -117t-133 -47q-79 0 -131 47q-52 46 -52 117q0 73 51 119q52 47 132 47z" />
    <glyph glyph-name="nonbreakingspace" horiz-adv-x="565" 
 />
    <glyph glyph-name="exclamdown" unicode="&#xa1;" horiz-adv-x="670" 
d="M336 721q-81 0 -132.5 46t-51.5 116q0 72 51.5 119t132.5 47q79 0 130.5 -48t51.5 -118q0 -72 -51.5 -117t-130.5 -45zM504 -408h-332l37 990h256z" />
    <glyph glyph-name="logicalnot" unicode="&#xac;" horiz-adv-x="1448" 
d="M1212 266h-202v389h-772v203h974v-592z" />
    <glyph glyph-name="florin" unicode="&#x192;" horiz-adv-x="1178" 
d="M1044 1174q-64 30 -133 30q-124 0 -147 -137l-23 -137h158v-215h-192l-91 -594q-30 -196 -140 -311t-277 -115q-50 0 -121 20v242q39 -20 92 -20q123 0 154 202l88 576h-105v215h142l22 149q25 167 135 267t279 100q82 0 159 -23v-249z" />
    <glyph glyph-name="guillemotleft" unicode="&#xab;" horiz-adv-x="1190" 
d="M1137 201h-269l-327 336l327 344h269l-334 -344zM651 201h-268l-330 336l330 344h266l-334 -344z" />
    <glyph glyph-name="guillemotright" unicode="&#xbb;" horiz-adv-x="1190" 
d="M1137 537l-328 -336h-268l333 336l-331 344h266zM651 537l-329 -336h-269l336 336l-334 344h267z" />
    <glyph glyph-name="ellipsis" unicode="&#x2026;" horiz-adv-x="1868" 
d="M1554 -23q-78 0 -130 48t-52 118q0 72 52.5 118t131.5 46q81 0 133 -46.5t52 -117.5q0 -73 -51.5 -119.5t-135.5 -46.5zM932 -23q-78 0 -129 48t-51 118q0 72 51.5 118t130.5 46q81 0 132.5 -46.5t51.5 -117.5q0 -73 -51.5 -119.5t-134.5 -46.5zM309 -23q-78 0 -129 48
t-51 118q0 72 51.5 118t130.5 46q81 0 133 -46.5t52 -117.5q0 -73 -51.5 -119.5t-135.5 -46.5z" />
    <glyph glyph-name="Agrave" unicode="&#xc0;" horiz-adv-x="1440" 
d="M1425 0h-352l-102 319h-510l-101 -319h-350l522 1434h383zM897 567l-154 482q-17 54 -24 129h-8q-5 -63 -25 -125l-156 -486h367zM916 1567h-227l-314 323h281z" />
    <glyph glyph-name="Atilde" unicode="&#xc3;" horiz-adv-x="1440" 
d="M1425 0h-352l-102 319h-510l-101 -319h-350l522 1434h383zM897 567l-154 482q-17 54 -24 129h-8q-5 -63 -25 -125l-156 -486h367zM1077 1878q0 -140 -55.5 -216.5t-151.5 -76.5q-86 0 -168 43q-89 47 -123 47q-80 0 -80 -108h-141q0 139 55 216t154 77q81 0 168 -49
q79 -44 120 -44q78 0 78 111h144z" />
    <glyph glyph-name="Otilde" unicode="&#xd5;" horiz-adv-x="1553" 
d="M770 -25q-308 0 -502 200.5t-194 522.5q0 340 197 550t522 210q307 0 496.5 -201t189.5 -530q0 -338 -196.5 -545t-512.5 -207zM784 1180q-170 0 -270 -127.5t-100 -337.5q0 -213 100 -337t262 -124q167 0 265 120.5t98 334.5q0 223 -95 347t-260 124zM1147 1878
q0 -140 -55.5 -216.5t-151.5 -76.5q-86 0 -168 43q-89 47 -123 47q-80 0 -80 -108h-141q0 139 55 216t154 77q81 0 168 -49q79 -44 120 -44q78 0 78 111h144z" />
    <glyph glyph-name="OE" unicode="&#x152;" horiz-adv-x="1925" 
d="M1860 0h-828q-26 0 -117 -12q-90 -13 -157 -13q-307 0 -495.5 203t-188.5 520q0 342 194 551t516 209q63 0 151 -12q89 -12 109 -12h783v-263h-504v-323h469v-264h-469v-322h537v-262zM991 305v823q-86 52 -209 52q-168 0 -267 -129.5t-99 -339.5q0 -208 101 -332.5
t261 -124.5q116 0 213 51z" />
    <glyph glyph-name="oe" unicode="&#x153;" horiz-adv-x="1893" 
d="M1837 422h-670q14 -223 283 -223q167 0 295 80v-228q-142 -76 -346 -76q-252 0 -391 189h-4q-137 -187 -408 -187q-234 0 -379 143t-145 388q0 251 147 397t389 146q134 0 238.5 -49.5t154.5 -127.5h5q118 175 376 175q213 0 334 -134t121 -358v-135zM1542 616
q0 220 -174 220q-80 0 -135 -63.5t-66 -156.5h375zM631 807q-113 0 -175.5 -77.5t-62.5 -217.5q0 -293 236 -293q229 0 229 297q0 138 -59.5 214.5t-167.5 76.5z" />
    <glyph glyph-name="endash" unicode="&#x2013;" horiz-adv-x="1024" 
d="M1024 436h-1024v221h1024v-221z" />
    <glyph glyph-name="emdash" unicode="&#x2014;" horiz-adv-x="2048" 
d="M2048 436h-2048v221h2048v-221z" />
    <glyph glyph-name="quotedblleft" unicode="&#x201c;" horiz-adv-x="1010" 
d="M897 1468l-113 -444h-272l190 444h195zM481 1468l-110 -444h-275l189 444h196z" />
    <glyph glyph-name="quotedblright" unicode="&#x201d;" horiz-adv-x="1010" 
d="M915 1468l-190 -444h-197l113 444h274zM500 1468l-193 -444h-194l114 444h273z" />
    <glyph glyph-name="quoteleft" unicode="&#x2018;" horiz-adv-x="594" 
d="M481 1468l-110 -444h-275l189 444h196z" />
    <glyph glyph-name="quoteright" unicode="&#x2019;" horiz-adv-x="594" 
d="M500 1468l-193 -444h-194l114 444h273z" />
    <glyph glyph-name="divide" unicode="&#xf7;" horiz-adv-x="1448" 
d="M731 846q-59 0 -100 40t-41 97q0 62 39.5 103.5t101.5 41.5t99.5 -40t37.5 -103q0 -61 -40.5 -100t-96.5 -39zM1212 485h-974v203h974v-203zM727 47q-59 0 -100 39t-41 96q0 62 39.5 104t101.5 42t99.5 -40.5t37.5 -103.5q0 -61 -40 -99t-97 -38z" />
    <glyph glyph-name="ydieresis" unicode="&#xff;" horiz-adv-x="1102" 
d="M1108 1024l-416 -1106q-150 -399 -452 -399q-115 0 -189 26v252q63 -37 137 -37q122 0 170 115l54 127l-416 1022h350l191 -623q18 -58 28 -137h4q9 58 33 135l193 625h313zM793 1186q-67 0 -110 39t-43 98q0 61 43 99t110 38t110.5 -38.5t43.5 -98.5t-43 -98.5
t-111 -38.5zM335 1186q-68 0 -111 39.5t-43 97.5q0 60 44 98.5t110 38.5q68 0 110.5 -38.5t42.5 -98.5q0 -61 -42.5 -99t-110.5 -38z" />
    <glyph glyph-name="Ydieresis" unicode="&#x178;" horiz-adv-x="1243" 
d="M1245 1434l-467 -924v-510h-323v504l-455 930h369l231 -535q6 -15 33 -117h4q13 72 31 113l235 539h342zM858 1567q-67 0 -110 39t-43 98q0 61 43 99t110 38t110.5 -38.5t43.5 -98.5t-43 -98.5t-111 -38.5zM400 1567q-68 0 -111 39.5t-43 97.5q0 60 44 98.5t110 38.5
q68 0 110.5 -38.5t42.5 -98.5q0 -61 -42.5 -99t-110.5 -38z" />
    <glyph glyph-name="fraction" unicode="&#x2044;" horiz-adv-x="719" 
d="M932 1434l-891 -1434h-244l891 1434h244z" />
    <glyph glyph-name="fraction" unicode="&#x2215;" horiz-adv-x="719" 
d="M932 1434l-891 -1434h-244l891 1434h244z" />
    <glyph glyph-name="Euro" unicode="&#x20ac;" horiz-adv-x="1178" 
d="M1094 45q-118 -72 -308 -72q-225 0 -367 124.5t-188 355.5h-122v190h96q-2 25 -2 59q0 18 4 82h-98v187h127q55 231 208 359t381 128q167 0 269 -55v-260q-112 88 -254 88q-110 0 -193.5 -71t-118.5 -189h426v-187h-456q-4 -59 -4 -82q0 -27 2 -59h458v-190h-428
q75 -252 299 -252q141 0 269 90v-246z" />
    <glyph glyph-name="guilsinglleft" unicode="&#x2039;" horiz-adv-x="705" 
d="M651 201h-268l-330 336l330 344h268l-334 -344z" />
    <glyph glyph-name="guilsinglright" unicode="&#x203a;" horiz-adv-x="705" 
d="M651 537l-329 -336h-269l334 336l-332 344h267z" />
    <glyph glyph-name="daggerdbl" unicode="&#x2021;" horiz-adv-x="832" 
d="M798 482l-298 30l35 -310h-239l35 310l-298 -30v226l268 -30l33 140l-33 140l-268 -30v226l298 -30l-35 310h239l-35 -310l298 30v-226l-268 30l-33 -140l33 -140l268 30v-226z" />
    <glyph glyph-name="periodcentered" unicode="&#xb7;" horiz-adv-x="555" 
d="M274 487q-78 0 -130 48t-52 118q0 72 53.5 118t133.5 46q81 0 132.5 -46.5t51.5 -117.5q0 -73 -52.5 -119.5t-136.5 -46.5z" />
    <glyph glyph-name="quotesinglbase" unicode="&#x201a;" horiz-adv-x="594" 
d="M477 219l-192 -444h-195l115 444h272z" />
    <glyph glyph-name="quotedblbase" unicode="&#x201e;" horiz-adv-x="1010" 
d="M893 219l-193 -444h-194l112 444h275zM477 219l-192 -444h-195l115 444h272z" />
    <glyph glyph-name="perthousand" unicode="&#x2030;" horiz-adv-x="2573" 
d="M430 707q-153 0 -246.5 97t-93.5 261q0 179 99.5 284t265.5 105q159 0 248.5 -95t89.5 -267q0 -177 -99 -281t-264 -104zM449 1278q-146 0 -146 -203q0 -192 139 -192q142 0 142 200q0 195 -135 195zM1477 1434l-934 -1434h-244l934 1434h244zM2118 -20q-153 0 -246.5 97
t-93.5 261q0 179 99.5 284t264.5 105q161 0 250.5 -94t89.5 -266q0 -177 -99.5 -282t-264.5 -105zM2136 551q-145 0 -145 -203q0 -192 139 -192q143 0 143 200q0 93 -38 144t-99 51zM1323 -20q-153 0 -246.5 97t-93.5 261q0 179 99.5 284t265.5 105q160 0 249 -94t89 -266
q0 -177 -99 -282t-264 -105zM1339 551q-145 0 -145 -203q0 -192 141 -192q142 0 142 200q0 93 -38 144t-100 51z" />
    <glyph glyph-name="Acircumflex" unicode="&#xc2;" horiz-adv-x="1440" 
d="M1425 0h-352l-102 319h-510l-101 -319h-350l522 1434h383zM897 567l-154 482q-17 54 -24 129h-8q-5 -63 -25 -125l-156 -486h367zM1078 1567h-207l-158 188l-147 -188h-207l235 325h248z" />
    <glyph glyph-name="Ecircumflex" unicode="&#xca;" horiz-adv-x="1090" 
d="M1024 0h-860v1434h827v-263h-504v-319h469v-262h-469v-328h537v-262zM932 1567h-207l-158 188l-147 -188h-207l235 325h248z" />
    <glyph glyph-name="Aacute" unicode="&#xc1;" horiz-adv-x="1440" 
d="M1425 0h-352l-102 319h-510l-101 -319h-350l522 1434h383zM897 567l-154 482q-17 54 -24 129h-8q-5 -63 -25 -125l-156 -486h367zM1036 1890l-313 -323h-228l260 323h281z" />
    <glyph glyph-name="Edieresis" unicode="&#xcb;" horiz-adv-x="1090" 
d="M1024 0h-860v1434h827v-263h-504v-319h469v-262h-469v-328h537v-262zM812 1567q-67 0 -110 39t-43 98q0 61 43 99t110 38t110.5 -38.5t43.5 -98.5t-43 -98.5t-111 -38.5zM354 1567q-68 0 -111 39.5t-43 97.5q0 60 44 98.5t110 38.5q68 0 110.5 -38.5t42.5 -98.5
q0 -61 -42.5 -99t-110.5 -38z" />
    <glyph glyph-name="Egrave" unicode="&#xc8;" horiz-adv-x="1090" 
d="M1024 0h-860v1434h827v-263h-504v-319h469v-262h-469v-328h537v-262zM766 1567h-227l-314 323h281z" />
    <glyph glyph-name="Iacute" unicode="&#xcd;" horiz-adv-x="649" 
d="M607 1434v-250h-120v-934h120v-250h-563v250h120v934h-120v250h563zM651 1890l-313 -323h-228l260 323h281z" />
    <glyph glyph-name="Icircumflex" unicode="&#xce;" horiz-adv-x="649" 
d="M607 1434v-250h-120v-934h120v-250h-563v250h120v934h-120v250h563zM691 1567h-207l-158 188l-147 -188h-207l235 325h248z" />
    <glyph glyph-name="Idieresis" unicode="&#xcf;" horiz-adv-x="649" 
d="M607 1434v-250h-120v-934h120v-250h-563v250h120v934h-120v250h563zM559 1567q-67 0 -110 39t-43 98q0 61 43 99t110 38t110.5 -38.5t43.5 -98.5t-43 -98.5t-111 -38.5zM101 1567q-68 0 -111 39.5t-43 97.5q0 60 44 98.5t110 38.5q68 0 110.5 -38.5t42.5 -98.5
q0 -61 -42.5 -99t-110.5 -38z" />
    <glyph glyph-name="Igrave" unicode="&#xcc;" horiz-adv-x="649" 
d="M607 1434v-250h-120v-934h120v-250h-563v250h120v934h-120v250h563zM532 1567h-227l-314 323h281z" />
    <glyph glyph-name="Oacute" unicode="&#xd3;" horiz-adv-x="1553" 
d="M770 -25q-308 0 -502 200.5t-194 522.5q0 340 197 550t522 210q307 0 496.5 -201t189.5 -530q0 -338 -196.5 -545t-512.5 -207zM784 1180q-170 0 -270 -127.5t-100 -337.5q0 -213 100 -337t262 -124q167 0 265 120.5t98 334.5q0 223 -95 347t-260 124zM1110 1890
l-313 -323h-228l260 323h281z" />
    <glyph glyph-name="Ocircumflex" unicode="&#xd4;" horiz-adv-x="1553" 
d="M770 -25q-308 0 -502 200.5t-194 522.5q0 340 197 550t522 210q307 0 496.5 -201t189.5 -530q0 -338 -196.5 -545t-512.5 -207zM784 1180q-170 0 -270 -127.5t-100 -337.5q0 -213 100 -337t262 -124q167 0 265 120.5t98 334.5q0 223 -95 347t-260 124zM1149 1567h-207
l-158 188l-147 -188h-207l235 325h248z" />
    <glyph glyph-name="Ograve" unicode="&#xd2;" horiz-adv-x="1553" 
d="M770 -25q-308 0 -502 200.5t-194 522.5q0 340 197 550t522 210q307 0 496.5 -201t189.5 -530q0 -338 -196.5 -545t-512.5 -207zM784 1180q-170 0 -270 -127.5t-100 -337.5q0 -213 100 -337t262 -124q167 0 265 120.5t98 334.5q0 223 -95 347t-260 124zM971 1567h-227
l-314 323h281z" />
    <glyph glyph-name="Uacute" unicode="&#xda;" horiz-adv-x="1481" 
d="M1333 621q0 -646 -602 -646q-584 0 -584 631v828h324v-832q0 -348 272 -348q267 0 267 336v844h323v-813zM1088 1890l-313 -323h-228l260 323h281z" />
    <glyph glyph-name="Ucircumflex" unicode="&#xdb;" horiz-adv-x="1481" 
d="M1333 621q0 -646 -602 -646q-584 0 -584 631v828h324v-832q0 -348 272 -348q267 0 267 336v844h323v-813zM1099 1567h-207l-158 188l-147 -188h-207l235 325h248z" />
    <glyph glyph-name="Ugrave" unicode="&#xd9;" horiz-adv-x="1481" 
d="M1333 621q0 -646 -602 -646q-584 0 -584 631v828h324v-832q0 -348 272 -348q267 0 267 336v844h323v-813zM920 1567h-227l-314 323h281z" />
    <glyph glyph-name="dotlessi" unicode="&#x131;" horiz-adv-x="582" 
d="M449 0h-316v1024h316v-1024z" />
    <glyph glyph-name="circumflex" unicode="&#x2c6;" horiz-adv-x="785" 
d="M750 1186h-207l-158 188l-147 -188h-207l235 325h248z" />
    <glyph glyph-name="tilde" unicode="&#x2dc;" horiz-adv-x="785" 
d="M754 1497q0 -140 -55.5 -216.5t-151.5 -76.5q-86 0 -168 43q-89 47 -123 47q-80 0 -80 -108h-141q0 139 55 216t154 77q81 0 168 -49q79 -44 120 -44q78 0 78 111h144z" />
    <glyph glyph-name="ring" unicode="&#x2da;" horiz-adv-x="555" 
d="M274 1186q-102 0 -168.5 59.5t-66.5 155.5q0 101 69.5 161t170.5 60q107 0 173 -59.5t66 -155.5q0 -98 -71.5 -159.5t-172.5 -61.5zM274 1499q-96 0 -96 -94t96 -94q45 0 74 27.5t29 66.5q0 41 -28.5 67.5t-74.5 26.5z" />
    <glyph glyph-name="cedilla" unicode="&#xb8;" horiz-adv-x="441" 
d="M51 -451v138q35 -6 72 -6q123 0 123 73q0 66 -111 66q-13 0 -37 -2v182h172v-82q187 -8 187 -166q0 -207 -318 -207q-46 0 -88 4z" />
    <glyph glyph-name="caron" unicode="&#x2c7;" horiz-adv-x="785" 
d="M754 1511l-238 -325h-248l-235 325h205l155 -188l156 188h205z" />
    <glyph glyph-name="Scaron" unicode="&#x160;" horiz-adv-x="1148" 
d="M98 55v320q87 -73 189 -109.5t206 -36.5q61 0 106.5 11t76 30.5t45.5 46t15 57.5q0 42 -24 75t-65.5 61t-98.5 54t-123 53q-168 70 -250.5 171t-82.5 244q0 112 45 192.5t122.5 132.5t179.5 76.5t216 24.5q112 0 198.5 -13.5t159.5 -41.5v-299q-36 25 -78.5 44
t-87.5 31.5t-89.5 18.5t-84.5 6q-55 0 -100 -10.5t-76 -29.5t-48 -45.5t-17 -59.5q0 -36 19 -64.5t54 -54t85 -50t113 -50.5q86 -36 154.5 -76.5t117.5 -91.5t75 -116.5t26 -152.5q0 -120 -45.5 -201.5t-123.5 -132t-181.5 -72.5t-218.5 -22q-118 0 -224.5 20t-184.5 60z
M973 1861l-238 -325h-248l-235 325h205l155 -188l156 188h205z" />
    <glyph glyph-name="scaron" unicode="&#x161;" horiz-adv-x="901" 
d="M66 27v256q78 -47 155.5 -70t146.5 -23q84 0 132.5 23t48.5 70q0 30 -22 50t-56.5 35t-75.5 27t-79 27q-61 23 -107.5 49.5t-78 61.5t-48 81t-16.5 109q0 86 37.5 148t100 101.5t143 58t167.5 18.5q68 0 138 -10.5t138 -30.5v-244q-60 35 -128.5 52.5t-134.5 17.5
q-31 0 -58.5 -5.5t-48.5 -16t-33 -27t-12 -37.5q0 -28 18 -48t47 -34.5t64.5 -26t70.5 -23.5q63 -22 114 -48t87.5 -61t56 -82t19.5 -112q0 -91 -39.5 -155.5t-105 -105t-151 -59t-177.5 -18.5q-169 0 -313 52zM811 1511l-238 -325h-248l-235 325h205l155 -188l156 188h205z
" />
    <glyph glyph-name="Zcaron" unicode="&#x17d;" horiz-adv-x="1243" 
d="M1196 0h-1155v186l735 985h-682v263h1100v-181l-719 -991h721v-262zM990 1858l-238 -325h-248l-235 325h205l155 -188l156 188h205z" />
    <glyph glyph-name="zcaron" unicode="&#x17e;" horiz-adv-x="981" 
d="M944 0h-919v131l514 660h-463v233h864v-156l-487 -635h491v-233zM872 1511l-238 -325h-248l-235 325h205l155 -188l156 188h205z" />
    <glyph glyph-name="brokenbar" unicode="&#xa6;" horiz-adv-x="668" 
d="M461 684h-252v883h252v-883zM461 -481h-252v895h252v-895z" />
    <glyph glyph-name="Eth" unicode="&#xd0;" horiz-adv-x="1510" 
d="M164 0v586h-164v266h164v582h508q764 0 764 -699q0 -335 -208.5 -535t-555.5 -200h-508zM487 1171v-319h271v-266h-271v-324h160q210 0 329.5 126t119.5 343q0 205 -118.5 322.5t-332.5 117.5h-158z" />
    <glyph glyph-name="eth" unicode="&#xf0;" horiz-adv-x="1215" 
d="M756 965l4 2q-84 147 -195 237l-291 -143l-81 141l241 115q-157 125 -270 199h352q11 -6 131 -97l273 133l77 -137l-215 -104q361 -291 361 -748q0 -260 -150 -424t-395 -164q-248 0 -387 144.5t-139 394.5q0 231 132.5 378.5t346.5 147.5q117 0 205 -75zM612 807
q-103 0 -161 -78.5t-58 -214.5q0 -140 57 -218.5t158 -78.5q98 0 155.5 81.5t57.5 221.5q0 287 -209 287z" />
    <glyph glyph-name="Yacute" unicode="&#xdd;" horiz-adv-x="1243" 
d="M1245 1434l-467 -924v-510h-323v504l-455 930h369l231 -535q6 -15 33 -117h4q13 72 31 113l235 539h342zM903 1857l-313 -323h-228l260 323h281z" />
    <glyph glyph-name="yacute" unicode="&#xfd;" horiz-adv-x="1102" 
d="M1108 1024l-416 -1106q-150 -399 -452 -399q-115 0 -189 26v252q63 -37 137 -37q122 0 170 115l54 127l-416 1022h350l191 -623q18 -58 28 -137h4q9 58 33 135l193 625h313zM834 1509l-313 -323h-228l260 323h281z" />
    <glyph glyph-name="Thorn" unicode="&#xde;" horiz-adv-x="1258" 
d="M487 281v-281h-323v1434h323v-211h183q542 0 542 -457q0 -216 -155.5 -350.5t-415.5 -134.5h-154zM487 975v-447h127q258 0 258 226q0 221 -258 221h-127z" />
    <glyph glyph-name="thorn" unicode="&#xfe;" horiz-adv-x="1270" 
d="M453 119h-4v-590h-316v1987h316v-646h4q117 179 329 179q199 0 307.5 -136.5t108.5 -371.5q0 -256 -126.5 -411t-336.5 -155q-185 0 -282 144zM444 539v-82q0 -106 56 -173t147 -67q108 0 167.5 83.5t59.5 236.5q0 270 -210 270q-97 0 -158.5 -73.5t-61.5 -194.5z" />
    <glyph glyph-name="multiply" unicode="&#xd7;" horiz-adv-x="1448" 
d="M1210 248l-145 -144l-338 340l-340 -340l-145 146l340 336l-340 340l141 145l344 -340l342 340l139 -151l-338 -334z" />
    <glyph glyph-name="onenumerator" horiz-adv-x="807" 
d="M721 584h-563v172h176v477l-191 -41v180l406 82v-698h172v-172z" />
    <glyph glyph-name="twonumerator" horiz-adv-x="828" 
d="M721 584h-604v157l248 234q77 73 95.5 110t18.5 82q0 42 -28.5 69.5t-75.5 27.5q-98 0 -211 -103v215q118 78 250 78q136 0 215.5 -68.5t79.5 -189.5q0 -70 -37.5 -141t-179.5 -197l-105 -92v-4h334v-178z" />
    <glyph glyph-name="threenumerator" horiz-adv-x="828" 
d="M131 616v181q107 -68 221 -68q150 0 150 102q0 103 -172 103h-117v166h113q149 0 149 96q0 90 -119 90q-107 0 -198 -65v176q99 57 239 57q134 0 211.5 -60.5t77.5 -160.5q0 -147 -143 -195v-4q172 -41 172 -198q0 -123 -98 -198t-257 -75q-133 0 -229 53z" />
    <glyph glyph-name="onehalf" unicode="&#xbd;" horiz-adv-x="1977" 
d="M676 584h-563v172h176v477l-191 -41v180l406 82v-698h172v-172zM1506 1434l-891 -1434h-244l891 1434h244zM1843 0h-604v157l248 234q77 73 95.5 110t18.5 82q0 42 -28.5 69.5t-75.5 27.5q-98 0 -211 -103v215q118 78 250 78q136 0 215.5 -68.5t79.5 -189.5
q0 -70 -37.5 -141t-179.5 -197l-105 -92v-4h334v-178z" />
    <glyph glyph-name="onequarter" unicode="&#xbc;" horiz-adv-x="1950" 
d="M676 584h-563v172h176v477l-191 -41v180l406 82v-698h172v-172zM1505 1434l-891 -1434h-244l891 1434h244zM1845 176h-110v-176h-213v176h-395v141l350 533h258v-519h110v-155zM1526 678h-8q-14 -36 -39 -76l-168 -271h211v263q0 47 4 84z" />
    <glyph glyph-name="threequarters" unicode="&#xbe;" horiz-adv-x="2005" 
d="M131 616v181q107 -68 221 -68q150 0 150 102q0 103 -172 103h-117v166h113q149 0 149 96q0 90 -119 90q-107 0 -198 -65v176q99 57 239 57q134 0 211.5 -60.5t77.5 -160.5q0 -147 -143 -195v-4q172 -41 172 -198q0 -123 -98 -198t-257 -75q-133 0 -229 53zM1565 1434
l-891 -1434h-244l891 1434h244zM1892 176h-110v-176h-213v176h-395v141l350 533h258v-519h110v-155zM1573 678h-8q-14 -36 -39 -76l-168 -271h211v263q0 47 4 84z" />
    <glyph glyph-name="uni00AF" unicode="&#xaf;" horiz-adv-x="850" 
d="M850 1396h-850v120h850v-120z" />
    <glyph glyph-name="fournumerator" horiz-adv-x="856" 
d="M786 760h-110v-176h-213v176h-395v141l350 533h258v-519h110v-155zM467 1262h-8q-14 -36 -39 -76l-168 -271h211v263q0 47 4 84z" />
    <glyph glyph-name="currency" unicode="&#xa4;" horiz-adv-x="1139" 
d="M1087 358l-141 -145l-143 141q-105 -65 -234 -65q-127 0 -233 65l-143 -141l-142 145l142 138q-66 110 -66 229q0 121 66 229l-142 140l142 145l143 -141q106 65 233 65q129 0 234 -65l143 141l141 -145l-141 -140q68 -111 68 -229q0 -115 -68 -229zM569 965
q-100 0 -169.5 -69.5t-69.5 -168.5t69.5 -168.5t169.5 -69.5t171 69.5t71 168.5q0 98 -73 168t-169 70z" />
    <glyph glyph-name="twosuperior" unicode="&#xb2;" horiz-adv-x="828" 
d="M721 884h-604v157l248 234q77 73 95.5 110t18.5 82q0 42 -28.5 69.5t-75.5 27.5q-98 0 -211 -103v215q118 78 250 78q136 0 215.5 -68.5t79.5 -189.5q0 -70 -37.5 -141t-179.5 -197l-105 -92v-4h334v-178z" />
    <glyph glyph-name="threesuperior" unicode="&#xb3;" horiz-adv-x="828" 
d="M131 916v181q107 -68 221 -68q150 0 150 102q0 103 -172 103h-117v166h113q149 0 149 96q0 90 -119 90q-107 0 -198 -65v176q99 57 239 57q134 0 211.5 -60.5t77.5 -160.5q0 -147 -143 -195v-4q172 -41 172 -198q0 -123 -98 -198t-257 -75q-133 0 -229 53z" />
    <glyph glyph-name="onesuperior" unicode="&#xb9;" horiz-adv-x="807" 
d="M721 884h-563v172h176v477l-191 -41v180l406 82v-698h172v-172z" />
    <glyph glyph-name="uni25CC" unicode="&#x25cc;" horiz-adv-x="1273" 
d="M673 328q0 22 16 38t38 16q23 0 39.5 -16t16.5 -38q0 -23 -16.5 -38.5t-39.5 -15.5q-22 0 -38 15.5t-16 38.5zM678 1319q0 23 15 39.5t37 16.5q24 0 39 -16.5t15 -39.5q0 -22 -15 -37t-39 -15q-22 0 -37 15t-15 37zM594 310q-23 0 -38.5 15t-15.5 37q0 23 15.5 39.5
t38.5 16.5q22 0 38 -16.5t16 -39.5q0 -22 -16 -37t-38 -15zM481 391q-22 0 -38 15t-16 37q0 23 16 38.5t38 15.5q23 0 38.5 -15.5t15.5 -38.5q0 -22 -15.5 -37t-38.5 -15zM403 509q-22 0 -37 16t-15 38q0 23 15 38.5t37 15.5q23 0 39.5 -15.5t16.5 -38.5q0 -22 -16.5 -38
t-39.5 -16zM363 638q-24 0 -39 16t-15 38q0 23 15 38.5t39 15.5q22 0 37 -15.5t15 -38.5q0 -22 -15 -38t-37 -16zM337 770q-24 0 -40 15t-16 38q0 22 16 38.5t40 16.5q23 0 37.5 -16.5t14.5 -38.5q0 -23 -14.5 -38t-37.5 -15zM363 899q-24 0 -39 15t-15 38q0 22 15 38.5
t39 16.5q22 0 37 -16.5t15 -38.5q0 -23 -15 -38t-37 -15zM408 1028q-23 0 -39.5 15t-16.5 38q0 24 16.5 39.5t39.5 15.5q22 0 37 -15.5t15 -39.5q0 -23 -15 -38t-37 -15zM480 1147q-23 0 -38.5 15.5t-15.5 38.5q0 22 15.5 38.5t38.5 16.5q22 0 38 -16.5t16 -38.5
q0 -23 -16 -38.5t-38 -15.5zM592 1234q-22 0 -38.5 15t-16.5 37q0 23 16.5 38.5t38.5 15.5q23 0 38 -15.5t15 -38.5q0 -22 -15 -37t-38 -15zM807 362q0 23 15 39.5t37 16.5q23 0 38.5 -16.5t15.5 -39.5q0 -22 -15.5 -37t-38.5 -15q-22 0 -37 15t-15 37zM919 443
q0 23 15 38.5t38 15.5q22 0 38 -15.5t16 -38.5q0 -22 -16 -37t-38 -15q-23 0 -38 15t-15 37zM996 563q0 23 15 38.5t39 15.5q22 0 38 -15.5t16 -38.5q0 -22 -16 -38t-38 -16q-24 0 -39 16t-15 38zM1038 692q0 23 15.5 38.5t38.5 15.5q22 0 38 -15.5t16 -38.5q0 -22 -16 -38
t-38 -16q-23 0 -38.5 16t-15.5 38zM1047 823q0 22 15.5 38.5t38.5 16.5q22 0 38.5 -16.5t16.5 -38.5q0 -23 -16.5 -38t-38.5 -15q-23 0 -38.5 15t-15.5 38zM1038 952q0 22 15.5 38.5t38.5 16.5q22 0 38 -16.5t16 -38.5q0 -23 -16 -38t-38 -15q-23 0 -38.5 15t-15.5 38z
M993 1081q0 24 15.5 39.5t38.5 15.5q22 0 38 -15.5t16 -39.5q0 -23 -16 -38t-38 -15q-23 0 -38.5 15t-15.5 38zM919 1201q0 22 16 37t38 15q23 0 39.5 -15t16.5 -37q0 -23 -16.5 -38.5t-39.5 -15.5q-22 0 -38 15.5t-16 38.5zM810 1286q0 23 15 38.5t37 15.5q23 0 38.5 -15.5
t15.5 -38.5q0 -22 -15.5 -37t-38.5 -15q-22 0 -37 15t-15 37z" />
    <glyph glyph-name="uni200B" unicode="&#x200b;" 
 />
    <glyph glyph-name="uni200C" unicode="&#x200c;" horiz-adv-x="66" 
d="M0 253v1341h66v-1341h-66z" />
    <glyph glyph-name="uni200D" unicode="&#x200d;" horiz-adv-x="63" 
d="M189 1481l-126 126v-1354h-63v1351l-123 -123l-42 45l156 156l-156 156l42 45l156 -156l156 156l45 -45l-159 -156l159 -156z" />
    <glyph glyph-name="uni1780" unicode="&#x1780;" horiz-adv-x="1689" 
d="M1638 1232l-136 -187h-60l-339 151l-233 -151h-69l-386 151l-109 -63v-29l297 -118h622q108 0 188 -47q96 -55 96 -155v-531h-250v395q0 65 -56 98q-46 28 -114 28h-500q-63 0 -108 -32q-51 -36 -51 -96v-393h-250v534q0 122 106 167l-213 76v141l400 243h69l370 -164
l244 164h64l279 -123q16 -7 46 -7q28 0 54 9z" />
    <glyph glyph-name="uni1780.sub1" 
d="M-983 -19v-402h-114v417q0 35 6 53.5t18 30t29.5 18t44.5 6.5h723q28 0 45.5 -6.5t28.5 -17t16.5 -24t5.5 -33.5v-444h-114v402q0 26 -32 26h-623q-34 0 -34 -26z" />
    <glyph glyph-name="uni1780.sub2" 
d="M-743 -19v-402h-114v417q0 33 6 52.5t17.5 29.5t29.5 18t45 8h483q28 0 45.5 -8t28 -17t16.5 -22.5t6 -33.5v-444h-114v402q0 26 -32 26h-383q-34 0 -34 -26z" />
    <glyph glyph-name="uni178017B6" horiz-adv-x="2353" 
d="M2173 253h-250v792l-522 151l-276 -151h-96l-614 151l-109 -63v-29l297 -118h622q108 0 188 -47q96 -55 96 -155v-531h-250v395q0 65 -56 98q-46 28 -114 28h-500q-63 0 -108 -32q-51 -36 -51 -96v-393h-250v534q0 122 106 167l-213 76v141l400 243h69l610 -164l289 164
h51l681 -210v-951z" />
    <glyph glyph-name="uni178017C5.sechalf" horiz-adv-x="2353" 
d="M2206 1463q0 -115 -33 -297v-913h-250v792l-522 151l-276 -151h-96l-614 151l-109 -63v-29l297 -118h622q108 0 188 -47q96 -55 96 -155v-531h-250v395q0 65 -56 98q-46 28 -114 28h-500q-63 0 -108 -32q-51 -36 -51 -96v-393h-250v534q0 122 106 167l-213 76v141
l400 243h69l610 -164l289 164h51l551 -170q36 65 36 160q0 118 -52 118q-8 0 -26.5 -2t-30.5 -2q-32 0 -54.5 26.5t-22.5 62.5q0 51 30 89q35 43 94 43q89 0 141 -84q48 -77 48 -192z" />
    <glyph glyph-name="uni1781" unicode="&#x1781;" horiz-adv-x="1672" 
d="M1492 463q0 -108 -97 -164q-80 -46 -198 -46h-728q-107 0 -189 43q-100 52 -100 147v103q0 155 311 229l678 161q73 17 73 88v69q0 78 -110 78h-615q-87 0 -87 -68v-146q0 -37 42 -37q53 0 53 43q0 12 -30 27q-40 15 -40 54q0 87 97 87q99 0 99 -104q0 -194 -248 -194
h-127q-40 0 -68 28t-28 67v248q0 91 99 152q88 54 187 54h728q114 0 199 -52q99 -61 99 -167v-154q0 -185 -289 -253l-662 -155q-111 -26 -111 -63v-24q0 -49 81 -49h614q117 0 117 91v77l46 27h160l44 -27v-170z" />
    <glyph glyph-name="uni1781.sub1" 
d="M-180 -328q0 -31 -30.5 -51.5t-74 -31t-89.5 -14t-74 -3.5h-384q-41 0 -86.5 7.5t-85.5 20t-65.5 27.5t-25.5 30v84q0 35 76 61.5t244 42.5l323 34q95 12 123 30t28 35v45q0 10 -21 17t-49.5 11.5t-55.5 6t-39 1.5h-350q-55 0 -86.5 -2.5t-47.5 -7t-19.5 -12.5t-3.5 -19
v-52q0 -11 9 -14.5t30 -3.5q16 0 29.5 3.5t13.5 10.5q0 5 -13.5 8t-26 10t-12.5 19q0 18 19.5 27.5t52.5 9.5q34 0 56 -10.5t22 -29.5q0 -17 -19.5 -33.5t-49 -30.5t-66 -24t-69.5 -10h-30q-23 0 -45.5 10t-22.5 25v103q0 23 25.5 41.5t64.5 32t85 20.5t85 7h384
q28 0 74.5 -4.5t90 -16t75 -31t31.5 -50.5v-71q0 -30 -29 -48t-81 -30.5t-135 -24t-181 -21.5l-257 -28q-59 -7 -84 -19.5t-25 -41.5q0 -24 8.5 -35t26.5 -15.5t44 -7.5t77 -3h350q63 0 92.5 1.5t51 8t21.5 31.5v64l16 15h105v-104z" />
    <glyph glyph-name="uni1781.sub2" 
d="M-180 -328q0 -31 -31 -51.5t-74.5 -31t-89 -14t-74.5 -3.5h-144q-40 0 -86 7.5t-85.5 20t-65 27.5t-25.5 30v84q0 29 34.5 44.5t162.5 45.5l288 69q37 9 52.5 21t15.5 23v45q0 10 -21 17t-49.5 11.5t-55.5 6t-39 1.5h-109q-56 0 -87.5 -2.5t-47 -7t-19.5 -12.5t-4 -19
v-49q0 -15 14.5 -18t24.5 -3q17 0 30.5 5t13.5 11q0 3 -10.5 6t-22.5 5.5t-22.5 8t-10.5 16.5q0 12 22 24.5t57 12.5q36 0 60 -9.5t24 -28.5q0 -15 -19.5 -33t-48.5 -33t-66 -25t-70 -10h-30q-22 0 -44.5 10t-22.5 25v103q0 23 25.5 41.5t64.5 32t84.5 20.5t84.5 7h144
q29 0 75.5 -4.5t90 -16t75 -31t31.5 -50.5v-71q0 -22 -13.5 -35t-73.5 -32l-371 -88q-61 -14 -77.5 -25.5t-16.5 -33.5q0 -24 8 -35.5t26 -16t44 -6.5t78 -2h109q15 0 39 0.5t49 2t51 7.5t26 21v74l17 15h105v-104z" />
    <glyph glyph-name="uni178117B6" horiz-adv-x="2350" 
d="M2170 253h-250v807l-302 136l-126 -49v-138q0 -185 -289 -253l-662 -155q-111 -26 -111 -63v-24q0 -49 81 -49h623q108 0 108 91v77l46 27h160l44 -27v-170q0 -108 -97 -164q-80 -46 -198 -46h-728q-107 0 -189 43q-100 52 -100 147v103q0 155 311 229l678 161
q73 17 73 88v69q0 78 -110 78h-615q-87 0 -87 -68v-146q0 -37 42 -37q53 0 53 43q0 12 -28 27q-42 15 -42 54q0 87 97 87q99 0 99 -104q0 -194 -248 -194h-127q-40 0 -68 28t-28 67v248q0 91 99 152q88 54 187 54h728q129 0 216 -63l248 95h51l461 -210v-951z" />
    <glyph glyph-name="uni178117C5.sechalf" horiz-adv-x="2350" 
d="M2203 1463q0 -115 -33 -297v-913h-250v807l-302 136l-126 -49v-138q0 -185 -289 -253l-662 -155q-111 -26 -111 -63v-24q0 -49 81 -49h623q108 0 108 91v77l46 27h160l44 -27v-170q0 -108 -97 -164q-80 -46 -198 -46h-728q-107 0 -189 43q-100 52 -100 147v103
q0 155 311 229l678 161q73 17 73 88v69q0 78 -110 78h-615q-87 0 -87 -68v-146q0 -37 42 -37q53 0 53 43q0 12 -32 27q-38 15 -38 54q0 87 97 87q99 0 99 -104q0 -194 -248 -194h-127q-40 0 -68 28t-28 67v248q0 91 99 152q88 54 187 54h728q129 0 216 -63l248 95h51
l339 -154q28 65 28 144q0 118 -52 118q-8 0 -26.5 -2t-30.5 -2q-32 0 -54.5 26.5t-22.5 62.5q0 51 30 89q35 43 94 43q89 0 141 -84q48 -77 48 -192z" />
    <glyph glyph-name="uni1782" unicode="&#x1782;" horiz-adv-x="1689" 
d="M1638 1232l-136 -187h-60l-339 151l-233 -151h-69l-386 151l-109 -63v-29l297 -118h622q108 0 188 -47q96 -55 96 -155v-531h-250v395q0 65 -56 98q-46 28 -114 28h-500q-63 0 -108 -32q-51 -36 -51 -96v-184q27 55 68 104q82 99 154 99q83 0 83 -94q0 -81 -57 -81
q-7 0 -24.5 4t-29.5 4q-67 0 -130.5 -71.5t-63.5 -150.5v-23h-250v534q0 122 106 167l-213 76v141l400 243h69l370 -164l244 164h64l279 -123q16 -7 46 -7q28 0 54 9z" />
    <glyph glyph-name="uni1782.sub1" 
d="M-1097 -4q0 33 6 52.5t17.5 29.5t29.5 18t45 8h723q28 0 45.5 -8t28 -17t16.5 -22.5t6 -33.5v-444h-114v402q0 26 -42 26h-603q-44 0 -44 -26v-235q47 55 74 86.5t44.5 45t33.5 19t34 5.5q24 0 36 -16t12 -43q0 -20 -7.5 -31t-18.5 -11q-8 0 -17.5 2.5t-19.5 2.5
t-17.5 -1t-19 -6t-29.5 -20t-48 -45q-45 -48 -57 -72v-83h-114v417z" />
    <glyph glyph-name="uni1782.sub2" 
d="M-857 -4q0 33 6 52.5t17.5 29.5t29.5 18t45 8h483q28 0 45.5 -8t28 -17t16.5 -22.5t6 -33.5v-444h-114v402q0 26 -42 26h-363q-44 0 -44 -26v-235q47 55 74 86.5t44 45t32.5 19t35.5 5.5q22 0 35 -16t13 -44q0 -19 -10.5 -30t-24.5 -11q-7 0 -14.5 1.5t-17.5 1.5
q-12 0 -28 -5t-34 -20t-48 -45q-44 -49 -57 -72v-83h-114v417z" />
    <glyph glyph-name="uni178217B6" horiz-adv-x="2353" 
d="M2173 253h-250v792l-522 151l-276 -151h-96l-614 151l-109 -63v-29l297 -118h622q108 0 188 -47q96 -55 96 -155v-531h-250v395q0 65 -56 98q-46 28 -114 28h-500q-63 0 -108 -32q-51 -36 -51 -96v-184q27 55 68 104q82 99 154 99q83 0 83 -94q0 -81 -57 -81
q-7 0 -24.5 4t-29.5 4q-67 0 -130.5 -71.5t-63.5 -150.5v-23h-250v534q0 122 106 167l-213 76v141l400 243h69l610 -164l289 164h51l681 -210v-951z" />
    <glyph glyph-name="uni178217C5.sechalf" horiz-adv-x="2353" 
d="M2206 1463q0 -115 -33 -297v-913h-250v792l-522 151l-276 -151h-96l-614 151l-109 -63v-29l297 -118h622q108 0 188 -47q96 -55 96 -155v-531h-250v395q0 65 -56 98q-46 28 -114 28h-500q-63 0 -108 -32q-51 -36 -51 -96v-184q27 55 68 104q82 99 154 99q83 0 83 -94
q0 -81 -57 -81q-7 0 -24.5 4t-29.5 4q-67 0 -130.5 -71.5t-63.5 -150.5v-23h-250v534q0 122 106 167l-213 76v141l400 243h69l610 -164l289 164h51l551 -170q36 65 36 160q0 118 -52 118q-8 0 -26.5 -2t-30.5 -2q-32 0 -54.5 26.5t-22.5 62.5q0 51 30 89q35 43 94 43
q89 0 141 -84q48 -77 48 -192z" />
    <glyph glyph-name="uni1783" unicode="&#x1783;" horiz-adv-x="1884" 
d="M1853 1300l-111 -153q-69 49 -146 49q-64 0 -111 -55l5 -9q42 7 59 7q55 0 100 -24q55 -30 55 -83v-560q0 -93 -91 -159q-82 -60 -176 -60h-254q-135 0 -225 73q-95 -73 -196 -73h-204q-104 0 -188 57q-95 64 -95 165v711q0 53 -42 53q-50 0 -50 -67q0 -23 37.5 -64
t37.5 -77q0 -109 -108 -109q-140 0 -140 180q0 133 92 210q78 66 187 66h117q119 0 119 -134v-653q0 -126 129 -126h48q61 0 100 31q42 35 42 95v373q0 50 -63 50q-10 0 -27.5 -4t-27.5 -4q-13 0 -22 19l-54 114l328 275h29l153 -77q14 -7 30 -7q25 0 33 2l20 -32l-111 -153
q-69 49 -146 49q-64 0 -111 -55l5 -9q42 7 59 7q55 0 100 -24q55 -30 55 -83v-441q0 -126 154 -126h87q119 0 119 126v373q0 50 -63 50q-10 0 -27.5 -4t-27.5 -4q-13 0 -22 19l-54 114l328 275h29l153 -77q14 -7 30 -7q25 0 33 2z" />
    <glyph glyph-name="uni1783.sub1" horiz-adv-x="630" 
d="M599 1300l-111 -153q-69 49 -146 49q-64 0 -111 -55l5 -9q42 7 59 7q55 0 100 -24q55 -30 55 -83v-1235q0 -93 -91 -159q-82 -60 -176 -60h-134q-105 0 -195 73q-95 -73 -196 -73h-144q-103 0 -183 57q-90 64 -90 165v252q0 53 -42 53q-50 0 -50 -67q0 -23 37.5 -64
t37.5 -77q0 -109 -108 -109q-140 0 -140 180q0 133 91 210q79 66 188 66h117q119 0 119 -134v-244q0 -126 119 -126h18q56 0 78 10q34 16 34 66v18q0 50 -63 50q-10 0 -27.5 -4t-27.5 -4q-13 0 -22 19l-47 105l321 244h29l153 -77q14 -7 30 -7q25 0 33 2l20 -32l-111 -133
q-69 49 -146 49q-64 0 -111 -55l5 -9q42 7 59 7q55 0 100 -24q55 -30 55 -83v-46q0 -96 104 -96h17q89 0 89 106v1118q0 50 -63 50q-10 0 -27.5 -4t-27.5 -4q-13 0 -22 19l-54 114l328 275h29l153 -77q14 -7 30 -7q25 0 33 2z" />
    <glyph glyph-name="uni1783.sub2" horiz-adv-x="630" 
d="M599 1300l-111 -153q-69 49 -146 49q-64 0 -111 -55l5 -9q42 7 59 7q55 0 100 -24q55 -30 55 -83v-1235q0 -93 -91 -159q-82 -60 -176 -60h-134q-105 0 -195 73q-95 -73 -196 -73h-144q-103 0 -183 57q-90 64 -90 165v252q0 53 -42 53q-50 0 -50 -67q0 -23 37.5 -64
t37.5 -77q0 -109 -108 -109q-140 0 -140 180q0 133 91 210q79 66 188 66h117q119 0 119 -134v-244q0 -126 119 -126h18q56 0 78 10q34 16 34 66v18q0 50 -63 50q-10 0 -27.5 -4t-27.5 -4q-13 0 -22 19l-47 105l321 244h29l153 -77q14 -7 30 -7q25 0 33 2l20 -32l-111 -133
q-69 49 -146 49q-64 0 -111 -55l5 -9q42 7 59 7q55 0 100 -24q55 -30 55 -83v-46q0 -96 104 -96h17q89 0 89 106v1118q0 50 -63 50q-10 0 -27.5 -4t-27.5 -4q-13 0 -22 19l-54 114l328 275h29l153 -77q14 -7 30 -7q25 0 33 2z" />
    <glyph glyph-name="uni178317B6" horiz-adv-x="2553" 
d="M2373 253h-250v812l-354 154l-173 -57q-48 -16 -66 -23q-33 -14 -45 -28l5 -9q42 7 59 7q55 0 100 -24q55 -30 55 -83v-530q0 -93 -91 -159q-82 -60 -176 -60h-254q-135 0 -225 73q-95 -73 -196 -73h-204q-104 0 -188 57q-95 64 -95 165v711q0 53 -42 53q-50 0 -50 -67
q0 -23 37.5 -64t37.5 -77q0 -109 -108 -109q-140 0 -140 180q0 133 92 210q78 66 187 66h117q119 0 119 -134v-653q0 -126 129 -126h48q61 0 100 31q42 35 42 95v373q0 50 -63 50q-10 0 -27.5 -4t-27.5 -4q-13 0 -22 19l-54 114l328 275h29l153 -77q14 -7 30 -7q25 0 33 2
l20 -32l-111 -153q-69 49 -146 49q-64 0 -111 -55l5 -9q42 7 59 7q55 0 100 -24q55 -30 55 -83v-441q0 -126 154 -126h87q119 0 119 126v343q0 50 -57 50q-10 0 -26 -3.5t-26 -3.5q-18 0 -22 19l-48 208l586 210h51l461 -210v-951z" />
    <glyph glyph-name="uni178317B6.sub1" horiz-adv-x="1299" 
d="M1119 253h-250v812l-354 154l-173 -57q-48 -16 -66 -23q-33 -14 -45 -28l5 -9q42 7 59 7q55 0 100 -24q55 -31 55 -83v-1205q0 -93 -91 -159q-82 -60 -176 -60h-134q-105 0 -195 73q-95 -73 -196 -73h-144q-103 0 -183 57q-90 64 -90 165v252q0 53 -42 53q-50 0 -50 -67
q0 -23 37.5 -64t37.5 -77q0 -109 -108 -109q-140 0 -140 180q0 133 91 210q79 66 188 66h117q119 0 119 -134v-244q0 -126 119 -126h18q56 0 78 10q34 16 34 66v18q0 50 -63 50q-10 0 -27.5 -4t-27.5 -4q-13 0 -22 19l-47 105l321 244h29l153 -77q14 -7 30 -7q25 0 33 2
l20 -32l-111 -133q-69 49 -146 49q-64 0 -111 -55l5 -9q42 7 59 7q55 0 100 -24q55 -30 55 -83v-46q0 -96 104 -96h17q89 0 89 106v1088q0 50 -57 50q-10 0 -26 -3.5t-26 -3.5q-18 0 -22 19l-48 208l586 210h51l461 -210v-951z" />
    <glyph glyph-name="uni178317B6.sub2" horiz-adv-x="1299" 
d="M1119 253h-250v812l-354 154l-173 -57q-48 -16 -66 -23q-33 -14 -45 -28l5 -9q42 7 59 7q55 0 100 -24q55 -31 55 -83v-1205q0 -93 -91 -159q-82 -60 -176 -60h-134q-105 0 -195 73q-95 -73 -196 -73h-144q-103 0 -183 57q-90 64 -90 165v252q0 53 -42 53q-50 0 -50 -67
q0 -23 37.5 -64t37.5 -77q0 -109 -108 -109q-140 0 -140 180q0 133 91 210q79 66 188 66h117q119 0 119 -134v-244q0 -126 119 -126h18q56 0 78 10q34 16 34 66v18q0 50 -63 50q-10 0 -27.5 -4t-27.5 -4q-13 0 -22 19l-47 105l321 244h29l153 -77q14 -7 30 -7q25 0 33 2
l20 -32l-111 -133q-69 49 -146 49q-64 0 -111 -55l5 -9q42 7 59 7q55 0 100 -24q55 -30 55 -83v-46q0 -96 104 -96h17q89 0 89 106v1088q0 50 -57 50q-10 0 -26 -3.5t-26 -3.5q-18 0 -22 19l-48 208l586 210h51l461 -210v-951z" />
    <glyph glyph-name="uni178317C5.sechalf" horiz-adv-x="2553" 
d="M2406 1463q0 -115 -33 -297v-913h-250v812l-354 154l-173 -57q-48 -16 -66 -23q-33 -14 -45 -28l5 -9q42 7 59 7q55 0 100 -24q55 -30 55 -83v-530q0 -93 -91 -159q-82 -60 -176 -60h-254q-135 0 -225 73q-95 -73 -196 -73h-204q-104 0 -188 57q-95 64 -95 165v711
q0 53 -42 53q-50 0 -50 -67q0 -23 37.5 -64t37.5 -77q0 -109 -108 -109q-140 0 -140 180q0 133 92 210q78 66 187 66h117q119 0 119 -134v-653q0 -126 129 -126h48q61 0 100 31q42 35 42 95v373q0 50 -63 50q-10 0 -27.5 -4t-27.5 -4q-13 0 -22 19l-54 114l328 275h29
l153 -77q14 -7 30 -7q25 0 33 2l20 -32l-111 -153q-69 49 -146 49q-64 0 -111 -55l5 -9q42 7 59 7q55 0 100 -24q55 -30 55 -83v-441q0 -126 154 -126h87q119 0 119 126v343q0 50 -57 50q-10 0 -26 -3.5t-26 -3.5q-18 0 -22 19l-48 208l586 210h51l339 -154q28 65 28 144
q0 118 -52 118q-8 0 -26.5 -2t-30.5 -2q-32 0 -54.5 26.5t-22.5 62.5q0 51 30 89q35 43 94 43q89 0 141 -84q48 -77 48 -192z" />
    <glyph glyph-name="uni178317C5.sub1sechalf" horiz-adv-x="1299" 
d="M1152 1463q0 -115 -33 -297v-913h-250v812l-354 154l-173 -57q-48 -16 -66 -23q-33 -14 -45 -28l5 -9q42 7 59 7q55 0 100 -24q55 -31 55 -83v-1205q0 -93 -91 -159q-82 -60 -176 -60h-134q-105 0 -195 73q-95 -73 -196 -73h-144q-103 0 -183 57q-90 64 -90 165v252
q0 53 -42 53q-50 0 -50 -67q0 -23 37.5 -64t37.5 -77q0 -109 -108 -109q-140 0 -140 180q0 133 91 210q79 66 188 66h117q119 0 119 -134v-244q0 -126 119 -126h18q56 0 78 10q34 16 34 66v18q0 50 -63 50q-10 0 -27.5 -4t-27.5 -4q-13 0 -22 19l-47 105l321 244h29l153 -77
q14 -7 30 -7q25 0 33 2l20 -32l-111 -133q-69 49 -146 49q-64 0 -111 -55l5 -9q42 7 59 7q55 0 100 -24q55 -30 55 -83v-46q0 -96 104 -96h17q89 0 89 106v1088q0 50 -57 50q-10 0 -26 -3.5t-26 -3.5q-18 0 -22 19l-48 208l586 210h51l339 -154q28 65 28 144q0 118 -52 118
q-8 0 -26.5 -2t-30.5 -2q-32 0 -54.5 26.5t-22.5 62.5q0 51 30 89q35 43 94 43q89 0 141 -84q48 -77 48 -192z" />
    <glyph glyph-name="uni178317C5.sub2sechalf" horiz-adv-x="1299" 
d="M1152 1463q0 -115 -33 -297v-913h-250v812l-354 154l-173 -57q-48 -16 -66 -23q-33 -14 -45 -28l5 -9q42 7 59 7q55 0 100 -24q55 -31 55 -83v-1205q0 -93 -91 -159q-82 -60 -176 -60h-134q-105 0 -195 73q-95 -73 -196 -73h-144q-103 0 -183 57q-90 64 -90 165v252
q0 53 -42 53q-50 0 -50 -67q0 -23 37.5 -64t37.5 -77q0 -109 -108 -109q-140 0 -140 180q0 133 91 210q79 66 188 66h117q119 0 119 -134v-244q0 -126 119 -126h18q56 0 78 10q34 16 34 66v18q0 50 -63 50q-10 0 -27.5 -4t-27.5 -4q-13 0 -22 19l-47 105l321 244h29l153 -77
q14 -7 30 -7q25 0 33 2l20 -32l-111 -133q-69 49 -146 49q-64 0 -111 -55l5 -9q42 7 59 7q55 0 100 -24q55 -30 55 -83v-46q0 -96 104 -96h17q89 0 89 106v1088q0 50 -57 50q-10 0 -26 -3.5t-26 -3.5q-18 0 -22 19l-48 208l586 210h51l339 -154q28 65 28 144q0 118 -52 118
q-8 0 -26.5 -2t-30.5 -2q-32 0 -54.5 26.5t-22.5 62.5q0 51 30 89q35 43 94 43q89 0 141 -84q48 -77 48 -192z" />
    <glyph glyph-name="uni1784" unicode="&#x1784;" horiz-adv-x="1663" 
d="M1483 253h-315l-289 185l-289 -185h-315v339q0 43 -42 43q-50 0 -50 -57q0 -23 37.5 -59t37.5 -72q0 -99 -108 -99q-140 0 -140 170q0 236 279 236h117q119 0 119 -125v-214l354 235l354 -235v385q0 156 -384 156q-147 0 -249 -18q-118 -20 -118 -54v-48h-250v459
q0 32 -55 59q-55 25 -55 69q0 43 34 71.5t95 28.5q81 0 148 -44q83 -55 83 -151v-218q91 58 378 58q35 0 182 -11q-3 19 -3 35q0 92 65 157t157 65t157 -65t65 -157q0 -93 -66 -158q66 -65 66 -158v-623zM1330 1192q0 29 -20 49t-49 20t-49 -20t-20 -49t20 -49t49 -20t49 20
t20 49z" />
    <glyph glyph-name="uni1784.sub1" 
d="M-765 -37q-33 21 -69 21q-30 0 -57 -9.5t-47.5 -27t-33 -41.5t-12.5 -52q0 -83 66 -125.5t139 -42.5q96 0 170 20.5t153.5 60.5t143 97.5t98.5 122.5q15 27 23 27q11 0 11 -39q0 -30 -16 -63t-38 -65t-51 -61.5t-54 -48.5q-59 -45 -119.5 -76.5t-148 -55.5t-157.5 -24
q-79 0 -136 14t-105 46.5t-71 81.5q-13 30 -19 59.5t-6 57.5q0 63 19 101t50 66t77.5 45.5t109.5 18.5q75 -1 113 -12.5t58 -28.5t27.5 -36.5t7.5 -39.5q0 -18 -7 -33t-22 -31.5t-38 -27.5t-55 -13l-12 14q29 40 29 64q0 23 -21 36z" />
    <glyph glyph-name="uni1784.sub2" 
d="M-627 -37q-24 15 -53 15q-20 0 -39.5 -6.5t-34.5 -20t-26 -37t-11 -60.5q0 -75 49 -121.5t128 -46.5q63 0 120 18.5t118 69.5q44 36 83.5 88.5t79.5 124.5q15 27 22 27q11 0 11 -28q0 -27 -11.5 -62.5t-18.5 -48.5q-43 -88 -94.5 -146.5t-119.5 -101.5q-40 -23 -83.5 -36
t-109.5 -13q-88 0 -152 31.5t-97 74t-42.5 80.5t-9.5 76q0 34 9.5 69t36.5 73t74.5 66.5t123.5 28.5q35 0 68 -9.5t59 -26t42 -39t16 -48.5q0 -22 -7 -37t-22 -31t-38 -25.5t-55 -11.5l-12 14q8 18 11.5 33t3.5 27q0 25 -19 40z" />
    <glyph glyph-name="uni178417B6" horiz-adv-x="2459" 
d="M2279 253h-250v812l-132 86l-414 -367v-531h-315l-289 185l-289 -185h-315v339q0 43 -42 43q-50 0 -50 -57q0 -23 37.5 -59t37.5 -72q0 -99 -108 -99q-140 0 -140 170q0 236 279 236h117q119 0 119 -125v-214l354 235l354 -235v385q0 156 -384 156q-147 0 -249 -18
q-118 -20 -118 -54v-48h-250v459q0 32 -53 59q-57 25 -57 69q0 43 34 71.5t95 28.5q81 0 148 -44q83 -55 83 -151v-218q91 58 378 58q35 0 182 -11q-3 19 -3 35q0 92 65 157t157 65t157 -65t65 -157q0 -93 -66 -158l10 -10l440 390h81l331 -210v-951zM1330 1192q0 29 -20 49
t-49 20t-49 -20t-20 -49t20 -49t49 -20t49 20t20 49z" />
    <glyph glyph-name="uni178417C5.sechalf" horiz-adv-x="2459" 
d="M2312 1463q0 -115 -33 -297v-913h-250v812l-132 86l-414 -367v-531h-315l-289 185l-289 -185h-315v339q0 43 -42 43q-50 0 -50 -57q0 -23 37.5 -59t37.5 -72q0 -99 -108 -99q-140 0 -140 170q0 236 279 236h117q119 0 119 -125v-214l354 235l354 -235v385q0 156 -384 156
q-147 0 -249 -18q-118 -20 -118 -54v-48h-250v459q0 32 -52 58q-58 26 -58 70q0 43 34 71.5t95 28.5q81 0 148 -44q83 -55 83 -151v-218q91 58 378 58q35 0 182 -11q-3 19 -3 35q0 92 65 157t157 65t157 -65t65 -157q0 -93 -66 -158l10 -10l440 390h81l215 -137
q22 64 22 127q0 118 -52 118q-8 0 -26.5 -2t-30.5 -2q-32 0 -54.5 26.5t-22.5 62.5q0 51 30 89q35 43 94 43q89 0 141 -84q48 -77 48 -192zM1330 1192q0 29 -20 49t-49 20t-49 -20t-20 -49t20 -49t49 -20t49 20t20 49z" />
    <glyph glyph-name="uni1785" unicode="&#x1785;" horiz-adv-x="1687" 
d="M1608 1232l-136 -187h-60l-339 151l-233 -151h-69l-386 151l-109 -63v-35l154 -124v-381q0 -60 51 -96q46 -32 108 -32h498q69 0 115 28q55 34 55 98v169q0 52 -42 52q-50 0 -50 -57q0 -15 37.5 -49t37.5 -72q0 -99 -108 -99q-140 0 -140 160q0 121 92 188q78 58 187 58
h117q119 0 119 -134v-352q0 -101 -95 -156q-79 -46 -187 -46h-778q-93 0 -174 52q-93 59 -93 147v470l-137 113v136l400 243h69l370 -164l244 164h64l279 -123q16 -7 46 -7q28 0 54 9z" />
    <glyph glyph-name="uni1785.sub1" 
d="M-180 -304q0 -21 -3.5 -39t-8.5 -34l-61 -23l-50 21q5 16 7 30t2 32q0 28 -4.5 44t-13.5 37q-12 22 -19 32t-20 25q-16 -32 -49 -71.5t-77.5 -74t-125.5 -58.5t-163 -24q-78 0 -136.5 19.5t-88.5 46.5t-38.5 55.5t-8.5 52.5q20 4 58 23t74 43q47 30 60.5 51t13.5 34
q0 18 -8 18q-3 0 -9 -2t-12 -2q-16 0 -25 13.5t-9 42.5q0 40 31.5 68.5t79.5 28.5q42 0 63 -27t21 -68q0 -70 -45 -134.5t-143 -121.5q15 -13 25.5 -19t22 -10t26.5 -6.5t37 -2.5q39 0 81 5t81.5 17.5t70 32.5t46.5 37q14 12 28 31.5t24 38t17.5 35t8.5 24.5
q-25 34 -38.5 64t-13.5 54q0 23 15.5 35.5t44.5 12.5q28 0 43 -9t22 -21.5t10 -27.5t7 -27q14 -44 38.5 -77t49.5 -65t43.5 -69.5t18.5 -90.5z" />
    <glyph glyph-name="uni1785.sub2" 
d="M-180 -304q0 -21 -3.5 -39t-8.5 -34l-61 -23l-50 21q5 16 7 30t2 32q0 28 -4.5 44t-13.5 37q-12 22 -19 32t-20 25q-16 -32 -49 -71.5t-77.5 -74t-125.5 -58.5t-163 -24q-78 0 -136.5 19.5t-88.5 46.5t-38.5 55.5t-8.5 52.5q20 4 58 23t74 43q47 30 60.5 51t13.5 34
q0 18 -8 18q-3 0 -9 -2t-12 -2q-16 0 -25 13.5t-9 42.5q0 40 31.5 68.5t79.5 28.5q42 0 63 -27t21 -68q0 -70 -45 -134.5t-143 -121.5q15 -13 25.5 -19t22 -10t26.5 -6.5t37 -2.5q39 0 81 5t81.5 17.5t70 32.5t46.5 37q14 12 28 31.5t24 38t17.5 35t8.5 24.5
q-25 34 -38.5 64t-13.5 54q0 23 15.5 35.5t44.5 12.5q28 0 43 -9t22 -21.5t10 -27.5t7 -27q14 -44 38.5 -77t49.5 -65t43.5 -69.5t18.5 -90.5z" />
    <glyph glyph-name="uni178517B6" horiz-adv-x="2353" 
d="M2173 253h-250v792l-522 151l-276 -151h-96l-614 151l-139 -76v-24l154 -122v-381q0 -60 51 -96q46 -32 108 -32h498q69 0 115 28q55 34 55 98v169q0 52 -42 52q-50 0 -50 -57q0 -15 37.5 -49t37.5 -72q0 -99 -108 -99q-140 0 -140 160q0 121 92 188q78 58 187 58h117
q119 0 119 -134v-352q0 -101 -95 -156q-79 -46 -187 -46h-778q-93 0 -174 52q-93 59 -93 147v470l-137 113v151l430 228h69l610 -164l289 164h51l681 -210v-951z" />
    <glyph glyph-name="uni178517C5.sechalf" horiz-adv-x="2353" 
d="M2206 1463q0 -115 -33 -297v-913h-250v792l-522 151l-276 -151h-96l-614 151l-139 -76v-24l154 -122v-381q0 -60 51 -96q46 -32 108 -32h498q69 0 115 28q55 34 55 98v169q0 52 -42 52q-50 0 -50 -57q0 -15 37.5 -49t37.5 -72q0 -99 -108 -99q-140 0 -140 160
q0 121 92 188q78 58 187 58h117q119 0 119 -134v-352q0 -101 -95 -156q-79 -46 -187 -46h-778q-93 0 -174 52q-93 59 -93 147v470l-137 113v151l430 228h69l610 -164l289 164h51l551 -170q36 65 36 160q0 118 -52 118q-8 0 -26.5 -2t-30.5 -2q-32 0 -54.5 26.5t-22.5 62.5
q0 51 30 89q35 43 94 43q89 0 141 -84q48 -77 48 -192z" />
    <glyph glyph-name="uni1786" unicode="&#x1786;" horiz-adv-x="1732" 
d="M1653 1232l-136 -187h-60l-339 151l-233 -151h-69l-314 151l-109 -63v-35l154 -124v-198l565 -311h90q100 0 100 86v209q0 52 -42 52q-50 0 -50 -57q0 -15 37.5 -49t37.5 -72q0 -99 -108 -99q-140 0 -140 160q0 121 92 188q78 58 187 58h117q119 0 119 -134v-372
q0 -182 -304 -182h-213l-488 272v-164q0 -107 -84 -107h-166q-119 0 -203 84.5t-84 203.5t84 202t203 83v95l-137 113v136l400 243h69l298 -164l244 164h64l279 -123q16 -7 46 -7q28 0 54 9zM297 465v151q-31 0 -53.5 -22t-22.5 -53t22.5 -53.5t53.5 -22.5z" />
    <glyph glyph-name="uni1786.sub1" 
d="M-306 -214v155q-9 13 -22 17.5t-25 4.5q-24 0 -43.5 -12t-19.5 -37q0 -18 10 -49t10 -50q0 -30 -17.5 -42t-44.5 -12q-30 0 -51 27t-21 75q0 33 13.5 64.5t52.5 64.5q20 16 44 26.5t49.5 17.5t49.5 9t45 2h36q27 0 43.5 -16.5t16.5 -43.5v-228q0 -52 -28.5 -82t-73.5 -49
t-99 -26.5t-144 -7.5l-240 206v-119q0 -87 -87 -87q-69 0 -125.5 9t-97 29t-62 53.5t-21.5 82.5q0 29 12 56t41 47t81.5 33t135.5 13v130h123v-136l273 -223q28 0 61 2.5t61 14.5t46 31.5t18 49.5zM-888 -175q-77 0 -119 -11t-42 -47q0 -34 42 -48.5t119 -14.5v121z" />
    <glyph glyph-name="uni1786.sub2" 
d="M-294 -214v155q-7 9 -25 9q-17 0 -30.5 -8.5t-13.5 -26.5q0 -9 4.5 -23t10.5 -30t10.5 -30t4.5 -25q0 -25 -17 -35.5t-37 -10.5q-33 0 -50 30.5t-17 87.5q0 35 15.5 65.5t42.5 53t61 36t70 13.5h33q25 0 38.5 -16.5t13.5 -43.5v-228q0 -48 -22.5 -79.5t-63.5 -51
t-96.5 -27t-121.5 -7.5l-137 190v-103q0 -87 -85 -87q-74 0 -119 20t-70 43t-37.5 46t-13.5 56q0 29 7 49t26 41t59 40t110 28v130h123v-131l167 -228q28 0 53 3.5t49.5 14.5t41 30.5t16.5 49.5zM-744 -175q-31 0 -50.5 -6t-30 -15.5t-14.5 -18.5t-4 -19q0 -21 24 -40
t75 -22v121z" />
    <glyph glyph-name="uni178617B6" horiz-adv-x="2398" 
d="M2218 253h-250v792l-522 151l-276 -151h-96l-542 151l-139 -69v-29l154 -124v-198l565 -311h90q100 0 100 86v209q0 52 -42 52q-50 0 -50 -57q0 -15 37.5 -49t37.5 -72q0 -99 -108 -99q-140 0 -140 160q0 121 92 188q78 58 187 58h117q119 0 119 -134v-372
q0 -182 -304 -182h-213l-488 272v-164q0 -107 -84 -107h-166q-119 0 -203 84.5t-84 203.5t84 202t203 83v95l-137 113v151l430 228h69l538 -164l289 164h51l681 -210v-951zM297 465v151q-31 0 -53.5 -22t-22.5 -53t22.5 -53.5t53.5 -22.5z" />
    <glyph glyph-name="uni178617C5.sechalf" horiz-adv-x="2398" 
d="M2251 1463q0 -115 -33 -297v-913h-250v792l-522 151l-276 -151h-96l-542 151l-139 -69v-29l154 -124v-198l565 -311h90q100 0 100 86v209q0 52 -42 52q-50 0 -50 -57q0 -15 37.5 -49t37.5 -72q0 -99 -108 -99q-140 0 -140 160q0 121 92 188q78 58 187 58h117
q119 0 119 -134v-372q0 -182 -304 -182h-213l-488 272v-164q0 -107 -84 -107h-166q-119 0 -203 84.5t-84 203.5t84 202t203 83v95l-137 113v151l430 228h69l538 -164l289 164h51l551 -170q36 65 36 160q0 118 -52 118q-8 0 -26.5 -2t-30.5 -2q-32 0 -54.5 26.5t-22.5 62.5
q0 51 30 89q35 43 94 43q89 0 141 -84q48 -77 48 -192zM297 465v151q-31 0 -53.5 -22t-22.5 -53t22.5 -53.5t53.5 -22.5z" />
    <glyph glyph-name="uni1787" unicode="&#x1787;" horiz-adv-x="1470" 
d="M1335 1362q0 -161 -82 -265q-90 -114 -250 -114q-153 0 -265 55l-323 158l-139 -76v-24l154 -124v-557l305 235l305 -235v435h250v-597h-315l-240 185l-240 -185h-315v669l-137 113v151l430 228h69l292 -153q126 -66 221 -66q141 0 141 94q0 56 -52 56q-6 0 -20.5 -2.5
t-20.5 -2.5q-87 0 -87 89q0 57 39 93t92 36q84 0 136 -57.5t52 -138.5z" />
    <glyph glyph-name="uni1787.sub1" 
d="M-88 -229v12q0 17 -6 39.5t-16.5 43.5t-25.5 35t-31 14q-7 0 -13 -1v-327h-105l-303 123l-316 -123h-102v454q0 24 18.5 40.5t68.5 16.5q63 0 106.5 -43.5t43.5 -128.5q0 -41 -16.5 -68.5t-48.5 -27.5q-54 0 -54 66q0 28 8.5 41t17.5 18t17 8t8 12q0 14 -9 29.5t-27 15.5
q-11 0 -16.5 -9t-5.5 -21v-280l307 114l294 -114v202q-25 -1 -33 -1q-49 0 -75.5 10.5t-40 30t-13.5 47.5q0 21 8.5 37t26.5 31t45.5 24t68.5 9q31 0 50.5 -4.5t37 -13.5t28.5 -25t11 -38v-33q50 0 83.5 -18t49 -37.5t28.5 -51.5q6 -16 12 -43t6 -39l-33 -36zM-294 -17v68
q-10 2 -26 2q-28 0 -40.5 -10.5t-12.5 -25.5q0 -34 79 -34z" />
    <glyph glyph-name="uni1787.sub2" 
d="M-88 -229v12q0 17 -6 39.5t-16.5 43.5t-25.5 35t-31 14q-7 0 -13 -1v-327h-105l-213 123l-256 -123h-102v454q0 24 18.5 40.5t68.5 16.5q63 0 106.5 -43.5t43.5 -128.5q0 -41 -16.5 -68.5t-48.5 -27.5q-54 0 -54 66q0 28 8.5 41t17.5 18t17 8t8 12q0 14 -9 29.5t-27 15.5
q-11 0 -16.5 -9t-5.5 -21v-280l247 114l204 -114v202q-25 -1 -33 -1q-49 0 -75.5 10.5t-40 30t-13.5 47.5q0 21 8.5 37t26.5 31t45.5 24t68.5 9q31 0 50.5 -4.5t37 -13.5t28.5 -25t11 -38v-33q50 0 83.5 -18t49 -37.5t28.5 -51.5q6 -16 12 -43t6 -39l-33 -36zM-294 -17v68
q-10 2 -26 2q-28 0 -40.5 -10.5t-12.5 -25.5q0 -34 79 -34z" />
    <glyph glyph-name="uni178717B6" horiz-adv-x="2263" 
d="M2083 253h-250v812l-122 86l-421 -424v-474h-315l-240 185l-240 -185h-315v669l-137 113v151l430 228h69l262 -153q113 -66 201 -66q141 0 141 94q0 56 -52 56q-6 0 -20.5 -2.5t-20.5 -2.5q-87 0 -87 89q0 57 39 93t92 36q84 0 136 -57.5t52 -138.5q0 -161 -82 -265
q-90 -114 -250 -114q-161 0 -258 55l-280 158l-139 -76v-24l154 -124v-557l305 235l305 -235v359l641 640h81l321 -210v-951z" />
    <glyph glyph-name="uni178717C5.sechalf" horiz-adv-x="2263" 
d="M2116 1463q0 -115 -33 -297v-913h-250v812l-122 86l-421 -424v-474h-315l-240 185l-240 -185h-315v669l-137 113v151l430 228h69l262 -153q113 -66 201 -66q141 0 141 94q0 56 -52 56q-6 0 -20.5 -2.5t-20.5 -2.5q-87 0 -87 89q0 57 39 93t92 36q84 0 136 -57.5
t52 -138.5q0 -161 -82 -265q-90 -114 -250 -114q-161 0 -258 55l-280 158l-139 -76v-24l154 -124v-557l305 235l305 -235v359l641 640h81l206 -135q21 62 21 125q0 118 -52 118q-8 0 -26.5 -2t-30.5 -2q-32 0 -54.5 26.5t-22.5 62.5q0 51 30 89q35 43 94 43q89 0 141 -84
q48 -77 48 -192z" />
    <glyph glyph-name="uni1788" unicode="&#x1788;" horiz-adv-x="2515" 
d="M2484 1300l-111 -153q-69 49 -146 49q-64 0 -111 -55l5 -9q42 7 59 7q55 0 100 -24q55 -30 55 -83v-560q0 -93 -91 -159q-82 -60 -176 -60h-254q-135 0 -225 73q-95 -73 -196 -73h-254q-104 0 -188 57q-95 64 -95 165v569q0 120 -129 120h-168q-129 0 -129 -123v-596
q0 -53 42 -53q50 0 50 67q0 23 -37.5 64t-37.5 77q0 109 108 109q140 0 140 -180q0 -133 -91 -210q-79 -66 -188 -66h-117q-119 0 -119 134v764q0 101 95 167q85 58 188 58h357q104 0 189 -58q97 -66 97 -167v-560q0 -126 129 -126h98q61 0 100 31q42 35 42 95v373
q0 50 -63 50q-10 0 -27.5 -4t-27.5 -4q-13 0 -22 19l-54 114l328 275h29l153 -77q14 -7 30 -7q25 0 33 2l20 -32l-111 -153q-69 49 -146 49q-64 0 -111 -55l5 -9q42 7 59 7q55 0 100 -24q55 -30 55 -83v-441q0 -126 154 -126h87q119 0 119 126v373q0 50 -63 50
q-10 0 -27.5 -4t-27.5 -4q-13 0 -22 19l-54 114l328 275h29l153 -77q14 -7 30 -7q25 0 33 2z" />
    <glyph glyph-name="uni1788.sub1" horiz-adv-x="630" 
d="M599 1300l-111 -153q-69 49 -146 49q-64 0 -111 -55l5 -9q42 7 59 7q55 0 100 -24q55 -30 55 -83v-1235q0 -93 -91 -159q-82 -60 -176 -60h-134q-105 0 -195 73q-95 -73 -196 -73h-144q-103 0 -183 57q-90 64 -90 165v179q0 103 -89 103h-137q-89 0 -89 -103v-229
q0 -53 42 -53q50 0 50 67q0 23 -37.5 61.5t-37.5 74.5q0 100 108 100q130 0 130 -166q0 -124 -87 -195q-75 -61 -182 -61h-117q-119 0 -119 134v313q0 93 91 159q82 60 176 60h281q94 0 176 -58q91 -65 91 -158v-162q0 -126 119 -126h18q56 0 78 10q34 16 34 66v18
q0 50 -63 50q-10 0 -27.5 -4t-27.5 -4q-13 0 -22 19l-47 105l321 244h29l153 -77q14 -7 30 -7q25 0 33 2l20 -32l-111 -133q-69 49 -146 49q-64 0 -111 -55l5 -9q42 7 59 7q55 0 100 -24q55 -30 55 -83v-46q0 -96 104 -96h17q89 0 89 106v1118q0 50 -63 50q-10 0 -27.5 -4
t-27.5 -4q-13 0 -22 19l-54 114l328 275h29l153 -77q14 -7 30 -7q25 0 33 2z" />
    <glyph glyph-name="uni1788.sub2" horiz-adv-x="630" 
d="M599 1300l-111 -153q-69 49 -146 49q-64 0 -111 -55l5 -9q42 7 59 7q55 0 100 -24q55 -30 55 -83v-1235q0 -93 -91 -159q-82 -60 -176 -60h-134q-105 0 -195 73q-95 -73 -196 -73h-144q-103 0 -183 57q-90 64 -90 165v179q0 103 -89 103h-137q-89 0 -89 -103v-229
q0 -53 42 -53q50 0 50 67q0 23 -37.5 61.5t-37.5 74.5q0 100 108 100q130 0 130 -166q0 -124 -87 -195q-75 -61 -182 -61h-117q-119 0 -119 134v313q0 93 91 159q82 60 176 60h281q94 0 176 -58q91 -65 91 -158v-162q0 -126 119 -126h18q56 0 78 10q34 16 34 66v18
q0 50 -63 50q-10 0 -27.5 -4t-27.5 -4q-13 0 -22 19l-47 105l321 244h29l153 -77q14 -7 30 -7q25 0 33 2l20 -32l-111 -133q-69 49 -146 49q-64 0 -111 -55l5 -9q42 7 59 7q55 0 100 -24q55 -30 55 -83v-46q0 -96 104 -96h17q89 0 89 106v1118q0 50 -63 50q-10 0 -27.5 -4
t-27.5 -4q-13 0 -22 19l-54 114l328 275h29l153 -77q14 -7 30 -7q25 0 33 2z" />
    <glyph glyph-name="uni178817B6" horiz-adv-x="3184" 
d="M3004 253h-250v812l-354 154l-173 -57q-48 -16 -66 -23q-33 -14 -45 -28l5 -9q42 7 59 7q55 0 100 -24q55 -31 55 -83v-530q0 -93 -91 -159q-82 -60 -176 -60h-254q-135 0 -225 73q-95 -73 -196 -73h-254q-104 0 -188 57q-95 64 -95 165v569q0 120 -129 120h-168
q-129 0 -129 -123v-596q0 -53 42 -53q50 0 50 67q0 23 -37.5 64t-37.5 77q0 109 108 109q140 0 140 -180q0 -133 -91 -210q-79 -66 -188 -66h-117q-119 0 -119 134v764q0 101 95 167q85 58 188 58h357q104 0 189 -58q97 -66 97 -167v-560q0 -126 129 -126h98q61 0 100 31
q42 35 42 95v373q0 50 -63 50q-10 0 -27.5 -4t-27.5 -4q-13 0 -22 19l-54 114l328 275h29l153 -77q14 -7 30 -7q25 0 33 2l20 -32l-111 -153q-69 49 -146 49q-64 0 -111 -55l5 -9q42 7 59 7q55 0 100 -24q55 -30 55 -83v-441q0 -126 154 -126h87q119 0 119 126v343
q0 50 -57 50q-10 0 -26 -3.5t-26 -3.5q-18 0 -22 19l-48 208l586 210h51l461 -210v-951z" />
    <glyph glyph-name="uni178817B6.sub1" horiz-adv-x="1279" 
d="M1099 253h-250v812l-354 154l-173 -57q-48 -16 -66 -23q-33 -14 -45 -28l5 -9q42 7 59 7q55 0 100 -23q55 -29 55 -81v-1208q0 -93 -91 -159q-82 -60 -176 -60h-134q-105 0 -195 73q-95 -73 -196 -73h-144q-103 0 -183 57q-90 64 -90 165v179q0 103 -89 103h-137
q-89 0 -89 -103v-229q0 -53 42 -53q50 0 50 67q0 23 -37.5 61.5t-37.5 74.5q0 100 108 100q130 0 130 -166q0 -124 -87 -195q-75 -61 -182 -61h-117q-119 0 -119 134v313q0 93 91 159q82 60 176 60h281q94 0 176 -58q91 -65 91 -158v-162q0 -126 119 -126h18q56 0 78 10
q34 16 34 66v18q0 50 -63 50q-10 0 -27.5 -4t-27.5 -4q-13 0 -22 19l-47 105l321 244h29l153 -77q14 -7 30 -7q25 0 33 2l20 -32l-111 -133q-69 49 -146 49q-64 0 -111 -55l5 -9q42 7 59 7q55 0 100 -24q55 -30 55 -83v-46q0 -96 104 -96h17q89 0 89 106v1088q0 50 -57 50
q-10 0 -26 -3.5t-26 -3.5q-18 0 -22 19l-48 208l586 210h51l461 -210v-951z" />
    <glyph glyph-name="uni178817B6.sub2" horiz-adv-x="1279" 
d="M1099 253h-250v812l-354 154l-173 -57q-48 -16 -66 -23q-33 -14 -45 -28l5 -9q42 7 59 7q55 0 100 -23q55 -29 55 -81v-1208q0 -93 -91 -159q-82 -60 -176 -60h-134q-105 0 -195 73q-95 -73 -196 -73h-144q-103 0 -183 57q-90 64 -90 165v179q0 103 -89 103h-137
q-89 0 -89 -103v-229q0 -53 42 -53q50 0 50 67q0 23 -37.5 61.5t-37.5 74.5q0 100 108 100q130 0 130 -166q0 -124 -87 -195q-75 -61 -182 -61h-117q-119 0 -119 134v313q0 93 91 159q82 60 176 60h281q94 0 176 -58q91 -65 91 -158v-162q0 -126 119 -126h18q56 0 78 10
q34 16 34 66v18q0 50 -63 50q-10 0 -27.5 -4t-27.5 -4q-13 0 -22 19l-47 105l321 244h29l153 -77q14 -7 30 -7q25 0 33 2l20 -32l-111 -133q-69 49 -146 49q-64 0 -111 -55l5 -9q42 7 59 7q55 0 100 -24q55 -30 55 -83v-46q0 -96 104 -96h17q89 0 89 106v1088q0 50 -57 50
q-10 0 -26 -3.5t-26 -3.5q-18 0 -22 19l-48 208l586 210h51l461 -210v-951z" />
    <glyph glyph-name="uni178817C5.sechalf" horiz-adv-x="3184" 
d="M3037 1463q0 -115 -33 -297v-913h-250v812l-354 154l-173 -57q-48 -16 -66 -23q-33 -14 -45 -28l5 -9q42 7 59 7q55 0 100 -24q55 -31 55 -83v-530q0 -93 -91 -159q-82 -60 -176 -60h-254q-135 0 -225 73q-95 -73 -196 -73h-254q-104 0 -188 57q-95 64 -95 165v569
q0 120 -129 120h-168q-129 0 -129 -123v-596q0 -53 42 -53q50 0 50 67q0 23 -37.5 64t-37.5 77q0 109 108 109q140 0 140 -180q0 -133 -91 -210q-79 -66 -188 -66h-117q-119 0 -119 134v764q0 101 95 167q85 58 188 58h357q104 0 189 -58q97 -66 97 -167v-560
q0 -126 129 -126h98q61 0 100 31q42 35 42 95v373q0 50 -63 50q-10 0 -27.5 -4t-27.5 -4q-13 0 -22 19l-54 114l328 275h29l153 -77q14 -7 30 -7q25 0 33 2l20 -32l-111 -153q-69 49 -146 49q-64 0 -111 -55l5 -9q42 7 59 7q55 0 100 -24q55 -30 55 -83v-441
q0 -126 154 -126h87q119 0 119 126v343q0 50 -57 50q-10 0 -26 -3.5t-26 -3.5q-18 0 -22 19l-48 208l586 210h51l339 -154q28 65 28 144q0 118 -52 118q-8 0 -26.5 -2t-30.5 -2q-32 0 -54.5 26.5t-22.5 62.5q0 51 30 89q35 43 94 43q89 0 141 -84q48 -77 48 -192z" />
    <glyph glyph-name="uni178817C5.sub1sechalf" horiz-adv-x="1279" 
d="M1132 1463q0 -115 -33 -297v-913h-250v812l-354 154l-173 -57q-48 -16 -66 -23q-33 -14 -45 -28l5 -9q42 7 59 7q55 0 100 -23q55 -29 55 -81v-1208q0 -93 -91 -159q-82 -60 -176 -60h-134q-105 0 -195 73q-95 -73 -196 -73h-144q-103 0 -183 57q-90 64 -90 165v179
q0 103 -89 103h-137q-89 0 -89 -103v-229q0 -53 42 -53q50 0 50 67q0 23 -37.5 61.5t-37.5 74.5q0 100 108 100q130 0 130 -166q0 -124 -87 -195q-75 -61 -182 -61h-117q-119 0 -119 134v313q0 93 91 159q82 60 176 60h281q94 0 176 -58q91 -65 91 -158v-162
q0 -126 119 -126h18q56 0 78 10q34 16 34 66v18q0 50 -63 50q-10 0 -27.5 -4t-27.5 -4q-13 0 -22 19l-47 105l321 244h29l153 -77q14 -7 30 -7q25 0 33 2l20 -32l-111 -133q-69 49 -146 49q-64 0 -111 -55l5 -9q42 7 59 7q55 0 100 -24q55 -30 55 -83v-46q0 -96 104 -96h17
q89 0 89 106v1088q0 50 -57 50q-10 0 -26 -3.5t-26 -3.5q-18 0 -22 19l-48 208l586 210h51l339 -154q28 65 28 144q0 118 -52 118q-8 0 -26.5 -2t-30.5 -2q-32 0 -54.5 26.5t-22.5 62.5q0 51 30 89q35 43 94 43q89 0 141 -84q48 -77 48 -192z" />
    <glyph glyph-name="uni178817C5.sub2sechalf" horiz-adv-x="1279" 
d="M1132 1463q0 -115 -33 -297v-913h-250v812l-354 154l-173 -57q-48 -16 -66 -23q-33 -14 -45 -28l5 -9q42 7 59 7q55 0 100 -23q55 -29 55 -81v-1208q0 -93 -91 -159q-82 -60 -176 -60h-134q-105 0 -195 73q-95 -73 -196 -73h-144q-103 0 -183 57q-90 64 -90 165v179
q0 103 -89 103h-137q-89 0 -89 -103v-229q0 -53 42 -53q50 0 50 67q0 23 -37.5 61.5t-37.5 74.5q0 100 108 100q130 0 130 -166q0 -124 -87 -195q-75 -61 -182 -61h-117q-119 0 -119 134v313q0 93 91 159q82 60 176 60h281q94 0 176 -58q91 -65 91 -158v-162
q0 -126 119 -126h18q56 0 78 10q34 16 34 66v18q0 50 -63 50q-10 0 -27.5 -4t-27.5 -4q-13 0 -22 19l-47 105l321 244h29l153 -77q14 -7 30 -7q25 0 33 2l20 -32l-111 -133q-69 49 -146 49q-64 0 -111 -55l5 -9q42 7 59 7q55 0 100 -24q55 -30 55 -83v-46q0 -96 104 -96h17
q89 0 89 106v1088q0 50 -57 50q-10 0 -26 -3.5t-26 -3.5q-18 0 -22 19l-48 208l586 210h51l339 -154q28 65 28 144q0 118 -52 118q-8 0 -26.5 -2t-30.5 -2q-32 0 -54.5 26.5t-22.5 62.5q0 51 30 89q35 43 94 43q89 0 141 -84q48 -77 48 -192z" />
    <glyph glyph-name="uni1789" unicode="&#x1789;" horiz-adv-x="1962" 
d="M1782 253h-250v786q0 128 -169 128h-27q-69 0 -115 -28q-54 -34 -54 -98v-788h-250v807q0 109 -65 109q-24 0 -88.5 -53.5t-90.5 -53.5t-90 53.5t-88 53.5q-65 0 -65 -108v-616q0 -53 42 -53q50 0 50 67q0 23 -37.5 64t-37.5 77q0 109 108 109q140 0 140 -180
q0 -133 -91 -210q-79 -66 -188 -66h-117q-119 0 -119 134v720q0 126 72.5 199t195.5 73q64 0 139 -53t86 -53t86.5 53t139.5 53q102 0 158 -63q81 63 209 63h204q122 0 209 -53q103 -63 103 -176v-897zM322 -163q35 39 79 63t98.5 37.5t112.5 18t110 4.5q27 0 62.5 -3.5
t82 -15t102 -34.5t148.5 -64q144 -63 237 -63q70 0 111.5 11.5t64 28t30.5 35t8 32.5q0 39 -31.5 66.5t-109.5 27.5q-99 0 -99 48q0 27 32.5 49.5t99.5 24.5q69 0 114 -21.5t70.5 -51t35.5 -57t10 -61.5q0 -36 -11.5 -73t-51.5 -76q-30 -26 -68 -45t-73.5 -28t-65 -12
t-57.5 -3q-44 0 -87.5 6t-107.5 23q-66 21 -114 42t-100 42.5t-113.5 36.5t-148.5 15q-79 0 -148.5 -15.5t-121 -39.5t-87.5 -42t-49 -18q-11 0 -11 15q0 35 47 97z" />
    <glyph glyph-name="uni1789.alt" horiz-adv-x="1962" 
d="M1782 253h-250v786q0 128 -169 128h-27q-69 0 -115 -28q-54 -34 -54 -98v-788h-250v807q0 109 -65 109q-24 0 -88.5 -53.5t-90.5 -53.5t-90 53.5t-88 53.5q-65 0 -65 -108v-616q0 -53 42 -53q50 0 50 67q0 23 -37.5 64t-37.5 77q0 109 108 109q140 0 140 -180
q0 -133 -91 -210q-79 -66 -188 -66h-117q-119 0 -119 134v720q0 126 72.5 199t195.5 73q64 0 139 -53t86 -53t86.5 53t139.5 53q102 0 158 -63q81 63 209 63h204q122 0 209 -53q103 -63 103 -176v-897z" />
    <glyph glyph-name="uni1789.sub1" 
d="M-1548 -163q35 39 79 63t98.5 37.5t112.5 18t110 4.5q27 0 62.5 -3.5t82 -15t102 -34.5t148.5 -64q144 -63 237 -63q70 0 111.5 11.5t64 28t30.5 35t8 32.5q0 39 -31.5 66.5t-109.5 27.5q-99 0 -99 48q0 27 32.5 49.5t99.5 24.5q69 0 114 -21.5t70.5 -51t35.5 -57
t10 -61.5q0 -36 -11.5 -73t-51.5 -76q-30 -26 -68 -45t-73.5 -28t-65 -12t-57.5 -3q-44 0 -87.5 6t-107.5 23q-66 21 -114 42t-100 42.5t-113.5 36.5t-148.5 15q-79 0 -148.5 -15.5t-121 -39.5t-87.5 -42t-49 -18q-11 0 -11 15q0 35 47 97z" />
    <glyph glyph-name="uni1789.sub2" 
d="M-926 -277.5q1 6.5 7.5 29t19.5 46.5t32 45.5t37 32.5q58 35 129 35q30 0 47.5 -4t40.5 -13t53.5 -30t81.5 -58q78 -59 123 -59q24 0 39.5 11.5t24.5 27t12 33t3 29.5q0 39 -13.5 62t-46.5 23t-33 42q0 32 16 51.5t53 19.5q34 0 59 -19t38 -44.5t18 -50t5 -39.5
q0 -42 -8 -83.5t-27 -77.5t-57.5 -59t-79.5 -23q-36 0 -61.5 8t-53 21.5t-54.5 31.5t-55 38q-27 21 -57.5 40.5t-71.5 19.5q-39 0 -76.5 -14.5t-67 -38.5t-48.5 -42.5t-24 -18.5q-6 0 -6 15q0 6 1 12.5z" />
    <glyph glyph-name="uni1789.sub1alt" 
d="M-1172 -25v-123q9 -6 21 -8t23 -2q25 0 41.5 6.5t16.5 20.5q0 15 -13.5 19.5t-29 5.5t-29 6.5t-13.5 17.5t15.5 22.5t44.5 10.5q40 0 65 -16.5t25 -39.5q0 -22 -16 -43t-43 -33.5t-61.5 -17t-71.5 -4.5h-33q-27 0 -49 9t-22 22v161q0 24 22.5 41t57 27.5t70 15t75.5 4.5
q27 0 49.5 -7t37.5 -16t26 -15.5t22 -6.5q10 0 22 9q33 21 51.5 28t36.5 7q11 0 22 -1t26 -4.5t32 -9.5t49 -15q57 16 101 25t116 9q30 0 54 -1t50.5 -3.5t63 -10.5t73.5 -20.5t50.5 -25.5t13.5 -34v-188h-128v177q0 15 -11.5 24.5t-32 16.5t-47 10.5t-54.5 3.5
q-32 0 -63.5 -2t-56 -7.5t-42.5 -16t-18 -26.5v-180h-128v181q0 11 -9.5 21t-23.5 15t-25 6.5t-23 1.5q-13 0 -27.5 -7.5t-26.5 -15t-25.5 -14.5t-23.5 -7q-15 0 -26 6q-34 18 -56 28t-53 10q-39 0 -65.5 -13t-26.5 -34zM-867 -345q-50 -13 -80.5 -27t-48.5 -14q-8 0 -8 6
q0 24 23.5 42.5t58.5 32t75.5 20.5t75.5 7q30 0 52.5 -1t49.5 -6t64.5 -17t95.5 -35q81 -31 126 -31q26 0 44.5 4.5t30.5 12.5t16 17.5t4 16.5q0 25 -22.5 37t-75.5 12q-33 0 -33 11q0 18 32.5 30t71.5 12q51 0 84.5 -25t33.5 -67q0 -36 -25.5 -57.5t-57 -31.5t-54.5 -13
t-43 -3q-36 0 -63.5 4t-52.5 10.5t-49 15.5t-52 18q-29 9 -72.5 19t-100.5 10q-46 0 -100 -10z" />
    <glyph glyph-name="uni1789.sub2alt" 
d="M-210 41q30 -22 30 -52v-218h-86v200q0 10 -8 21.5t-21.5 20.5t-31 15t-63.5 6q-39 0 -70 -15.5t-31 -40.5v-207h-88v200q0 21 -13 37.5t-40 16.5q-15 0 -30.5 -9.5t-45.5 -29.5q-18 -12 -36 -12q-12 0 -26 9q-34 21 -52 31.5t-36 10.5q-23 0 -40 -16t-17 -37v-136
q6 -9 14 -11.5t16 -2.5q16 0 28 8.5t12 23.5t-9 21t-19.5 7.5t-19.5 7.5t-9 18q0 16 16 27.5t44 11.5q29 0 46 -15t17 -45q0 -32 -15 -53.5t-37.5 -35t-49.5 -20.5t-52 -7h-23q-16 0 -30.5 10.5t-17.5 25.5v180q0 29 16 48.5t38 30.5t43.5 15.5t44.5 4.5q25 0 45 -8.5
t33.5 -18t25 -17.5t20.5 -8q7 0 19 8l25.5 17t30.5 17.5t34 8.5q18 0 32.5 -4.5t27.5 -12t30 -18.5q20 14 55 25t92 11q54 0 95.5 -8.5t86.5 -36.5zM-740 -362q-42 -12 -69 -25.5t-39 -13.5q-6 0 -6 7q0 23 19.5 40t49 29t64 18t64.5 6q19 0 37.5 -1t40.5 -5.5t52 -15.5
t78 -32q65 -28 102 -28q41 0 61 14t20 35q0 20 -16.5 28.5t-37.5 11t-37.5 5t-16.5 11.5q0 16 24.5 26.5t60.5 10.5q40 0 68.5 -22t28.5 -59t-21 -57.5t-46.5 -29.5t-42.5 -11t-36 -2q-53 0 -93 12.5t-87 29.5q-25 9 -59.5 18.5t-81.5 9.5q-37 0 -81 -10z" />
    <glyph glyph-name="uni178917B6" horiz-adv-x="2577" 
d="M2397 253h-250v786q0 128 -169 128h-27q-69 0 -115 -28q-54 -34 -54 -98v-788h-250v786q0 128 -169 128h-27q-69 0 -115 -28q-54 -34 -54 -98v-788h-250v807q0 109 -65 109q-24 0 -88.5 -53.5t-90.5 -53.5t-90 53.5t-88 53.5q-65 0 -65 -108v-616q0 -53 42 -53
q50 0 50 67q0 23 -37.5 64t-37.5 77q0 109 108 109q140 0 140 -180q0 -133 -91 -210q-79 -66 -188 -66h-117q-119 0 -119 134v720q0 126 72.5 199t195.5 73q64 0 139 -53t86 -53t86.5 53t139.5 53q102 0 158 -63q81 63 209 63h204q125 0 212 -55q78 55 199 55h204
q122 0 209 -53q103 -63 103 -176v-897zM628 -163q35 39 79 63t98.5 37.5t112.5 18t110 4.5q27 0 62.5 -3.5t82 -15t102 -34.5t148.5 -64q144 -63 237 -63q70 0 111.5 11.5t64 28t30.5 35t8 32.5q0 39 -31.5 66.5t-109.5 27.5q-99 0 -99 48q0 27 32.5 49.5t99.5 24.5
q69 0 114 -21.5t70.5 -51t35.5 -57t10 -61.5q0 -36 -11.5 -73t-51.5 -76q-30 -26 -68 -45t-73.5 -28t-65 -12t-57.5 -3q-44 0 -87.5 6t-107.5 23q-66 21 -114 42t-100 42.5t-113.5 36.5t-148.5 15q-79 0 -148.5 -15.5t-121 -39.5t-87.5 -42t-49 -18q-11 0 -11 15q0 35 47 97
z" />
    <glyph glyph-name="uni178917B6.alt" horiz-adv-x="2577" 
d="M2397 253h-250v786q0 128 -169 128h-27q-69 0 -115 -28q-54 -34 -54 -98v-788h-250v786q0 128 -169 128h-27q-69 0 -115 -28q-54 -34 -54 -98v-788h-250v807q0 109 -65 109q-24 0 -88.5 -53.5t-90.5 -53.5t-90 53.5t-88 53.5q-65 0 -65 -108v-616q0 -53 42 -53
q50 0 50 67q0 23 -37.5 64t-37.5 77q0 109 108 109q140 0 140 -180q0 -133 -91 -210q-79 -66 -188 -66h-117q-119 0 -119 134v720q0 126 72.5 199t195.5 73q64 0 139 -53t86 -53t86.5 53t139.5 53q102 0 158 -63q81 63 209 63h204q125 0 212 -55q78 55 199 55h204
q122 0 209 -53q103 -63 103 -176v-897z" />
    <glyph glyph-name="uni178917C5.sechalf" horiz-adv-x="2577" 
d="M2430 1463q0 -145 -33 -327v-883h-250v786q0 128 -169 128h-27q-69 0 -115 -28q-54 -34 -54 -98v-788h-250v786q0 128 -169 128h-27q-69 0 -115 -28q-54 -34 -54 -98v-788h-250v807q0 109 -65 109q-24 0 -88.5 -53.5t-90.5 -53.5t-90 53.5t-88 53.5q-65 0 -65 -108v-616
q0 -53 42 -53q50 0 50 67q0 23 -37.5 64t-37.5 77q0 109 108 109q140 0 140 -180q0 -133 -91 -210q-79 -66 -188 -66h-117q-119 0 -119 134v720q0 126 72.5 199t195.5 73q64 0 139 -53t86 -53t86.5 53t139.5 53q102 0 158 -63q81 63 209 63h204q125 0 212 -55q78 55 199 55
h204q123 0 209 -53q9 44 9 78q0 118 -52 118q-8 0 -26.5 -2t-30.5 -2q-32 0 -54.5 26.5t-22.5 62.5q0 51 30 89q35 43 94 43q89 0 141 -84q48 -77 48 -192zM628 -163q35 39 79 63t98.5 37.5t112.5 18t110 4.5q27 0 62.5 -3.5t82 -15t102 -34.5t148.5 -64q144 -63 237 -63
q70 0 111.5 11.5t64 28t30.5 35t8 32.5q0 39 -31.5 66.5t-109.5 27.5q-99 0 -99 48q0 27 32.5 49.5t99.5 24.5q69 0 114 -21.5t70.5 -51t35.5 -57t10 -61.5q0 -36 -11.5 -73t-51.5 -76q-30 -26 -68 -45t-73.5 -28t-65 -12t-57.5 -3q-44 0 -87.5 6t-107.5 23q-66 21 -114 42
t-100 42.5t-113.5 36.5t-148.5 15q-79 0 -148.5 -15.5t-121 -39.5t-87.5 -42t-49 -18q-11 0 -11 15q0 35 47 97z" />
    <glyph glyph-name="uni178917C5.altsechalf" horiz-adv-x="2577" 
d="M2430 1463q0 -145 -33 -327v-883h-250v786q0 128 -169 128h-27q-69 0 -115 -28q-54 -34 -54 -98v-788h-250v786q0 128 -169 128h-27q-69 0 -115 -28q-54 -34 -54 -98v-788h-250v807q0 109 -65 109q-24 0 -88.5 -53.5t-90.5 -53.5t-90 53.5t-88 53.5q-65 0 -65 -108v-616
q0 -53 42 -53q50 0 50 67q0 23 -37.5 64t-37.5 77q0 109 108 109q140 0 140 -180q0 -133 -91 -210q-79 -66 -188 -66h-117q-119 0 -119 134v720q0 126 72.5 199t195.5 73q64 0 139 -53t86 -53t86.5 53t139.5 53q102 0 158 -63q81 63 209 63h204q125 0 212 -55q78 55 199 55
h204q123 0 209 -53q9 44 9 78q0 118 -52 118q-8 0 -26.5 -2t-30.5 -2q-32 0 -54.5 26.5t-22.5 62.5q0 51 30 89q35 43 94 43q89 0 141 -84q48 -77 48 -192z" />
    <glyph glyph-name="uni178A" unicode="&#x178a;" horiz-adv-x="1545" 
d="M1365 1233q0 -399 -593 -399q-592 0 -592 319q0 94 57 162q70 84 201 84q129 0 194 -61q49 -46 49 -108v-95h-180v46q0 55 -63 55q-59 0 -59 -56q0 -134 393 -134q414 0 414 139q0 51 -52 51q-6 0 -20.5 -2.5t-20.5 -2.5q-87 0 -87 89q0 55 55 94q49 35 106 35
q87 0 142.5 -60t55.5 -156zM1365 253h-315l-277 185l-278 -185h-315v537h250v-375l342 235l343 -235v375h250v-537z" />
    <glyph glyph-name="uni178A.sub1" 
d="M-891 -199q45 0 78.5 -33t33.5 -78q0 -22 -9 -42.5t-24.5 -36t-36 -24.5t-42.5 -9h-97q-61 0 -85 30.5t-24 100.5v287q0 33 6 52.5t17.5 30.5t29.5 18t45 7h723q28 0 45.5 -7t28 -17t16.5 -23.5t6 -33.5v-444h-114v402q0 26 -42 26h-603q-44 0 -44 -26v-180h92z
M-983 -311q0 -30 22.5 -52.5t54.5 -22.5q30 0 52.5 22.5t22.5 52.5q0 33 -23.5 54.5t-51.5 21.5q-29 0 -53 -18.5t-24 -57.5z" />
    <glyph glyph-name="uni178A.sub2" 
d="M-651 -199q45 0 78.5 -33t33.5 -78q0 -22 -9 -42.5t-24.5 -36t-36 -24.5t-42.5 -9h-97q-61 0 -85 30.5t-24 100.5v287q0 33 6 52.5t17.5 30.5t29.5 18t45 7h483q28 0 45.5 -7t28 -17t16.5 -23.5t6 -33.5v-444h-114v402q0 26 -42 26h-363q-44 0 -44 -26v-180h92z
M-743 -311q0 -30 22.5 -52.5t54.5 -22.5q30 0 52.5 22.5t22.5 52.5q0 33 -23.5 54.5t-51.5 21.5q-29 0 -53 -18.5t-24 -57.5z" />
    <glyph glyph-name="uni178A17B6" horiz-adv-x="2338" 
d="M2158 253h-250v812l-122 86l-421 -463v-435h-315l-277 185l-278 -185h-315v537h250v-375l342 235l343 -235v319l641 680h81l321 -210v-951zM1285 1233q0 -188 -112 -284q-134 -115 -441 -115q-309 0 -441 90q-111 75 -111 229q0 94 57 162q70 84 201 84q129 0 194 -61
q49 -46 49 -108v-95h-180v46q0 55 -63 55q-59 0 -59 -63q0 -55 47 -82q80 -45 306 -45q374 0 374 139q0 51 -52 51q-6 0 -20.5 -2.5t-20.5 -2.5q-87 0 -87 89q0 55 55 94q49 35 106 35q87 0 142.5 -60t55.5 -156z" />
    <glyph glyph-name="uni178A17C5.sechalf" horiz-adv-x="2338" 
d="M2191 1463q0 -115 -33 -297v-913h-250v812l-122 86l-421 -463v-435h-315l-277 185l-278 -185h-315v537h250v-375l342 235l343 -235v319l641 680h81l206 -135q21 62 21 125q0 118 -52 118q-8 0 -26.5 -2t-30.5 -2q-32 0 -54.5 26.5t-22.5 62.5q0 51 30 89q35 43 94 43
q89 0 141 -84q48 -77 48 -192zM1285 1233q0 -188 -112 -284q-134 -115 -441 -115q-309 0 -441 90q-111 75 -111 229q0 94 57 162q70 84 201 84q129 0 194 -61q49 -46 49 -108v-95h-180v46q0 55 -63 55q-59 0 -59 -63q0 -55 47 -82q80 -45 306 -45q374 0 374 139q0 51 -52 51
q-6 0 -20.5 -2.5t-20.5 -2.5q-87 0 -87 89q0 55 55 94q49 35 106 35q87 0 142.5 -60t55.5 -156z" />
    <glyph glyph-name="uni178B" unicode="&#x178b;" horiz-adv-x="1492" 
d="M1521 1444q0 -96 -76 -174l-109 -112h-16q-53 38 -116 38q-64 0 -111 -55l5 -9q42 7 59 7q55 0 100 -24q55 -30 55 -83v-577q0 -101 -95 -156q-79 -46 -187 -46h-472q-104 0 -188 57q-95 64 -95 165v711q0 53 -42 53q-50 0 -50 -67q0 -23 37.5 -64t37.5 -77
q0 -109 -108 -109q-140 0 -140 180q0 133 92 210q78 66 187 66h117q119 0 119 -134v-653q0 -126 129 -126h238q69 0 115 28q55 34 55 98v373q0 50 -63 50q-10 0 -27.5 -4t-27.5 -4q-13 0 -22 19l-54 114l328 275h29l113 -57q14 -7 31 -7q54 0 54 46q0 37 -38 37
q-7 0 -20.5 -3t-21.5 -3q-70 0 -70 77q0 43 30 71.5t80 28.5q60 0 99 -43.5t39 -116.5z" />
    <glyph glyph-name="uni178B.sub1" 
d="M-300 -70h-685q-38 0 -38 -34v-156l326 166h46l351 -171v195zM-127 -70h-53v-307h-129l-367 171l-353 -171h-115v309q0 37 23 58t49 21h772v86h120v-87h48l39 15l21 -72z" />
    <glyph glyph-name="uni178B.sub2" 
d="M-300 -70h-400q-38 0 -38 -34v-156l198 166h46l194 -166v190zM-127 -70h-53v-307h-129l-210 171l-225 -171h-115v309q0 37 23 58t49 21h487v86h120v-87h48l39 15l21 -72z" />
    <glyph glyph-name="uni178B17B6" horiz-adv-x="2308" 
d="M2128 253h-250v812l-318 154l-224 -71h-16q-67 48 -116 48q-64 0 -111 -55l5 -9q42 7 59 7q55 0 100 -24q55 -30 55 -83v-577q0 -101 -95 -156q-79 -46 -187 -46h-472q-104 0 -188 57q-95 64 -95 165v711q0 53 -42 53q-50 0 -50 -67q0 -23 37.5 -64t37.5 -77
q0 -109 -108 -109q-140 0 -140 180q0 133 92 210q78 66 187 66h117q119 0 119 -134v-653q0 -126 129 -126h238q69 0 115 28q55 34 55 98v373q0 50 -63 50q-10 0 -27.5 -4t-27.5 -4q-13 0 -22 19l-54 114l328 275h29l113 -67q12 -7 31 -7q54 0 54 46q0 47 -38 47
q-7 0 -20.5 -3t-21.5 -3q-70 0 -70 77q0 43 30 71.5t80 28.5q60 0 99 -43.5t39 -116.5q0 -45 -12 -81l157 51h51l411 -210v-951z" />
    <glyph glyph-name="uni178B17C5.sechalf" horiz-adv-x="2308" 
d="M2161 1463q0 -115 -33 -297v-913h-250v812l-318 154l-224 -71h-16q-67 48 -116 48q-64 0 -111 -55l5 -9q42 7 59 7q55 0 100 -24q55 -30 55 -83v-577q0 -101 -95 -156q-79 -46 -187 -46h-472q-104 0 -188 57q-95 64 -95 165v711q0 53 -42 53q-50 0 -50 -67
q0 -23 37.5 -64t37.5 -77q0 -109 -108 -109q-140 0 -140 180q0 133 92 210q78 66 187 66h117q119 0 119 -134v-653q0 -126 129 -126h238q69 0 115 28q55 34 55 98v373q0 50 -63 50q-10 0 -27.5 -4t-27.5 -4q-13 0 -22 19l-54 114l328 275h29l113 -67q12 -7 31 -7q54 0 54 46
q0 47 -38 47q-7 0 -20.5 -3t-21.5 -3q-70 0 -70 77q0 43 30 71.5t80 28.5q60 0 99 -43.5t39 -116.5q0 -45 -12 -81l157 51h51l291 -149q26 65 26 139q0 118 -52 118q-8 0 -26.5 -2t-30.5 -2q-32 0 -54.5 26.5t-22.5 62.5q0 51 30 89q35 43 94 43q89 0 141 -84
q48 -77 48 -192z" />
    <glyph glyph-name="uni178C" unicode="&#x178c;" horiz-adv-x="1672" 
d="M1492 214l-44 -45h-154l-52 45v94q-56 -55 -155 -55h-618q-107 0 -189 43q-100 52 -100 147v103q0 155 311 229l678 161q73 17 73 88v109l-55 48l-334 -95h-33l-335 95l-55 -48v-176q0 -37 42 -37q53 0 53 38q0 12 -35 24.5t-35 51.5q0 77 97 77q99 0 99 -94
q0 -184 -248 -184h-127q-40 0 -68 28t-28 67v288l221 166h41l394 -130l394 130h41l221 -166v-207q0 -185 -289 -253l-662 -155q-111 -26 -111 -63v-24q0 -49 81 -49h511q71 0 137 32q83 40 83 109v32l46 32h160l44 -32v-424z" />
    <glyph glyph-name="uni178C.sub1" 
d="M-291 -418v63q-22 -34 -52 -48.5t-51 -14.5h-576q-50 0 -80.5 20.5t-30.5 64.5v39q0 26 42 46.5t141 35.5l475 73q48 10 71 14.5t38 12.5t19 17t4 17v40l-64 48l-272 -92h-18l-294 95l-31 -26v-122q4 -6 12.5 -9t14.5 -3q12 0 23 9t11 18q0 5 -6.5 6.5t-15 4.5t-15 11.5
t-6.5 28.5q0 23 12 35.5t31 12.5q20 0 31 -14t11 -40q0 -49 -40.5 -82t-94.5 -33q-37 0 -58 21.5t-21 53.5v108l115 104h53l303 -104l283 104h50l97 -90v-79q0 -29 -19 -58t-68 -47t-172 -38l-491 -72q-40 -8 -40 -27q0 -17 26 -21.5t74 -4.5h489q38 0 64 23.5t26 53.5v19
h111v-174h-111z" />
    <glyph glyph-name="uni178C.sub2" 
d="M-291 -418v63q-22 -34 -52 -48.5t-51 -14.5h-356q-50 0 -80.5 20.5t-30.5 64.5v39q0 26 42 46.5t141 40.5l255 57q49 12 72.5 20t37.5 17t18 18t4 17v40l-64 48l-157 -92h-18l-189 95l-31 -26v-122q4 -6 12.5 -9t14.5 -3q12 0 23 9t11 18q0 5 -6.5 6.5t-15 4.5t-15 11.5
t-6.5 28.5q0 23 12 35.5t31 12.5q20 0 31 -14t11 -40q0 -49 -40.5 -82t-94.5 -33q-37 0 -58 21.5t-21 53.5v108l115 104h53l198 -104l168 104h50l97 -90v-79q0 -29 -19 -56.5t-68 -47t-157 -44.5l-286 -63q-40 -12 -40 -31q0 -17 26 -21.5t74 -4.5h269q38 0 64 23.5t26 53.5
v19h111v-174h-111z" />
    <glyph glyph-name="uni178C17B6" horiz-adv-x="2331" 
d="M2151 253h-250v812l-284 154l-125 -41v-169q0 -185 -289 -253l-662 -155q-111 -26 -111 -63v-24q0 -49 81 -49h511q71 0 137 32q83 40 83 109v32l46 32h160l44 -32v-424l-44 -45h-155l-52 45v94q-56 -55 -154 -55h-618q-107 0 -189 43q-100 52 -100 147v103
q0 155 311 229l678 161q73 17 73 88v109l-55 48l-334 -95h-33l-335 95l-55 -48v-176q0 -37 42 -37q53 0 53 38q0 12 -35 24.5t-35 51.5q0 77 97 77q99 0 99 -94q0 -184 -248 -184h-127q-40 0 -68 28t-28 67v288l221 166h41l394 -130l394 130h41l109 -82l329 114h51l391 -210
v-951z" />
    <glyph glyph-name="uni178C17C5.sechalf" horiz-adv-x="2331" 
d="M2184 1463q0 -115 -33 -297v-913h-250v812l-284 154l-125 -41v-169q0 -185 -289 -253l-662 -155q-111 -26 -111 -63v-24q0 -49 81 -49h511q71 0 137 32q83 40 83 109v32l46 32h160l44 -32v-424l-44 -45h-154l-52 45v94q-56 -55 -155 -55h-618q-107 0 -189 43
q-100 52 -100 147v103q0 155 311 229l678 161q73 17 73 88v109l-55 48l-334 -95h-33l-335 95l-55 -48v-176q0 -37 42 -37q53 0 53 38q0 12 -35 24.5t-35 51.5q0 77 97 77q99 0 99 -94q0 -184 -248 -184h-127q-40 0 -68 28t-28 67v288l221 166h41l394 -130l394 130h41
l109 -82l329 114h51l272 -146q25 64 25 136q0 118 -52 118q-8 0 -26.5 -2t-30.5 -2q-32 0 -54.5 26.5t-22.5 62.5q0 51 30 89q35 43 94 43q89 0 141 -84q48 -77 48 -192z" />
    <glyph glyph-name="uni178D" unicode="&#x178d;" horiz-adv-x="1998" 
d="M1967 1300l-111 -153q-69 49 -146 49q-64 0 -111 -55l5 -9q42 7 59 7q55 0 100 -24q55 -30 55 -83v-779h-250q-43 99 -115 192q-80 106 -151 140v-224q0 -107 -84 -107h-166q-119 0 -203 84.5t-84 203.5t84 202t203 83v183q0 154 -134 154q-121 0 -224 -125
q-90 125 -219 125q-49 0 -87 -27t-38 -68q0 -48 32 -95q24 -29 48 -59v-470q0 -53 42 -53q50 0 50 67q0 23 -37.5 64t-37.5 77q0 109 108 109q140 0 140 -180q0 -133 -91 -210q-79 -66 -188 -66h-117q-119 0 -119 134v528q-80 98 -80 211q0 120 128 193q101 57 212 57
q143 0 254 -79q106 79 246 79q148 0 248 -69q114 -78 114 -220v-271q179 -69 266 -200v348q0 50 -63 50q-10 0 -27.5 -4t-27.5 -4q-13 0 -22 19l-54 114l328 275h29l153 -77q14 -7 30 -7q25 0 33 2zM1052 465v151q-31 0 -53.5 -22t-22.5 -53t22.5 -53.5t53.5 -22.5z" />
    <glyph glyph-name="uni178D.sub1" horiz-adv-x="630" 
d="M599 1300l-111 -153q-69 49 -146 49q-64 0 -111 -55l5 -9q42 7 59 7q55 0 100 -24q55 -30 55 -83v-1454h-250q-56 171 -208 233v-125q0 -107 -84 -107h-166q-267 0 -267 203q0 102 74 157q71 53 193 53v13q0 76 -104 76q-96 0 -194 -97q-85 97 -222 97q-142 0 -142 -87
q0 -42 20 -68q2 -2 40 -36v-140q0 -53 42 -53q50 0 50 47q0 24 -37.5 59t-37.5 67q0 96 108 96q130 0 130 -152q0 -123 -87 -185q-71 -51 -182 -51h-117q-119 0 -119 134v159q-60 72 -60 150q0 119 129 179q94 43 213 43q168 0 272 -74q99 74 236 74q312 0 312 -241v-29
q137 -29 208 -109v1100q0 50 -63 50q-10 0 -27.5 -4t-27.5 -4q-13 0 -22 19l-54 114l328 275h29l153 -77q14 -7 30 -7q25 0 33 2zM-258 -270v111q-76 0 -76 -60q0 -51 76 -51z" />
    <glyph glyph-name="uni178D.sub2" horiz-adv-x="630" 
d="M599 1300l-111 -153q-69 49 -146 49q-64 0 -111 -55l5 -9q42 7 59 7q55 0 100 -24q55 -30 55 -83v-1454h-250q-56 171 -208 233v-125q0 -107 -84 -107h-166q-267 0 -267 203q0 102 74 157q71 53 193 53v13q0 76 -104 76q-96 0 -194 -97q-85 97 -222 97q-142 0 -142 -87
q0 -42 20 -68q2 -2 40 -36v-140q0 -53 42 -53q50 0 50 47q0 24 -37.5 59t-37.5 67q0 96 108 96q130 0 130 -152q0 -123 -87 -185q-71 -51 -182 -51h-117q-119 0 -119 134v159q-60 72 -60 150q0 119 129 179q94 43 213 43q168 0 272 -74q99 74 236 74q312 0 312 -241v-29
q137 -29 208 -109v1100q0 50 -63 50q-10 0 -27.5 -4t-27.5 -4q-13 0 -22 19l-54 114l328 275h29l153 -77q14 -7 30 -7q25 0 33 2zM-258 -270v111q-76 0 -76 -60q0 -51 76 -51z" />
    <glyph glyph-name="uni178D17B6" horiz-adv-x="2667" 
d="M2487 253h-250v812l-354 154l-173 -57q-48 -16 -66 -23q-33 -14 -45 -28l5 -9q42 7 59 7q55 0 100 -24q55 -30 55 -83v-749h-250q-43 99 -115 192q-80 106 -151 140v-224q0 -107 -84 -107h-166q-119 0 -203 84.5t-84 203.5t84 202t203 83v183q0 154 -134 154
q-121 0 -224 -125q-90 125 -219 125q-49 0 -87 -27t-38 -68q0 -48 32 -95q24 -29 48 -59v-470q0 -53 42 -53q50 0 50 67q0 23 -37.5 64t-37.5 77q0 109 108 109q140 0 140 -180q0 -133 -91 -210q-79 -66 -188 -66h-117q-119 0 -119 134v528q-80 98 -80 211q0 121 128 193
q101 57 212 57q143 0 254 -79q106 79 246 79q148 0 248 -69q114 -78 114 -220v-271q179 -69 266 -200v318q0 50 -57 50q-10 0 -26 -3.5t-26 -3.5q-18 0 -22 19l-48 208l586 210h51l461 -210v-951zM1052 465v151q-31 0 -53.5 -22t-22.5 -53t22.5 -53.5t53.5 -22.5z" />
    <glyph glyph-name="uni178D17B6.sub1" horiz-adv-x="1299" 
d="M1119 253h-250v812l-354 154l-173 -57q-48 -16 -66 -23q-33 -14 -45 -28l5 -9q42 7 59 7q55 0 100 -24q55 -31 55 -83v-1424h-250q-56 171 -208 233v-125q0 -107 -84 -107h-166q-267 0 -267 203q0 102 74 157q71 53 193 53v13q0 76 -104 76q-96 0 -194 -97
q-85 97 -222 97q-142 0 -142 -87q0 -42 20 -68q2 -2 40 -36v-140q0 -53 42 -53q50 0 50 47q0 24 -37.5 59t-37.5 67q0 96 108 96q130 0 130 -152q0 -123 -87 -185q-71 -51 -182 -51h-117q-119 0 -119 134v159q-60 72 -60 150q0 119 129 179q94 43 213 43q168 0 272 -74
q99 74 236 74q312 0 312 -241v-29q137 -29 208 -109v1070q0 50 -57 50q-10 0 -26 -3.5t-26 -3.5q-18 0 -22 19l-48 208l586 210h51l461 -210v-951zM-258 -270v111q-76 0 -76 -60q0 -51 76 -51z" />
    <glyph glyph-name="uni178D17B6.sub2" horiz-adv-x="1299" 
d="M1119 253h-250v812l-354 154l-173 -57q-48 -16 -66 -23q-33 -14 -45 -28l5 -9q42 7 59 7q55 0 100 -24q55 -31 55 -83v-1424h-250q-56 171 -208 233v-125q0 -107 -84 -107h-166q-267 0 -267 203q0 102 74 157q71 53 193 53v13q0 76 -104 76q-96 0 -194 -97
q-85 97 -222 97q-142 0 -142 -87q0 -42 20 -68q2 -2 40 -36v-140q0 -53 42 -53q50 0 50 47q0 24 -37.5 59t-37.5 67q0 96 108 96q130 0 130 -152q0 -123 -87 -185q-71 -51 -182 -51h-117q-119 0 -119 134v159q-60 72 -60 150q0 119 129 179q94 43 213 43q168 0 272 -74
q99 74 236 74q312 0 312 -241v-29q137 -29 208 -109v1070q0 50 -57 50q-10 0 -26 -3.5t-26 -3.5q-18 0 -22 19l-48 208l586 210h51l461 -210v-951zM-258 -270v111q-76 0 -76 -60q0 -51 76 -51z" />
    <glyph glyph-name="uni178D17C5.sechalf" horiz-adv-x="2667" 
d="M2520 1463q0 -115 -33 -297v-913h-250v812l-354 154l-173 -57q-48 -16 -66 -23q-33 -14 -45 -28l5 -9q42 7 59 7q55 0 100 -24q55 -30 55 -83v-749h-250q-43 99 -115 192q-80 106 -151 140v-224q0 -107 -84 -107h-166q-119 0 -203 84.5t-84 203.5t84 202t203 83v183
q0 154 -134 154q-121 0 -224 -125q-90 125 -219 125q-49 0 -87 -27t-38 -68q0 -48 32 -95q24 -29 48 -59v-470q0 -53 42 -53q50 0 50 67q0 23 -37.5 64t-37.5 77q0 109 108 109q140 0 140 -180q0 -133 -91 -210q-79 -66 -188 -66h-117q-119 0 -119 134v528q-80 98 -80 211
q0 121 128 193q101 57 212 57q143 0 254 -79q106 79 246 79q148 0 248 -69q114 -78 114 -220v-271q179 -69 266 -200v318q0 50 -57 50q-10 0 -26 -3.5t-26 -3.5q-18 0 -22 19l-48 208l586 210h51l339 -154q28 65 28 144q0 118 -52 118q-8 0 -26.5 -2t-30.5 -2
q-32 0 -54.5 26.5t-22.5 62.5q0 51 30 89q35 43 94 43q89 0 141 -84q48 -77 48 -192zM1052 465v151q-31 0 -53.5 -22t-22.5 -53t22.5 -53.5t53.5 -22.5z" />
    <glyph glyph-name="uni178D17C5.sub1sechalf" horiz-adv-x="1299" 
d="M1152 1463q0 -115 -33 -297v-913h-250v812l-354 154l-173 -57q-48 -16 -66 -23q-33 -14 -45 -28l5 -9q42 7 59 7q55 0 100 -24q55 -31 55 -83v-1424h-250q-56 171 -208 233v-125q0 -107 -84 -107h-166q-267 0 -267 203q0 102 74 157q71 53 193 53v13q0 76 -104 76
q-96 0 -194 -97q-85 97 -222 97q-142 0 -142 -87q0 -42 20 -68q2 -2 40 -36v-140q0 -53 42 -53q50 0 50 47q0 24 -37.5 59t-37.5 67q0 96 108 96q130 0 130 -152q0 -123 -87 -185q-71 -51 -182 -51h-117q-119 0 -119 134v159q-60 72 -60 150q0 119 129 179q94 43 213 43
q168 0 272 -74q99 74 236 74q312 0 312 -241v-29q137 -29 208 -109v1070q0 50 -57 50q-10 0 -26 -3.5t-26 -3.5q-18 0 -22 19l-48 208l586 210h51l339 -154q28 65 28 144q0 118 -52 118q-8 0 -26.5 -2t-30.5 -2q-32 0 -54.5 26.5t-22.5 62.5q0 51 30 89q35 43 94 43
q89 0 141 -84q48 -77 48 -192zM-258 -270v111q-76 0 -76 -60q0 -51 76 -51z" />
    <glyph glyph-name="uni178D17C5.sub2sechalf" horiz-adv-x="1299" 
d="M1152 1463q0 -115 -33 -297v-913h-250v812l-354 154l-173 -57q-48 -16 -66 -23q-33 -14 -45 -28l5 -9q42 7 59 7q55 0 100 -24q55 -31 55 -83v-1424h-250q-56 171 -208 233v-125q0 -107 -84 -107h-166q-267 0 -267 203q0 102 74 157q71 53 193 53v13q0 76 -104 76
q-96 0 -194 -97q-85 97 -222 97q-142 0 -142 -87q0 -42 20 -68q2 -2 40 -36v-140q0 -53 42 -53q50 0 50 47q0 24 -37.5 59t-37.5 67q0 96 108 96q130 0 130 -152q0 -123 -87 -185q-71 -51 -182 -51h-117q-119 0 -119 134v159q-60 72 -60 150q0 119 129 179q94 43 213 43
q168 0 272 -74q99 74 236 74q312 0 312 -241v-29q137 -29 208 -109v1070q0 50 -57 50q-10 0 -26 -3.5t-26 -3.5q-18 0 -22 19l-48 208l586 210h51l339 -154q28 65 28 144q0 118 -52 118q-8 0 -26.5 -2t-30.5 -2q-32 0 -54.5 26.5t-22.5 62.5q0 51 30 89q35 43 94 43
q89 0 141 -84q48 -77 48 -192zM-258 -270v111q-76 0 -76 -60q0 -51 76 -51z" />
    <glyph glyph-name="uni178E" unicode="&#x178e;" horiz-adv-x="2464" 
d="M2284 253h-250v786q0 128 -169 128h-21q-168 0 -168 -128v-786h-250l-194 155l-194 -155h-250v786q0 128 -168 128h-21q-169 0 -169 -128v-594q0 -53 42 -53q50 0 50 67q0 23 -37.5 64t-37.5 77q0 109 108 109q140 0 140 -180q0 -133 -91 -210q-79 -66 -188 -66h-117
q-119 0 -119 134v766q0 113 103 174q87 52 209 52h234q122 0 209 -53q103 -63 103 -176v-665l194 175l194 -175v665q0 113 103 176q87 53 209 53h234q122 0 209 -53q103 -63 103 -176v-897z" />
    <glyph glyph-name="uni178E.sub1" 
d="M-1241 -145v-168q6 -15 15 -18.5t18 -3.5q21 0 34.5 14t13.5 41q0 29 -10.5 38t-23 13.5t-23 14.5t-10.5 29q0 24 15 42.5t54 18.5q40 0 57.5 -26.5t17.5 -75.5q0 -30 -7.5 -66.5t-36.5 -71.5q-30 -34 -69.5 -46t-66.5 -12h-26q-21 0 -38 18t-19 43v243q0 39 22 70.5
t63 56t81.5 34t72.5 9.5q25 0 58 -5t73.5 -21.5t70.5 -51.5t30 -92v-183l119 98l118 -98v183q0 39 22 70.5t54 53.5t69.5 34t81.5 12q39 0 72 -6.5t69.5 -25.5t63 -52t26.5 -86v-301h-104v276q0 30 -12 49.5t-42.5 37.5t-72.5 18q-48 0 -85.5 -28t-37.5 -79v-274h-104
l-118 100l-119 -100h-103v276q0 58 -40 81.5t-91 23.5q-60 0 -96 -28.5t-36 -78.5z" />
    <glyph glyph-name="uni178E.sub2" 
d="M-977 -145v-168q6 -15 14 -18.5t17 -3.5q21 0 34.5 14t13.5 41q0 29 -10.5 38t-20 13.5t-18.5 14.5t-9 29q0 24 16 42.5t44 18.5q26 0 42.5 -26.5t16.5 -75.5q0 -30 -7.5 -66.5t-34.5 -71.5q-32 -34 -62.5 -46t-57.5 -12h-26q-21 0 -38 18t-19 43v243q0 39 17.5 70.5
t48.5 56t66 34t67 9.5q40 0 62.5 -5t52.5 -21.5t53.5 -51.5t23.5 -92v-183l67 78l66 -78v183q0 39 18.5 73.5t50.5 56.5t60.5 31t57.5 9q31 0 56 -4t59 -24t55 -54.5t21 -87.5v-301h-104v276q0 30 -6 50t-24.5 37.5t-56.5 17.5q-35 0 -59 -28t-24 -79v-274h-104l-66 80
l-67 -80h-103v276q0 50 -22 77.5t-64 27.5q-45 0 -71 -28.5t-26 -78.5z" />
    <glyph glyph-name="uni178E17B6" horiz-adv-x="3072" 
d="M2892 253h-250v786q0 128 -169 128h-21q-168 0 -168 -128v-786h-250v786q0 128 -169 128h-21q-168 0 -168 -128v-786h-250l-194 155l-194 -155h-250v786q0 128 -168 128h-21q-169 0 -169 -128v-594q0 -53 42 -53q50 0 50 67q0 23 -37.5 64t-37.5 77q0 109 108 109
q140 0 140 -180q0 -133 -91 -210q-79 -66 -188 -66h-117q-119 0 -119 134v766q0 113 103 175q86 51 209 51h234q122 0 209 -53q103 -63 103 -176v-665l194 175l194 -175v665q0 113 103 176q87 53 209 53h234q127 0 187 -81q59 81 187 81h234q122 0 209 -53q103 -63 103 -176
v-897z" />
    <glyph glyph-name="uni178E17C5.sechalf" horiz-adv-x="3072" 
d="M2925 1463q0 -145 -33 -327v-883h-250v786q0 128 -169 128h-21q-168 0 -168 -128v-786h-250v786q0 128 -169 128h-21q-168 0 -168 -128v-786h-250l-194 155l-194 -155h-250v786q0 128 -168 128h-21q-169 0 -169 -128v-594q0 -53 42 -53q50 0 50 67q0 23 -37.5 64
t-37.5 77q0 109 108 109q140 0 140 -180q0 -133 -91 -210q-79 -66 -188 -66h-117q-119 0 -119 134v766q0 113 103 175q86 51 209 51h234q122 0 209 -53q103 -63 103 -176v-665l194 175l194 -175v665q0 113 103 176q87 53 209 53h234q127 0 187 -81q59 81 187 81h234
q122 0 209 -53q9 44 9 78q0 118 -52 118q-8 0 -26.5 -2t-30.5 -2q-32 0 -54.5 26.5t-22.5 62.5q0 51 30 89q35 43 94 43q89 0 141 -84q48 -77 48 -192z" />
    <glyph glyph-name="uni178F" unicode="&#x178f;" horiz-adv-x="1689" 
d="M1638 1232l-136 -187h-60l-339 151l-233 -151h-69l-386 151l-109 -63v-29l297 -118h622q108 0 188 -47q96 -55 96 -155v-531h-250v395q0 65 -56 98q-46 28 -114 28h-500q-63 0 -108 -32q-51 -37 -51 -96v-201q0 -53 42 -53q50 0 50 67q0 23 -37.5 64t-37.5 77
q0 109 108 109q140 0 140 -180q0 -133 -91 -210q-79 -66 -188 -66h-117q-119 0 -119 134v403q0 119 106 164l-213 76v141l400 243h69l370 -164l244 164h64l279 -123q16 -7 46 -7q28 0 54 9z" />
    <glyph glyph-name="uni178F.sub1" 
d="M-891 -199q45 0 78.5 -33t33.5 -78q0 -22 -9 -42.5t-24.5 -36t-36 -24.5t-42.5 -9h-97q-61 0 -85 30.5t-24 100.5v287q0 33 6 52.5t17.5 30.5t29.5 18t45 7h723q28 0 45.5 -7t28 -17t16.5 -23.5t6 -33.5v-444h-114v402q0 26 -42 26h-603q-44 0 -44 -26v-180h92z
M-983 -311q0 -30 22.5 -52.5t54.5 -22.5q30 0 52.5 22.5t22.5 52.5q0 33 -23.5 54.5t-51.5 21.5q-29 0 -53 -18.5t-24 -57.5z" />
    <glyph glyph-name="uni178F.sub2" 
d="M-651 -199q45 0 78.5 -33t33.5 -78q0 -22 -9 -42.5t-24.5 -36t-36 -24.5t-42.5 -9h-97q-61 0 -85 30.5t-24 100.5v287q0 33 6 52.5t17.5 30.5t29.5 18t45 7h483q28 0 45.5 -7t28 -17t16.5 -23.5t6 -33.5v-444h-114v402q0 26 -42 26h-363q-44 0 -44 -26v-180h92z
M-743 -311q0 -30 22.5 -52.5t54.5 -22.5q30 0 52.5 22.5t22.5 52.5q0 33 -23.5 54.5t-51.5 21.5q-29 0 -53 -18.5t-24 -57.5z" />
    <glyph glyph-name="uni178F17B6" horiz-adv-x="2353" 
d="M2173 253h-250v792l-522 151l-276 -151h-96l-614 151l-109 -63v-29l297 -118h622q108 0 188 -47q96 -55 96 -155v-531h-250v395q0 65 -56 98q-46 28 -114 28h-500q-63 0 -108 -32q-51 -37 -51 -96v-201q0 -53 42 -53q50 0 50 67q0 23 -37.5 64t-37.5 77q0 109 108 109
q140 0 140 -180q0 -133 -91 -210q-79 -66 -188 -66h-117q-119 0 -119 134v403q0 119 106 164l-213 75v142l400 243h69l610 -164l289 164h51l681 -210v-951z" />
    <glyph glyph-name="uni178F17C5.sechalf" horiz-adv-x="2353" 
d="M2206 1463q0 -115 -33 -297v-913h-250v792l-522 151l-276 -151h-96l-614 151l-109 -63v-29l297 -118h622q108 0 188 -47q96 -55 96 -155v-531h-250v395q0 65 -56 98q-46 28 -114 28h-500q-63 0 -108 -32q-51 -37 -51 -96v-201q0 -53 42 -53q50 0 50 67q0 23 -37.5 64
t-37.5 77q0 109 108 109q140 0 140 -180q0 -133 -91 -210q-79 -66 -188 -66h-117q-119 0 -119 134v403q0 119 106 164l-213 75v142l400 243h69l610 -164l289 164h51l551 -170q36 65 36 160q0 118 -52 118q-8 0 -26.5 -2t-30.5 -2q-32 0 -54.5 26.5t-22.5 62.5q0 51 30 89
q35 43 94 43q89 0 141 -84q48 -77 48 -192z" />
    <glyph glyph-name="uni1790" unicode="&#x1790;" horiz-adv-x="1515" 
d="M1335 455q0 -101 -95 -156q-79 -46 -187 -46h-606q-93 0 -174 52q-93 59 -93 147v470l-137 113v151l430 228h69l292 -153q126 -66 221 -66q141 0 141 94q0 56 -52 56q-6 0 -20.5 -2.5t-20.5 -2.5q-87 0 -87 89q0 57 39 93t92 36q84 0 136 -57.5t52 -138.5
q0 -161 -82 -265q-90 -114 -250 -114q-153 0 -265 55l-323 158l-139 -76v-24l154 -124v-382q0 -60 51 -95q45 -30 108 -30h326q69 0 115 28q55 34 55 98v169q0 52 -42 52q-50 0 -50 -57q0 -15 37.5 -49t37.5 -72q0 -99 -108 -99q-140 0 -140 160q0 121 92 188q78 58 187 58
h117q119 0 119 -134v-352z" />
    <glyph glyph-name="uni1790.sub1" 
d="M-525 -199q-144 212 -262 212q-63 0 -95 -16.5t-51 -43.5t-25 -55.5t-6 -49.5q0 -65 42.5 -102.5t104.5 -37.5q42 0 67.5 14.5t25.5 45.5t-33 60l12 14q29 -7 49 -16.5t42.5 -32.5t22.5 -57q0 -36 -27.5 -63.5t-65.5 -40t-104 -12.5q-61 1 -105.5 17.5t-75 43.5t-49.5 67
t-19 103q0 60 21 107t60 79.5t88.5 49t115.5 16.5q49 0 88.5 -13.5t72.5 -35.5t60 -47.5t60 -70.5q107 -155 176.5 -217.5t109.5 -62.5q21 0 33 -11t12 -29q0 -20 -20 -30t-59 -10q-102 0 -266 225z" />
    <glyph glyph-name="uni1790.sub2" 
d="M-449 -199q-84 212 -201 212q-42 0 -69.5 -15.5t-46 -43.5t-23.5 -56.5t-5 -49.5q0 -65 30 -102.5t72 -37.5q27 0 47.5 14.5t20.5 45.5t-33 60l12 14q29 -7 49 -16.5t42.5 -32.5t22.5 -57q0 -36 -23.5 -63.5t-55.5 -40t-84 -12.5q-53 1 -89 17.5t-62.5 43.5t-43.5 67
t-17 103q0 60 22 107.5t59.5 79.5t82 48.5t90.5 16.5q49 0 81 -10.5t60 -32t50 -47t50 -77.5q72 -155 108 -217.5t78 -62.5q21 0 33 -11t12 -29q0 -20 -20 -30t-59 -10q-92 0 -190 225z" />
    <glyph glyph-name="uni179017B6" horiz-adv-x="2308" 
d="M2128 253h-250v812l-122 86l-421 -463v-233q0 -101 -95 -156q-79 -46 -187 -46h-606q-93 0 -174 52q-93 59 -93 147v470l-137 113v151l430 228h69l292 -153q126 -66 221 -66q141 0 141 94q0 56 -52 56q-6 0 -20.5 -2.5t-20.5 -2.5q-87 0 -87 89q0 57 39 93t92 36
q84 0 136 -57.5t52 -138.5q0 -161 -82 -265q-90 -114 -250 -114q-153 0 -265 55l-323 158l-139 -76v-24l154 -124v-382q0 -60 51 -95q45 -30 108 -30h326q69 0 115 28q55 34 55 98v169q0 52 -42 52q-50 0 -50 -57q0 -15 37.5 -49t37.5 -72q0 -99 -108 -99q-140 0 -140 160
q0 121 92 188q78 58 187 58h117q31 0 54 -11l456 484h81l321 -210v-951z" />
    <glyph glyph-name="uni179017C5.sechalf" horiz-adv-x="2308" 
d="M2161 1463q0 -115 -33 -297v-913h-250v812l-122 86l-421 -463v-233q0 -101 -95 -156q-79 -46 -187 -46h-606q-93 0 -174 52q-93 59 -93 147v470l-137 113v151l430 228h69l292 -153q126 -66 221 -66q141 0 141 94q0 56 -52 56q-6 0 -20.5 -2.5t-20.5 -2.5q-87 0 -87 89
q0 57 39 93t92 36q84 0 136 -57.5t52 -138.5q0 -161 -82 -265q-90 -114 -250 -114q-153 0 -265 55l-323 158l-139 -76v-24l154 -124v-382q0 -60 51 -95q45 -30 108 -30h326q69 0 115 28q55 34 55 98v169q0 52 -42 52q-50 0 -50 -57q0 -15 37.5 -49t37.5 -72q0 -99 -108 -99
q-140 0 -140 160q0 121 92 188q78 58 187 58h117q31 0 54 -11l456 484h81l206 -135q21 62 21 125q0 118 -52 118q-8 0 -26.5 -2t-30.5 -2q-32 0 -54.5 26.5t-22.5 62.5q0 51 30 89q35 43 94 43q89 0 141 -84q48 -77 48 -192z" />
    <glyph glyph-name="uni1791" unicode="&#x1791;" horiz-adv-x="1582" 
d="M1402 928q0 -39 -28 -67t-68 -28h-127q-248 0 -248 194q0 104 99 104q97 0 97 -87q0 -39 -35 -54t-35 -27q0 -43 53 -43q42 0 42 37v146q0 68 -87 68h-525q-110 0 -110 -78v-84q0 -65 50 -85l527 -209h45q38 80 141 80q61 0 100 -43q34 -38 34 -85q0 -98 -85 -133v-91
q0 -95 -100 -147q-82 -43 -189 -43h-328q-118 0 -198 46q-97 56 -97 164v110l44 27h160l46 -27v-17q0 -91 117 -91h214q81 0 81 49v20h-36l-510 190q-116 43 -151 66q-115 74 -115 194v179q0 106 99 167q85 52 199 52h638q99 0 187 -54q99 -61 99 -152v-248z" />
    <glyph glyph-name="uni1791.sub1" 
d="M-294 -392v151q-30 -42 -82.5 -69.5t-106.5 -27.5h-269q-36 0 -67.5 9.5t-54.5 26t-36 38.5t-13 46v105q0 48 38 80t101.5 44t152 15.5t194.5 10.5q28 2 48 5t38 8t30.5 11t19.5 13.5t7 19.5v67h114v-82q0 -27 -19 -49.5t-49.5 -39t-69 -28t-75.5 -15.5
q-42 -5 -89.5 -7.5t-94.5 -5t-91.5 -5.5t-79 -10.5t-54.5 -23t-20 -43.5v-24q0 -27 20 -52.5t53 -25.5h263q38 0 71 13.5t61 37t44 51t16 50.5v16h114v-310h-114z" />
    <glyph glyph-name="uni1791.sub2" 
d="M-294 -392v151q-30 -42 -82.5 -69.5t-106.5 -27.5h-194q-36 0 -67.5 9.5t-54.5 26t-36 38.5t-13 46v105q0 48 38 80t101.5 44t112 15.5t159.5 10.5q28 2 48 5t38 8t30.5 11t19.5 13.5t7 19.5v67h114v-82q0 -27 -19 -49.5t-49.5 -39t-69 -28t-75.5 -15.5
q-42 -5 -89.5 -7.5t-101.5 -8t-88.5 -13t-54.5 -23t-20 -43.5v-24q0 -27 20 -52.5t53 -25.5h188q38 0 71 13.5t61 37t44 51t16 50.5v16h114v-310h-114z" />
    <glyph glyph-name="uni179117B6" horiz-adv-x="2262" 
d="M2082 253h-250v812l-284 154l-146 -49v-242q0 -39 -28 -67t-68 -28h-127q-248 0 -248 194q0 104 99 104q97 0 97 -87q0 -39 -35 -54t-35 -27q0 -43 53 -43q42 0 42 37v146q0 68 -87 68h-525q-110 0 -110 -78v-84q0 -65 50 -85l527 -209h45q38 80 141 80q61 0 100 -43
q34 -38 34 -85q0 -98 -85 -133v-91q0 -95 -100 -147q-82 -43 -189 -43h-328q-118 0 -198 46q-97 56 -97 164v110l44 27h160l46 -27v-17q0 -91 117 -91h214q81 0 81 49v20h-36l-510 190q-116 43 -151 66q-115 74 -115 194v179q0 106 99 167q85 52 199 52h638q123 0 216 -75
l308 107h51l391 -210v-951z" />
    <glyph glyph-name="uni179117C5.sechalf" horiz-adv-x="2262" 
d="M2115 1463q0 -115 -33 -297v-913h-250v812l-284 154l-146 -49v-242q0 -39 -28 -67t-68 -28h-127q-248 0 -248 194q0 104 99 104q97 0 97 -87q0 -39 -35 -54t-35 -27q0 -43 53 -43q42 0 42 37v146q0 68 -87 68h-525q-110 0 -110 -78v-84q0 -65 50 -85l527 -209h45
q38 80 141 80q61 0 100 -43q34 -38 34 -85q0 -98 -85 -133v-91q0 -95 -100 -147q-82 -43 -189 -43h-328q-118 0 -198 46q-97 56 -97 164v110l44 27h160l46 -27v-17q0 -91 117 -91h214q81 0 81 49v20h-36l-510 190q-116 43 -151 66q-115 74 -115 194v179q0 106 99 167
q85 52 199 52h638q123 0 216 -75l308 107h51l275 -147q22 64 22 137q0 118 -52 118q-8 0 -26.5 -2t-30.5 -2q-32 0 -54.5 26.5t-22.5 62.5q0 51 30 89q35 43 94 43q89 0 141 -84q48 -77 48 -192z" />
    <glyph glyph-name="uni1792" unicode="&#x1792;" horiz-adv-x="1687" 
d="M1608 1232l-136 -187h-60l-339 151l-233 -151h-69l-386 151l-109 -63v-35l154 -124v-549l413 175l414 -175v335q0 52 -42 52q-50 0 -50 -57q0 -15 37.5 -49t37.5 -72q0 -99 -108 -99q-140 0 -140 160q0 121 92 188q78 58 187 58h117q119 0 119 -134v-554h-335l-329 135
l-328 -135h-335v669l-137 113v136l400 243h69l370 -164l244 164h64l279 -123q16 -7 46 -7q28 0 54 9z" />
    <glyph glyph-name="uni1792.sub1" 
d="M-180 -143q0 -35 -10.5 -72.5t-38.5 -69t-77.5 -52.5t-117.5 -21q-38 0 -77 9t-66.5 19t-57.5 29q-30 -17 -50 -25.5t-44 -16t-51.5 -11.5t-51.5 -4h-87q-41 0 -75.5 9t-59 23.5t-38 33t-13.5 38.5v82q0 33 27.5 52.5t60.5 29.5t96 18l599 72v26h132v-169zM-312 -88
l-579 -74q-92 -15 -92 -51v-22q0 -12 8.5 -18.5t22 -9.5t30 -4t32.5 -1h86q19 0 45 7t47 24.5t31 50.5h111q24 -46 60 -61.5t82 -15.5q39 0 63 11t34.5 27t14.5 34.5t4 33.5v69z" />
    <glyph glyph-name="uni1792.sub2" 
d="M-180 -143q0 -35 -10.5 -72.5t-36.5 -69t-70 -52.5t-89 -21q-36 0 -63.5 9t-45 20t-36.5 28q-25 -19 -43 -28t-35 -15t-38.5 -10t-52.5 -4t-60.5 9t-54 23.5t-38 33t-13.5 38.5v82q0 33 27.5 52.5t60.5 29.5t76 18l390 72v26h132v-169zM-312 -88l-370 -74
q-72 -15 -72 -51v-22q0 -12 8.5 -18.5t17 -9.5t20 -4t27.5 -1q21 0 41.5 9t33.5 24.5t19 48.5h111q8 -43 26 -60t52 -17q29 0 45.5 10.5t25.5 27t12 35t3 33.5v69z" />
    <glyph glyph-name="uni179217B6" horiz-adv-x="2323" 
d="M2143 253h-250v792l-522 151l-276 -151h-96l-614 151l-109 -63v-35l154 -124v-549l413 175l414 -175v335q0 52 -42 52q-50 0 -50 -57q0 -15 37.5 -49t37.5 -72q0 -99 -108 -99q-140 0 -140 160q0 121 92 188q78 58 187 58h117q119 0 119 -134v-554h-335l-329 135
l-328 -135h-335v669l-137 113v136l400 243h69l610 -164l289 164h51l681 -210v-951z" />
    <glyph glyph-name="uni179217C5.sechalf" horiz-adv-x="2323" 
d="M2176 1463q0 -115 -33 -297v-913h-250v792l-522 151l-276 -151h-96l-614 151l-109 -63v-35l154 -124v-549l413 175l414 -175v335q0 52 -42 52q-50 0 -50 -57q0 -15 37.5 -49t37.5 -72q0 -99 -108 -99q-140 0 -140 160q0 121 92 188q78 58 187 58h117q119 0 119 -134v-554
h-335l-329 135l-328 -135h-335v669l-137 113v136l400 243h69l610 -164l289 164h51l551 -170q36 65 36 160q0 118 -52 118q-8 0 -26.5 -2t-30.5 -2q-32 0 -54.5 26.5t-22.5 62.5q0 51 30 89q35 43 94 43q89 0 141 -84q48 -77 48 -192z" />
    <glyph glyph-name="uni1793" unicode="&#x1793;" horiz-adv-x="1672" 
d="M1492 443q0 -95 -100 -147q-82 -43 -189 -43h-349q-62 0 -149 33l-269 102v-174h-256v484l44 32h160l46 -32v-42q0 -35 34 -49l241 -97q112 -45 195 -45h261q81 0 81 49v24q0 30 -110 63l-663 200q-118 36 -163 61q-126 72 -126 192v109q0 106 99 167q85 52 199 52h728
q99 0 187 -54q99 -61 99 -152v-248q0 -39 -28 -67t-68 -28h-127q-248 0 -248 194q0 104 99 104q97 0 97 -87q0 -39 -35 -54t-35 -27q0 -43 53 -43q42 0 42 37v146q0 68 -87 68h-615q-110 0 -110 -78v-24q0 -66 73 -88l678 -206q142 -43 201 -77q110 -62 110 -152v-103z" />
    <glyph glyph-name="uni1793.sub1" 
d="M-282 -388q23 0 37 15t14 39q0 21 -15 36.5t-36 15.5t-36.5 -15t-15.5 -36q0 -24 14 -39.5t38 -15.5zM-180 -268v-106q0 -48 -43 -48h-123q-59 46 -59 123h-634l-38 37v312l53 45h619v75h71v-76h195v-89h-195v-208h123zM-1009 -23v-180h604v208h-571z" />
    <glyph glyph-name="uni1793.sub2" 
d="M-282 -388q23 0 37 15t14 39q0 21 -15 36.5t-36 15.5t-36.5 -15t-15.5 -36q0 -24 14 -39.5t38 -15.5zM-180 -268v-106q0 -48 -43 -48h-123q-59 46 -59 123h-439l-38 37v312l53 45h424v75h71v-76h195v-89h-195v-208h123zM-814 -23v-180h409v208h-376z" />
    <glyph glyph-name="uni179317B6" horiz-adv-x="2347" 
d="M2167 253h-250v812l-284 154l-141 -47v-244q0 -39 -28 -67t-68 -28h-127q-248 0 -248 194q0 104 99 104q97 0 97 -87q0 -39 -35 -54t-35 -27q0 -43 53 -43q42 0 42 37v146q0 68 -87 68h-615q-110 0 -110 -78v-24q0 -66 73 -88l678 -206q142 -43 201 -77q110 -62 110 -152
v-103q0 -95 -100 -147q-82 -43 -189 -43h-349q-62 0 -149 33l-269 102v-174h-256v484l44 32h160l46 -32v-42q0 -35 34 -49l241 -97q112 -45 195 -45h261q81 0 81 49v24q0 30 -110 63l-663 200q-118 36 -163 61q-126 72 -126 192v109q0 106 99 167q85 52 199 52h728
q121 0 214 -73l305 105h51l391 -210v-951z" />
    <glyph glyph-name="uni179317C5.sechalf" horiz-adv-x="2347" 
d="M2200 1463q0 -115 -33 -297v-913h-250v812l-284 154l-141 -47v-244q0 -39 -28 -67t-68 -28h-127q-248 0 -248 194q0 104 99 104q97 0 97 -87q0 -39 -35 -54t-35 -27q0 -43 53 -43q42 0 42 37v146q0 68 -87 68h-615q-110 0 -110 -78v-24q0 -66 73 -88l678 -206
q142 -43 201 -77q110 -62 110 -152v-103q0 -95 -100 -147q-82 -43 -189 -43h-349q-62 0 -149 33l-269 102v-174h-256v484l44 32h160l46 -32v-42q0 -35 34 -49l241 -97q112 -45 195 -45h261q81 0 81 49v24q0 30 -110 63l-663 200q-118 36 -163 61q-126 72 -126 192v109
q0 106 99 167q85 52 199 52h728q121 0 214 -73l305 105h51l272 -146q25 64 25 136q0 118 -52 118q-8 0 -26.5 -2t-30.5 -2q-32 0 -54.5 26.5t-22.5 62.5q0 51 30 89q35 43 94 43q89 0 141 -84q48 -77 48 -192z" />
    <glyph glyph-name="uni1794" unicode="&#x1794;" horiz-adv-x="1713" 
d="M1682 1300l-111 -153q-69 49 -146 49q-64 0 -111 -55l5 -9q42 7 59 7q55 0 100 -24q55 -30 55 -83v-560q0 -93 -91 -159q-82 -60 -176 -60h-798q-93 0 -173 52q-91 59 -91 147v512q0 50 -63 50q-10 0 -27.5 -4t-27.5 -4q-13 0 -22 19l-54 114l328 275h29l153 -77
q14 -7 30 -7q25 0 33 2l20 -32l-111 -153q-69 49 -146 49q-64 0 -111 -55l5 -9q42 7 59 7q54 0 100 -26q55 -32 55 -84v-436q0 -60 50 -96q44 -32 106 -32h554q119 0 119 126v373q0 50 -63 50q-10 0 -27.5 -4t-27.5 -4q-13 0 -22 19l-54 114l328 275h29l153 -77q14 -7 30 -7
q25 0 33 2z" />
    <glyph glyph-name="uni1794.sub1" horiz-adv-x="630" 
d="M599 1300l-111 -153q-69 49 -146 49q-64 0 -111 -55l5 -9q42 7 59 7q55 0 100 -24q55 -30 55 -83v-1235q0 -93 -91 -159q-82 -60 -176 -60h-134q-95 0 -185 73q-95 -73 -196 -73h-144q-103 0 -183 57q-90 64 -90 165v311q0 132 119 132h117q104 0 184 -64q89 -71 89 -182
q0 -129 -124 -129q-98 0 -98 84q0 30 27.5 65t27.5 60q0 47 -50 47q-42 0 -42 -53v-205q0 -126 119 -126h28q52 0 85 47q27 38 27 79h230q0 -43 23 -79q29 -47 81 -47h17q89 0 89 106v1118q0 50 -63 50q-10 0 -27.5 -4t-27.5 -4q-13 0 -22 19l-54 114l328 275h29l153 -77
q14 -7 30 -7q25 0 33 2z" />
    <glyph glyph-name="uni1794.sub2" horiz-adv-x="630" 
d="M599 1300l-111 -153q-69 49 -146 49q-64 0 -111 -55l5 -9q42 7 59 7q55 0 100 -24q55 -30 55 -83v-1235q0 -93 -91 -159q-82 -60 -176 -60h-134q-95 0 -185 73q-95 -73 -196 -73h-144q-103 0 -183 57q-90 64 -90 165v311q0 132 119 132h117q104 0 184 -64q89 -71 89 -182
q0 -129 -124 -129q-98 0 -98 84q0 30 27.5 65t27.5 60q0 47 -50 47q-42 0 -42 -53v-205q0 -126 119 -126h28q52 0 85 47q27 38 27 79h230q0 -43 23 -79q29 -47 81 -47h17q89 0 89 106v1118q0 50 -63 50q-10 0 -27.5 -4t-27.5 -4q-13 0 -22 19l-54 114l328 275h29l153 -77
q14 -7 30 -7q25 0 33 2z" />
    <glyph glyph-name="uni179417B6" horiz-adv-x="2323" 
d="M2143 253h-250v792l-522 151l-276 -151h-96l-614 151l-109 -63v-35l154 -124v-459q0 -50 81 -50h279q83 0 195 45l241 97q34 14 34 49v120h250v-675h-256v287l-269 -102q-87 -33 -149 -33h-367q-107 0 -189 43q-100 52 -100 147v479l-137 113v136l400 243h69l610 -164
l289 164h51l681 -210v-951z" />
    <glyph glyph-name="uni179417B6.sub1" horiz-adv-x="1299" 
d="M1119 253h-250v812l-354 154l-173 -57q-48 -16 -66 -23q-33 -14 -45 -28l5 -9q42 7 59 7q56 0 100 -22q55 -29 55 -81v-1209q0 -93 -91 -159q-82 -60 -176 -60h-134q-95 0 -185 73q-95 -73 -196 -73h-144q-103 0 -183 57q-90 64 -90 165v311q0 132 119 132h117
q104 0 184 -64q89 -71 89 -182q0 -129 -124 -129q-98 0 -98 84q0 30 27.5 65t27.5 60q0 47 -50 47q-42 0 -42 -53v-205q0 -126 119 -126h28q52 0 85 47q27 38 27 79h230q0 -43 23 -79q29 -47 81 -47h17q89 0 89 106v1088q0 50 -57 50q-10 0 -26 -3.5t-26 -3.5q-18 0 -22 19
l-48 208l586 210h51l461 -210v-951z" />
    <glyph glyph-name="uni179417B6.sub2" horiz-adv-x="1299" 
d="M1119 253h-250v812l-354 154l-173 -57q-48 -16 -66 -23q-33 -14 -45 -28l5 -9q42 7 59 7q56 0 100 -22q55 -29 55 -81v-1209q0 -93 -91 -159q-82 -60 -176 -60h-134q-95 0 -185 73q-95 -73 -196 -73h-144q-103 0 -183 57q-90 64 -90 165v311q0 132 119 132h117
q104 0 184 -64q89 -71 89 -182q0 -129 -124 -129q-98 0 -98 84q0 30 27.5 65t27.5 60q0 47 -50 47q-42 0 -42 -53v-205q0 -126 119 -126h28q52 0 85 47q27 38 27 79h230q0 -43 23 -79q29 -47 81 -47h17q89 0 89 106v1088q0 50 -57 50q-10 0 -26 -3.5t-26 -3.5q-18 0 -22 19
l-48 208l586 210h51l461 -210v-951z" />
    <glyph glyph-name="uni179417C5.sechalf" horiz-adv-x="2323" 
d="M2176 1463q0 -115 -33 -297v-913h-250v792l-522 151l-276 -151h-96l-614 151l-109 -63v-35l154 -124v-459q0 -50 81 -50h279q83 0 195 45l241 97q34 14 34 49v120h250v-675h-256v287l-269 -102q-87 -33 -149 -33h-367q-107 0 -189 43q-100 52 -100 147v479l-137 113v136
l400 243h69l610 -164l289 164h51l551 -170q36 65 36 160q0 118 -52 118q-8 0 -26.5 -2t-30.5 -2q-32 0 -54.5 26.5t-22.5 62.5q0 51 30 89q35 43 94 43q89 0 141 -84q48 -77 48 -192z" />
    <glyph glyph-name="uni179417C5.sub1sechalf" horiz-adv-x="1299" 
d="M1119 253h-250v812l-354 154l-173 -57q-48 -16 -66 -23q-33 -14 -45 -28l5 -9q42 7 59 7q56 0 100 -22q55 -29 55 -81v-1209q0 -93 -91 -159q-82 -60 -176 -60h-134q-95 0 -185 73q-95 -73 -196 -73h-144q-103 0 -183 57q-90 64 -90 165v311q0 132 119 132h117
q104 0 184 -64q89 -71 89 -182q0 -129 -124 -129q-98 0 -98 84q0 30 27.5 65t27.5 60q0 47 -50 47q-42 0 -42 -53v-205q0 -126 119 -126h28q52 0 85 47q27 38 27 79h230q0 -43 23 -79q29 -47 81 -47h17q89 0 89 106v1088q0 50 -57 50q-10 0 -26 -3.5t-26 -3.5q-18 0 -22 19
l-48 208l586 210h51l461 -210v-951z" />
    <glyph glyph-name="uni179417C5.sub2sechalf" horiz-adv-x="1299" 
d="M1152 1463q0 -115 -33 -297v-913h-250v812l-354 154l-173 -57q-48 -16 -66 -23q-33 -14 -45 -28l5 -9q42 7 59 7q56 0 100 -22q55 -29 55 -81v-1209q0 -93 -91 -159q-82 -60 -176 -60h-134q-95 0 -185 73q-95 -73 -196 -73h-144q-103 0 -183 57q-90 64 -90 165v311
q0 132 119 132h117q104 0 184 -64q89 -71 89 -182q0 -129 -124 -129q-98 0 -98 84q0 30 27.5 65t27.5 60q0 47 -50 47q-42 0 -42 -53v-205q0 -126 119 -126h28q52 0 85 47q27 38 27 79h230q0 -43 23 -79q29 -47 81 -47h17q89 0 89 106v1088q0 50 -57 50q-10 0 -26 -3.5
t-26 -3.5q-18 0 -22 19l-48 208l586 210h51l339 -154q28 65 28 144q0 118 -52 118q-8 0 -26.5 -2t-30.5 -2q-32 0 -54.5 26.5t-22.5 62.5q0 51 30 89q35 43 94 43q89 0 141 -84q48 -77 48 -192z" />
    <glyph glyph-name="uni1795" unicode="&#x1795;" horiz-adv-x="1515" 
d="M1335 1362q0 -161 -82 -265q-90 -114 -250 -114q-153 0 -265 55l-323 158l-139 -76v-24l154 -124v-542l305 130l305 -130v330q0 62 -42 62q-50 0 -50 -47q0 -15 37.5 -45t37.5 -68q0 -89 -108 -89q-140 0 -140 150q0 218 279 218h117q119 0 119 -135v-553h-315l-240 102
l-240 -102h-315v669l-137 113v151l430 228h69l292 -153q126 -66 221 -66q141 0 141 94q0 56 -52 56q-6 0 -20.5 -2.5t-20.5 -2.5q-87 0 -87 89q0 57 39 93t92 36q84 0 136 -57.5t52 -138.5z" />
    <glyph glyph-name="uni1795.sub1" 
d="M-1070 -422v517h111v-379l350 99l316 -93v262q0 14 -8 22t-23 8q-20 0 -30 -15t-10 -28q0 -9 8 -11.5t18.5 -6t19 -15t8.5 -38.5q0 -66 -56 -66q-21 0 -44 22.5t-23 64.5q0 86 43.5 130t116.5 44h28q23 0 44 -16.5t21 -41.5v-459h-113l-316 99l-350 -99h-111z" />
    <glyph glyph-name="uni1795.sub2" 
d="M-845 -422v517h111v-379l200 99l241 -93v262q0 14 -8 22t-23 8q-20 0 -30 -15t-10 -28q0 -9 8 -11.5t18.5 -6t19 -15t8.5 -38.5q0 -66 -56 -66q-21 0 -44 22.5t-23 64.5q0 86 43.5 130t116.5 44h28q23 0 44 -16.5t21 -41.5v-459h-113l-241 99l-200 -99h-111z" />
    <glyph glyph-name="uni179517B6" horiz-adv-x="2263" 
d="M2083 253h-250v812l-122 86l-421 -463v-435h-315l-240 102l-240 -102h-315v669l-137 113v151l430 228h69l292 -153q126 -66 221 -66q141 0 141 94q0 56 -52 56q-6 0 -20.5 -2.5t-20.5 -2.5q-87 0 -87 89q0 57 39 93t92 36q84 0 136 -57.5t52 -138.5q0 -161 -82 -265
q-90 -114 -250 -114q-153 0 -265 55l-323 158l-139 -76v-24l154 -124v-542l305 130l305 -130v330q0 62 -42 62q-50 0 -50 -47q0 -15 37.5 -45t37.5 -68q0 -89 -108 -89q-140 0 -140 150q0 218 279 218h117q30 0 54 -11l456 484h81l321 -210v-951z" />
    <glyph glyph-name="uni179517C5.sechalf" horiz-adv-x="2263" 
d="M2116 1463q0 -115 -33 -297v-913h-250v812l-122 86l-421 -463v-435h-315l-240 102l-240 -102h-315v669l-137 113v151l430 228h69l292 -153q126 -66 221 -66q141 0 141 94q0 56 -52 56q-6 0 -20.5 -2.5t-20.5 -2.5q-87 0 -87 89q0 57 39 93t92 36q84 0 136 -57.5
t52 -138.5q0 -161 -82 -265q-90 -114 -250 -114q-153 0 -265 55l-323 158l-139 -76v-24l154 -124v-542l305 130l305 -130v330q0 62 -42 62q-50 0 -50 -47q0 -15 37.5 -45t37.5 -68q0 -89 -108 -89q-140 0 -140 150q0 218 279 218h117q30 0 54 -11l456 484h81l206 -135
q21 62 21 125q0 118 -52 118q-8 0 -26.5 -2t-30.5 -2q-32 0 -54.5 26.5t-22.5 62.5q0 51 30 89q35 43 94 43q89 0 141 -84q48 -77 48 -192z" />
    <glyph glyph-name="uni1796" unicode="&#x1796;" horiz-adv-x="1747" 
d="M1567 253h-250v812l-242 131l-276 -151h-96l-294 151l-109 -63v-29q130 -48 130 -155v-504q0 -53 42 -53q50 0 50 67q0 23 -37.5 64t-37.5 77q0 109 108 109q140 0 140 -180q0 -133 -91 -210q-79 -66 -188 -66h-117q-119 0 -119 134v510q0 51 -31.5 88t-81.5 45v141
l400 243h69l290 -164l289 164h51l401 -220v-941z" />
    <glyph glyph-name="uni1796.sub1" 
d="M-293 -419v358l-108 47l-232 -96h-39l-185 96l-105 -43v-260q12 -8 18 -8q26 0 40 15t14 30q0 6 -9 8t-19.5 9t-19.5 21t-9 41q0 32 9 49t19.5 24t19.5 10t21 3q30 0 48 -25.5t18 -66.5q0 -42 -17 -81t-41 -65.5t-59 -46t-67 -19.5h-17q-21 0 -41 18t-20 45v355l217 104
h38l189 -102l238 102h42l170 -104v-418h-113z" />
    <glyph glyph-name="uni1796.sub2" 
d="M-293 -419v358l-68 47l-147 -96h-39l-135 96l-55 -43v-260q12 -8 18 -8q26 0 40 15t14 30q0 6 -9 8t-19.5 9t-19.5 21t-9 41q0 32 9 49t19.5 24t19.5 10t21 3q30 0 48 -25.5t18 -66.5q0 -42 -17 -81t-41 -65.5t-59 -46t-67 -19.5h-17q-21 0 -41 18t-20 45v355l167 104h38
l139 -102l153 102h42l130 -104v-418h-113z" />
    <glyph glyph-name="uni179617B6" horiz-adv-x="2427" 
d="M2247 253h-250v812l-242 131l-188 -93v-850h-250v812l-242 131l-276 -151h-96l-294 151l-109 -63v-29q130 -48 130 -155v-504q0 -53 42 -53q50 0 50 67q0 23 -37.5 64t-37.5 77q0 109 108 109q140 0 140 -180q0 -133 -91 -210q-79 -66 -188 -66h-117q-119 0 -119 134v510
q0 51 -31.5 88t-81.5 45v141l400 243h69l290 -164l289 164h51l320 -164l309 164h51l401 -220v-941z" />
    <glyph glyph-name="uni179617C5.sechalf" horiz-adv-x="2427" 
d="M2280 1463q0 -115 -33 -297v-913h-250v812l-242 131l-188 -93v-850h-250v812l-242 131l-276 -151h-96l-294 151l-109 -63v-29q130 -48 130 -155v-504q0 -53 42 -53q50 0 50 67q0 23 -37.5 64t-37.5 77q0 109 108 109q140 0 140 -180q0 -133 -91 -210q-79 -66 -188 -66
h-117q-119 0 -119 134v510q0 51 -31.5 88t-81.5 45v141l400 243h69l290 -164l289 164h51l320 -164l309 164h51l279 -153q28 66 28 143q0 118 -52 118q-8 0 -26.5 -2t-30.5 -2q-32 0 -54.5 26.5t-22.5 62.5q0 51 30 89q35 43 94 43q89 0 141 -84q48 -77 48 -192z" />
    <glyph glyph-name="uni1797" unicode="&#x1797;" horiz-adv-x="1784" 
d="M1733 1232l-136 -187h-60l-339 151l-233 -151h-69l-386 151l-109 -63v-29l297 -118h622q108 0 188 -47q96 -55 96 -155v-531h-250v395q0 65 -56 98q-46 28 -114 28h-500q-63 0 -108 -32q-51 -36 -51 -96v-262q0 -131 -119 -131h-117q-109 0 -187 66q-92 77 -92 210
q0 180 140 180q108 0 108 -109q0 -36 -37.5 -77t-37.5 -64q0 -67 50 -67q42 0 42 53v342q0 122 106 167l-213 76v141l400 243h69l370 -164l244 164h64l279 -123q16 -7 46 -7q28 0 54 9z" />
    <glyph glyph-name="uni1797.sub1" 
d="M-983 -19v-352q-36 -50 -81 -50h-33q-48 6 -80 24t-53 44.5t-32.5 58.5t-11.5 79q0 55 24 80.5t62 25.5q36 0 51 -19.5t15 -44.5q0 -27 -11.5 -35.5t-22.5 -13t-22.5 -12.5t-11.5 -37q0 -28 15 -44t36 -16q8 0 21.5 4t20.5 17v306q0 33 6 52.5t17.5 30.5t29.5 18t45 7
h723q28 0 45.5 -8t28 -17t16.5 -22.5t6 -33.5v-444h-114v402q0 26 -42 26h-603q-44 0 -44 -26z" />
    <glyph glyph-name="uni1797.sub2" 
d="M-743 -19v-352q-36 -50 -81 -50h-33q-48 6 -80 24t-53 44.5t-32.5 58.5t-11.5 79q0 55 24 80.5t62 25.5q36 0 51 -19.5t15 -44.5q0 -27 -11.5 -35.5t-22.5 -13t-22.5 -12.5t-11.5 -37q0 -28 15 -44t36 -16q8 0 21.5 4t20.5 17v306q0 33 6 52.5t17.5 30.5t29.5 18t45 7
h483q28 0 45.5 -8t28 -17t16.5 -22.5t6 -33.5v-444h-114v402q0 26 -42 26h-363q-44 0 -44 -26z" />
    <glyph glyph-name="uni179717B6" horiz-adv-x="2448" 
d="M2268 253h-250v792l-522 151l-276 -151h-96l-614 151l-109 -63v-29l297 -118h622q108 0 188 -47q96 -55 96 -155v-531h-250v395q0 65 -56 98q-46 28 -114 28h-500q-63 0 -108 -32q-51 -36 -51 -96v-262q0 -131 -119 -131h-117q-109 0 -187 66q-92 77 -92 210
q0 180 140 180q108 0 108 -109q0 -36 -37.5 -77t-37.5 -64q0 -67 50 -67q42 0 42 53v342q0 122 106 167l-213 76v141l400 243h69l610 -164l289 164h51l681 -210v-951z" />
    <glyph glyph-name="uni179717C5.sechalf" horiz-adv-x="2448" 
d="M2301 1463q0 -115 -33 -297v-913h-250v792l-522 151l-276 -151h-96l-614 151l-109 -63v-29l297 -118h622q108 0 188 -47q96 -55 96 -155v-531h-250v395q0 65 -56 98q-46 28 -114 28h-500q-63 0 -108 -32q-51 -36 -51 -96v-262q0 -131 -119 -131h-117q-109 0 -187 66
q-92 77 -92 210q0 180 140 180q108 0 108 -109q0 -36 -37.5 -77t-37.5 -64q0 -67 50 -67q42 0 42 53v342q0 122 106 167l-213 76v141l400 243h69l610 -164l289 164h51l551 -170q36 65 36 160q0 118 -52 118q-8 0 -26.5 -2t-30.5 -2q-32 0 -54.5 26.5t-22.5 62.5q0 51 30 89
q35 43 94 43q89 0 141 -84q48 -77 48 -192z" />
    <glyph glyph-name="uni1798" unicode="&#x1798;" horiz-adv-x="1713" 
d="M1682 1300l-111 -153q-69 49 -146 49q-64 0 -111 -55l5 -9q42 7 59 7q55 0 100 -24q55 -30 55 -83v-560q0 -93 -91 -159q-82 -60 -176 -60h-798q-93 0 -173 52q-91 59 -91 147v512q0 50 -63 50q-10 0 -27.5 -4t-27.5 -4q-13 0 -22 19l-54 114l328 275h29l153 -77
q14 -7 30 -7q25 0 33 2l20 -32l-111 -153q-69 49 -146 49q-64 0 -111 -55l5 -9q42 7 59 7q54 0 100 -26q55 -32 55 -84v-159h829v94q0 50 -63 50q-10 0 -27.5 -4t-27.5 -4q-13 0 -22 19l-54 114l328 275h29l153 -77q14 -7 30 -7q25 0 33 2zM1283 591v87h-829v-85
q0 -60 50 -96q44 -32 106 -32h554q119 0 119 126z" />
    <glyph glyph-name="uni1798.sub1" 
d="M-120 -268q-1 26 -15.5 43t-30.5 17h-14v-127h17q15 0 29 20t14 47zM-46 -265q0 -34 -13.5 -62.5t-33 -49t-41 -31.5t-46.5 -11h-27q-44 0 -69.5 27t-25.5 73v95h-198q-12 -18 -30.5 -47.5t-45.5 -56.5t-61.5 -47t-76.5 -20q-50 0 -90.5 36t-75.5 79.5t-66 79.5t-59 36
q-9 0 -17.5 -3t-21.5 -9l-23 34l131 69q16 8 28 8q30 0 61.5 -29.5t63 -65.5t63 -65t63.5 -29q25 0 44.5 13.5t37.5 33.5t36 44t33 45h204v171q0 20 27 20h117v-35q-22 -21 -22 -43v-113q22 0 43 -7.5t41 -24.5t35 -45t15 -70z" />
    <glyph glyph-name="uni1798.sub2" 
d="M-120 -268q-1 26 -15.5 43t-30.5 17h-14v-127h17q15 0 29 20t14 47zM-46 -265q0 -34 -13.5 -62.5t-33 -49t-41 -31.5t-46.5 -11h-27q-44 0 -69.5 27t-25.5 73v95h-13q-12 -18 -30.5 -47.5t-45.5 -56.5t-61.5 -47t-76.5 -20q-50 0 -90.5 36t-75.5 79.5t-66 79.5t-59 36
q-9 0 -17.5 -3t-21.5 -9l-23 34l131 69q16 8 28 8q30 0 61.5 -29.5t63 -65.5t63 -65t63.5 -29q25 0 44.5 13.5t37.5 33.5t36 44t33 45h19v171q0 20 27 20h117v-35q-22 -21 -22 -43v-113q22 0 43 -7.5t41 -24.5t35 -45t15 -70z" />
    <glyph glyph-name="uni179817B6" horiz-adv-x="2382" 
d="M2202 253h-250v812l-354 154l-173 -57q-48 -16 -66 -23q-33 -14 -45 -28l5 -9q42 7 59 7q55 0 100 -24q55 -30 55 -83v-530q0 -93 -91 -159q-82 -60 -176 -60h-798q-93 0 -173 52q-91 59 -91 147v512q0 50 -63 50q-10 0 -27.5 -4t-27.5 -4q-13 0 -22 19l-54 114l328 275
h29l153 -77q14 -7 30 -7q25 0 33 2l20 -32l-111 -153q-69 49 -146 49q-64 0 -111 -55l5 -9q42 7 59 7q54 0 100 -26q55 -32 55 -84v-159h829v64q0 50 -57 50q-10 0 -26 -3.5t-26 -3.5q-18 0 -22 19l-48 208l586 210h51l461 -210v-951zM1283 591v87h-829v-85q0 -60 50 -96
q44 -32 106 -32h554q119 0 119 126z" />
    <glyph glyph-name="uni179817C5.sechalf" horiz-adv-x="2382" 
d="M2235 1463q0 -115 -33 -297v-913h-250v812l-354 154l-173 -57q-48 -16 -66 -23q-33 -14 -45 -28l5 -9q42 7 59 7q55 0 100 -24q55 -30 55 -83v-530q0 -93 -91 -159q-82 -60 -176 -60h-798q-93 0 -173 52q-91 59 -91 147v512q0 50 -63 50q-10 0 -27.5 -4t-27.5 -4
q-13 0 -22 19l-54 114l328 275h29l153 -77q14 -7 30 -7q25 0 33 2l20 -32l-111 -153q-69 49 -146 49q-64 0 -111 -55l5 -9q42 7 59 7q54 0 100 -26q55 -32 55 -84v-159h829v64q0 50 -57 50q-10 0 -26 -3.5t-26 -3.5q-18 0 -22 19l-48 208l586 210h51l339 -154q28 65 28 144
q0 118 -52 118q-8 0 -26.5 -2t-30.5 -2q-32 0 -54.5 26.5t-22.5 62.5q0 51 30 89q35 43 94 43q89 0 141 -84q48 -77 48 -192zM1283 591v87h-829v-85q0 -60 50 -96q44 -32 106 -32h554q119 0 119 126z" />
    <glyph glyph-name="uni1799" unicode="&#x1799;" horiz-adv-x="2059" 
d="M2028 1300l-111 -153q-69 49 -146 49q-64 0 -111 -55l5 -9q42 7 59 7q55 0 100 -24q55 -30 55 -83v-560q0 -93 -91 -159q-82 -60 -176 -60h-334q-135 0 -225 73q-95 -73 -196 -73h-394q-104 0 -188 57q-95 64 -95 165v769q0 134 119 134h117q109 0 188 -66
q91 -77 91 -210q0 -180 -140 -180q-108 0 -108 109q0 36 37.5 77t37.5 64q0 67 -50 67q-42 0 -42 -53v-595q0 -126 129 -126h238q61 0 100 31q42 35 42 95v373q0 50 -63 50q-10 0 -27.5 -4t-27.5 -4q-13 0 -22 19l-54 114l328 275h29l153 -77q14 -7 30 -7q25 0 33 2l20 -32
l-111 -153q-69 49 -146 49q-64 0 -111 -55l5 -9q42 7 59 7q55 0 100 -24q55 -30 55 -83v-441q0 -126 154 -126h167q119 0 119 126v373q0 50 -63 50q-10 0 -27.5 -4t-27.5 -4q-13 0 -22 19l-54 114l328 275h29l153 -77q14 -7 30 -7q25 0 33 2z" />
    <glyph glyph-name="uni1799.sub1" horiz-adv-x="630" 
d="M599 1300l-111 -153q-69 49 -146 49q-64 0 -111 -55l5 -9q42 7 59 7q55 0 100 -24q55 -30 55 -83v-1235q0 -93 -91 -159q-82 -60 -176 -60h-404q-103 0 -183 57q-90 64 -90 165v311q0 132 119 132h117q104 0 184 -64q89 -71 89 -182q0 -129 -124 -129q-98 0 -98 84
q0 30 27.5 65t27.5 60q0 47 -50 47q-42 0 -42 -53v-205q0 -126 116 -126h239q89 0 89 106v1118q0 50 -63 50q-10 0 -27.5 -4t-27.5 -4q-13 0 -22 19l-54 114l328 275h29l153 -77q14 -7 30 -7q25 0 33 2z" />
    <glyph glyph-name="uni1799.sub2" horiz-adv-x="630" 
d="M599 1300l-111 -153q-69 49 -146 49q-64 0 -111 -55l5 -9q42 7 59 7q55 0 100 -24q55 -30 55 -83v-1235q0 -93 -91 -159q-82 -60 -176 -60h-404q-103 0 -183 57q-90 64 -90 165v311q0 132 119 132h117q104 0 184 -64q89 -71 89 -182q0 -129 -124 -129q-98 0 -98 84
q0 30 27.5 65t27.5 60q0 47 -50 47q-42 0 -42 -53v-205q0 -126 116 -126h239q89 0 89 106v1118q0 50 -63 50q-10 0 -27.5 -4t-27.5 -4q-13 0 -22 19l-54 114l328 275h29l153 -77q14 -7 30 -7q25 0 33 2z" />
    <glyph glyph-name="uni179917B6" horiz-adv-x="2728" 
d="M2548 253h-250v812l-354 154l-173 -57q-48 -16 -66 -23q-33 -14 -45 -28l5 -9q42 7 59 7q55 0 100 -24q55 -31 55 -83v-530q0 -93 -91 -159q-82 -60 -176 -60h-334q-135 0 -225 73q-95 -73 -196 -73h-394q-104 0 -188 57q-95 64 -95 165v769q0 134 119 134h117
q109 0 188 -66q91 -77 91 -210q0 -180 -140 -180q-108 0 -108 109q0 36 37.5 77t37.5 64q0 67 -50 67q-42 0 -42 -53v-595q0 -126 129 -126h238q61 0 100 31q42 35 42 95v373q0 50 -63 50q-10 0 -27.5 -4t-27.5 -4q-13 0 -22 19l-54 114l328 275h29l153 -77q14 -7 30 -7
q25 0 33 2l20 -32l-111 -153q-69 49 -146 49q-64 0 -111 -55l5 -9q42 7 59 7q55 0 100 -24q55 -30 55 -83v-441q0 -126 154 -126h167q119 0 119 126v343q0 50 -57 50q-10 0 -26 -3.5t-26 -3.5q-18 0 -22 19l-48 208l586 210h51l461 -210v-951z" />
    <glyph glyph-name="uni179917B6.sub1" horiz-adv-x="1299" 
d="M1119 253h-250v812l-354 154l-173 -57q-48 -16 -66 -23q-33 -14 -45 -28l5 -9q42 7 59 7q58 0 100 -21q55 -27 55 -78v-1213q0 -93 -91 -159q-82 -60 -176 -60h-404q-103 0 -183 57q-90 64 -90 165v311q0 132 119 132h117q104 0 184 -64q89 -71 89 -182q0 -129 -124 -129
q-98 0 -98 84q0 30 27.5 65t27.5 60q0 47 -50 47q-42 0 -42 -53v-205q0 -126 116 -126h239q89 0 89 106v1088q0 50 -57 50q-10 0 -26 -3.5t-26 -3.5q-18 0 -22 19l-48 208l586 210h51l461 -210v-951z" />
    <glyph glyph-name="uni179917B6.sub2" horiz-adv-x="1299" 
d="M1119 253h-250v812l-354 154l-173 -57q-48 -16 -66 -23q-33 -14 -45 -28l5 -9q42 7 59 7q58 0 100 -21q55 -27 55 -78v-1213q0 -93 -91 -159q-82 -60 -176 -60h-404q-103 0 -183 57q-90 64 -90 165v311q0 132 119 132h117q104 0 184 -64q89 -71 89 -182q0 -129 -124 -129
q-98 0 -98 84q0 30 27.5 65t27.5 60q0 47 -50 47q-42 0 -42 -53v-205q0 -126 116 -126h239q89 0 89 106v1088q0 50 -57 50q-10 0 -26 -3.5t-26 -3.5q-18 0 -22 19l-48 208l586 210h51l461 -210v-951z" />
    <glyph glyph-name="uni179917C5.sechalf" horiz-adv-x="2728" 
d="M2581 1463q0 -115 -33 -297v-913h-250v812l-354 154l-173 -57q-48 -16 -66 -23q-33 -14 -45 -28l5 -9q42 7 59 7q55 0 100 -24q55 -31 55 -83v-530q0 -93 -91 -159q-82 -60 -176 -60h-334q-135 0 -225 73q-95 -73 -196 -73h-394q-104 0 -188 57q-95 64 -95 165v769
q0 134 119 134h117q109 0 188 -66q91 -77 91 -210q0 -180 -140 -180q-108 0 -108 109q0 36 37.5 77t37.5 64q0 67 -50 67q-42 0 -42 -53v-595q0 -126 129 -126h238q61 0 100 31q42 35 42 95v373q0 50 -63 50q-10 0 -27.5 -4t-27.5 -4q-13 0 -22 19l-54 114l328 275h29
l153 -77q14 -7 30 -7q25 0 33 2l20 -32l-111 -153q-69 49 -146 49q-64 0 -111 -55l5 -9q42 7 59 7q55 0 100 -24q55 -30 55 -83v-441q0 -126 154 -126h167q119 0 119 126v343q0 50 -57 50q-10 0 -26 -3.5t-26 -3.5q-18 0 -22 19l-48 208l586 210h51l339 -154q28 65 28 144
q0 118 -52 118q-8 0 -26.5 -2t-30.5 -2q-32 0 -54.5 26.5t-22.5 62.5q0 51 30 89q35 43 94 43q89 0 141 -84q48 -77 48 -192z" />
    <glyph glyph-name="uni179917C5.sub1sechalf" horiz-adv-x="1299" 
d="M1152 1463q0 -115 -33 -297v-913h-250v812l-354 154l-173 -57q-48 -16 -66 -23q-33 -14 -45 -28l5 -9q42 7 59 7q58 0 100 -21q55 -27 55 -78v-1213q0 -93 -91 -159q-82 -60 -176 -60h-404q-103 0 -183 57q-90 64 -90 165v311q0 132 119 132h117q104 0 184 -64
q89 -71 89 -182q0 -129 -124 -129q-98 0 -98 84q0 30 27.5 65t27.5 60q0 47 -50 47q-42 0 -42 -53v-205q0 -126 116 -126h239q89 0 89 106v1088q0 50 -57 50q-10 0 -26 -3.5t-26 -3.5q-18 0 -22 19l-48 208l586 210h51l339 -154q28 65 28 144q0 118 -52 118q-8 0 -26.5 -2
t-30.5 -2q-32 0 -54.5 26.5t-22.5 62.5q0 51 30 89q35 43 94 43q89 0 141 -84q48 -77 48 -192z" />
    <glyph glyph-name="uni179917C5.sub2sechalf" horiz-adv-x="1299" 
d="M1152 1463q0 -115 -33 -297v-913h-250v812l-354 154l-173 -57q-48 -16 -66 -23q-33 -14 -45 -28l5 -9q42 7 59 7q58 0 100 -21q55 -27 55 -78v-1213q0 -93 -91 -159q-82 -60 -176 -60h-404q-103 0 -183 57q-90 64 -90 165v311q0 132 119 132h117q104 0 184 -64
q89 -71 89 -182q0 -129 -124 -129q-98 0 -98 84q0 30 27.5 65t27.5 60q0 47 -50 47q-42 0 -42 -53v-205q0 -126 116 -126h239q89 0 89 106v1088q0 50 -57 50q-10 0 -26 -3.5t-26 -3.5q-18 0 -22 19l-48 208l586 210h51l339 -154q28 65 28 144q0 118 -52 118q-8 0 -26.5 -2
t-30.5 -2q-32 0 -54.5 26.5t-22.5 62.5q0 51 30 89q35 43 94 43q89 0 141 -84q48 -77 48 -192z" />
    <glyph glyph-name="uni179A" unicode="&#x179a;" horiz-adv-x="705" 
d="M674 1300l-111 -153q-69 49 -146 49q-64 0 -111 -55l5 -9q42 7 59 7q54 0 100 -26q55 -32 55 -84v-646q0 -130 -119 -130h-117q-112 0 -187 56q-92 68 -92 200q0 170 140 170q108 0 108 -99q0 -36 -37.5 -72t-37.5 -59q0 -57 50 -57q42 0 42 53v519q0 50 -63 50
q-10 0 -27.5 -4t-27.5 -4q-13 0 -22 19l-54 114l328 275h29l153 -77q14 -7 30 -7q25 0 33 2z" />
    <glyph glyph-name="uni179A.sub1" horiz-adv-x="630" 
d="M1144 -200q0 -101 -90 -165q-80 -57 -183 -57h-404q-94 0 -176 58q-91 64 -91 157v1171q0 50 -63 50q-10 0 -27.5 -4t-27.5 -4q-13 0 -22 19l-54 114l328 275h29l153 -77q14 -7 30 -7q25 0 33 2l20 -32l-111 -153q-69 49 -146 49q-64 0 -111 -55l5 -9q42 7 59 7
q54 0 100 -26q55 -32 55 -84v-1186q0 -103 89 -103h239q116 0 116 126v134h250v-200z" />
    <glyph glyph-name="uni179A.sub2" horiz-adv-x="630" 
d="M1144 -200q0 -101 -90 -165q-80 -57 -183 -57h-404q-94 0 -176 58q-91 64 -91 157v1171q0 50 -63 50q-10 0 -27.5 -4t-27.5 -4q-13 0 -22 19l-54 114l328 275h29l153 -77q14 -7 30 -7q25 0 33 2l20 -32l-111 -153q-69 49 -146 49q-64 0 -111 -55l5 -9q42 7 59 7
q54 0 100 -26q55 -32 55 -84v-1186q0 -103 89 -103h239q116 0 116 126v134h250v-200z" />
    <glyph glyph-name="uni179A17B6" horiz-adv-x="1389" 
d="M1209 253h-250v812l-268 140l-134 -58q-69 49 -140 49q-64 0 -111 -55l5 -9q42 7 59 7q54 0 100 -26q55 -32 55 -84v-646q0 -130 -119 -130h-117q-112 0 -187 56q-92 68 -92 200q0 170 140 170q108 0 108 -99q0 -36 -37.5 -72t-37.5 -59q0 -57 50 -57q42 0 42 53v519
q0 50 -63 50q-10 0 -27.5 -4t-27.5 -4q-13 0 -22 19l-54 114l328 275h29l155 -76l169 76h51l396 -210v-951z" />
    <glyph glyph-name="uni179A17C5.sechalf" horiz-adv-x="1389" 
d="M1242 1463q0 -115 -33 -297v-913h-250v812l-268 140l-134 -58q-69 49 -140 49q-64 0 -111 -55l5 -9q42 7 59 7q54 0 100 -26q55 -32 55 -84v-646q0 -130 -119 -130h-117q-112 0 -187 56q-92 68 -92 200q0 170 140 170q108 0 108 -99q0 -36 -37.5 -72t-37.5 -59
q0 -57 50 -57q42 0 42 53v519q0 50 -63 50q-10 0 -27.5 -4t-27.5 -4q-13 0 -22 19l-54 114l328 275h29l155 -76l169 76h51l277 -147q25 64 25 137q0 118 -52 118q-8 0 -26.5 -2t-30.5 -2q-32 0 -54.5 26.5t-22.5 62.5q0 51 30 89q35 43 94 43q89 0 141 -84q48 -77 48 -192z
" />
    <glyph glyph-name="uni179B" unicode="&#x179b;" horiz-adv-x="1952" 
d="M1921 1300l-111 -153q-69 49 -146 49q-64 0 -111 -55l5 -9q42 7 59 7q55 0 100 -24q55 -30 55 -83v-560q0 -93 -91 -159q-82 -60 -176 -60h-363q-104 0 -189 57q-97 64 -97 165v569q0 120 -129 120h-168q-129 0 -129 -123v-596q0 -53 42 -53q50 0 50 67q0 23 -37.5 64
t-37.5 77q0 109 108 109q140 0 140 -180q0 -133 -91 -210q-79 -66 -188 -66h-117q-119 0 -119 134v764q0 101 95 167q85 58 188 58h357q104 0 189 -58q97 -66 97 -167v-560q0 -126 129 -126h168q119 0 119 126v373q0 50 -63 50q-10 0 -27.5 -4t-27.5 -4q-13 0 -22 19
l-54 114l328 275h29l153 -77q14 -7 30 -7q25 0 33 2z" />
    <glyph glyph-name="uni179B.sub1" 
d="M-399 -418q-42 0 -80 4.5t-71 22t-56.5 46t-23.5 73.5v201q0 12 -6 29t-21.5 33t-45.5 26.5t-77 10.5q-27 0 -62 -1t-66.5 -9t-53.5 -28.5t-22 -59.5v-258q5 -12 14 -15.5t16 -3.5q18 0 31 12.5t13 33.5q0 27 -10 35.5t-21 11.5t-21 9t-10 28q0 21 15 37.5t47 16.5
q39 0 54.5 -21t15.5 -69q0 -30 -6.5 -59t-33.5 -59q-29 -30 -63.5 -40.5t-59.5 -10.5h-24q-18 0 -34 15t-16 37v324q0 51 28 80.5t65.5 45t77 20t62.5 4.5h49q36 0 67.5 -2t58.5 -9.5t52 -22.5t49 -39q13 -15 21.5 -33t8.5 -42v-204q3 -51 41 -71.5t89 -20.5q45 0 64 6
t34.5 16t27 25.5t11.5 38.5v339h91v-359q0 -34 -18.5 -59t-42 -42t-46 -26t-43 -11.5t-34.5 -4t-35 -1.5z" />
    <glyph glyph-name="uni179B.sub2" 
d="M-359 -418q-67 0 -121.5 40.5t-54.5 105.5v201q0 32 -8.5 51t-36.5 33.5t-67 14.5q-56 0 -84 -29.5t-28 -68.5v-258q5 -12 14 -15.5t16 -3.5q18 0 31 12.5t13 33.5q0 27 -10 35.5t-21 11.5t-21 9t-10 28q0 21 15 37.5t47 16.5q39 0 54.5 -21t15.5 -69q0 -30 -6.5 -59
t-33.5 -59q-29 -30 -63.5 -40.5t-59.5 -10.5h-24q-18 0 -34 15t-16 37v324q0 51 28 80.5t75 49.5t99 20q56 0 107 -19t75.5 -57t24.5 -72v-204q3 -51 23.5 -71.5t65.5 -20.5q41 0 62 24t21 72v329h91v-348q0 -45 -20 -73.5t-48.5 -49t-54 -26.5t-56.5 -6z" />
    <glyph glyph-name="uni179B17B6" horiz-adv-x="2621" 
d="M2441 253h-250v812l-354 154l-173 -57q-48 -16 -66 -23q-33 -14 -45 -28l5 -9q42 7 59 7q55 0 100 -24q55 -31 55 -83v-530q0 -93 -91 -159q-82 -60 -176 -60h-363q-104 0 -189 57q-97 64 -97 165v569q0 120 -129 120h-168q-129 0 -129 -123v-596q0 -53 42 -53
q50 0 50 67q0 23 -37.5 64t-37.5 77q0 109 108 109q140 0 140 -180q0 -133 -91 -210q-79 -66 -188 -66h-117q-119 0 -119 134v764q0 101 95 167q85 58 188 58h357q104 0 189 -58q97 -66 97 -167v-560q0 -126 129 -126h168q119 0 119 126v343q0 50 -57 50q-10 0 -26 -3.5
t-26 -3.5q-18 0 -22 19l-48 208l586 210h51l461 -210v-951z" />
    <glyph glyph-name="uni179B17C5.sechalf" horiz-adv-x="2621" 
d="M2474 1463q0 -115 -33 -297v-913h-250v812l-354 154l-173 -57q-48 -16 -66 -23q-33 -14 -45 -28l5 -9q42 7 59 7q55 0 100 -24q55 -31 55 -83v-530q0 -93 -91 -159q-82 -60 -176 -60h-363q-104 0 -189 57q-97 64 -97 165v569q0 120 -129 120h-168q-129 0 -129 -123v-596
q0 -53 42 -53q50 0 50 67q0 23 -37.5 64t-37.5 77q0 109 108 109q140 0 140 -180q0 -133 -91 -210q-79 -66 -188 -66h-117q-119 0 -119 134v764q0 101 95 167q85 58 188 58h357q104 0 189 -58q97 -66 97 -167v-560q0 -126 129 -126h168q119 0 119 126v343q0 50 -57 50
q-10 0 -26 -3.5t-26 -3.5q-18 0 -22 19l-48 208l586 210h51l343 -156q24 65 24 146q0 118 -52 118q-8 0 -26.5 -2t-30.5 -2q-32 0 -54.5 26.5t-22.5 62.5q0 51 30 89q35 43 94 43q89 0 141 -84q48 -77 48 -192z" />
    <glyph glyph-name="uni179C" unicode="&#x179c;" horiz-adv-x="705" 
d="M734 1444q0 -96 -76 -174l-109 -112h-16q-53 38 -116 38q-64 0 -111 -55l5 -9q42 7 59 7q54 0 100 -26q55 -31 55 -84v-646q0 -130 -119 -130h-117q-112 0 -187 56q-92 68 -92 200q0 170 140 170q108 0 108 -99q0 -36 -37.5 -72t-37.5 -59q0 -57 50 -57q42 0 42 53v519
q0 50 -63 50q-10 0 -27.5 -4t-27.5 -4q-13 0 -22 19l-54 114l328 275h29l113 -57q14 -7 31 -7q54 0 54 46q0 37 -38 37q-7 0 -20.5 -3t-21.5 -3q-70 0 -70 77q0 43 30 71.5t80 28.5q60 0 99 -43.5t39 -116.5z" />
    <glyph glyph-name="uni179C.sub1" 
d="M-294 -58q-11 -9 -51 -22.5t-113 -28.5t-181.5 -30t-261.5 -27q-33 -3 -46 -14t-13 -24q0 -25 57 -49.5t177 -24.5q32 0 73 3t83 9t82 16.5t70.5 24t50 26t35.5 28.5t27 42t11 71zM-180 -22q0 -103 -38 -173t-113 -112.5t-185.5 -64.5t-254.5 -22q-144 2 -227 52.5
t-83 132.5q0 35 7.5 61.5t30 46.5t55.5 28.5t93.5 14t149 14.5t213.5 30q78 13 124.5 25t72 25t33.5 25.5t8 26.5v15h114v-125z" />
    <glyph glyph-name="uni179C.sub2" 
d="M-294 -59q-15 -9 -34.5 -24t-59 -31t-108.5 -30t-186 -20q-33 -5 -46.5 -14.5t-13.5 -21.5q0 -15 17 -28t43.5 -22.5t58 -15.5t58.5 -6q42 0 89 9.5t86 33.5t67.5 65.5t28.5 104.5zM-180 -23q0 -74 -24.5 -141.5t-71 -118.5t-119.5 -81t-176 -30q-57 2 -105 9.5
t-89.5 28.5t-70 57t-28.5 93q0 43 9 71t36 47.5t75 25.5l128 16q67 8 125.5 23t102 34.5t69 39.5t25.5 37v15h114v-126z" />
    <glyph glyph-name="uni179C17B6" horiz-adv-x="1521" 
d="M1341 253h-250v812l-318 154l-224 -71h-16q-67 48 -116 48q-64 0 -111 -55l5 -9q42 7 59 7q55 0 100 -24q55 -30 55 -83v-647q0 -132 -119 -132h-117q-112 0 -187 56q-92 68 -92 200q0 170 140 170q108 0 108 -99q0 -36 -37.5 -72t-37.5 -59q0 -57 50 -57q42 0 42 53v519
q0 50 -63 50q-10 0 -27.5 -4t-27.5 -4q-13 0 -22 19l-54 114l328 275h29l113 -67q12 -7 31 -7q54 0 54 46q0 47 -38 47q-7 0 -20.5 -3t-21.5 -3q-70 0 -70 77q0 43 30 71.5t80 28.5q60 0 99 -43.5t39 -116.5q0 -45 -12 -81l157 51h51l411 -210v-951z" />
    <glyph glyph-name="uni179C17C5.sechalf" horiz-adv-x="1521" 
d="M1374 1463q0 -115 -33 -297v-913h-250v812l-318 154l-224 -71h-16q-67 48 -116 48q-64 0 -111 -55l5 -9q42 7 59 7q55 0 100 -24q55 -30 55 -83v-647q0 -132 -119 -132h-117q-112 0 -187 56q-92 68 -92 200q0 170 140 170q108 0 108 -99q0 -36 -37.5 -72t-37.5 -59
q0 -57 50 -57q42 0 42 53v519q0 50 -63 50q-10 0 -27.5 -4t-27.5 -4q-13 0 -22 19l-54 114l328 275h29l113 -67q12 -7 31 -7q54 0 54 46q0 47 -38 47q-7 0 -20.5 -3t-21.5 -3q-70 0 -70 77q0 43 30 71.5t80 28.5q60 0 99 -43.5t39 -116.5q0 -45 -12 -81l157 51h51l291 -149
q26 65 26 139q0 118 -52 118q-8 0 -26.5 -2t-30.5 -2q-32 0 -54.5 26.5t-22.5 62.5q0 51 30 89q35 43 94 43q89 0 141 -84q48 -77 48 -192z" />
    <glyph glyph-name="uni179D" unicode="&#x179d;" horiz-adv-x="1689" 
d="M1680 561q0 -63 -57 -104q-50 -36 -114 -36v-168h-250v168q-72 6 -126 35q-70 40 -70 107q0 79 73 79q38 0 69 -39q38 -49 54 -57v102q0 65 -56 98q-46 28 -114 28h-500q-63 0 -108 -32q-51 -36 -51 -96v-184q27 55 68 104q82 99 154 99q83 0 83 -94q0 -81 -57 -81
q-7 0 -24.5 4t-29.5 4q-67 0 -130.5 -71.5t-63.5 -150.5v-23h-250v534q0 122 106 167l-213 76v141l400 243h69l370 -164l244 164h64l279 -123q16 -7 46 -7q28 0 54 9l39 -61l-136 -187h-60l-339 151l-233 -151h-69l-386 151l-109 -63v-29l297 -118h622q108 0 188 -47
q96 -55 96 -155v-257q53 0 90.5 35t50.5 35q30 0 30 -36z" />
    <glyph glyph-name="uni179D.sub1" 
d="M-294 -181v162q0 26 -42 26h-603q-44 0 -44 -26v-235q47 55 74 86.5t42.5 44.5t30.5 19t32 6q28 0 43 -16t15 -37q0 -19 -1.5 -27.5t-7.5 -14.5t-18 -6q-7 0 -15.5 1.5t-18.5 1.5q-12 0 -20.5 -1.5t-20.5 -6.5t-30 -18.5t-48 -43.5q-49 -50 -57 -72v-83h-114v417
q0 33 6 52.5t17.5 31.5t29.5 18t45 6h723q28 0 45.5 -6t28 -15t16.5 -24.5t6 -35.5v-228h15q28 0 44.5 7.5t26.5 17.5l17.5 17.5t17.5 7.5q8 0 13 -5.5t5 -15.5q0 -17 -6 -30.5t-12.5 -24t-17.5 -21t-31 -20t-72 -9.5v-140h-114v150q-23 3 -49 11.5t-49.5 22.5t-39 34.5
t-15.5 47.5q0 18 16.5 33t43.5 15t44 -12.5t23.5 -23t11.5 -22.5q6 -13 14 -16z" />
    <glyph glyph-name="uni179D.sub2" 
d="M-294 -181v162q0 26 -42 26h-363q-44 0 -44 -26v-235q32 55 56.5 86.5t40 44.5t30.5 19t32 6q28 0 43 -16t15 -37q0 -19 -1.5 -27.5t-7.5 -14.5t-18 -6q-7 0 -15.5 1.5t-18.5 1.5q-12 0 -20.5 -1.5t-20.5 -6.5t-27.5 -18.5t-45.5 -43.5q-34 -50 -42 -72v-83h-114v417
q0 33 6 52.5t17.5 31.5t29.5 18t45 6h483q28 0 45.5 -6t28 -15t16.5 -24.5t6 -35.5v-228h15q28 0 44.5 7.5t26.5 17.5l17.5 17.5t17.5 7.5q8 0 13 -5.5t5 -15.5q0 -17 -6 -30.5t-12.5 -24t-17.5 -21t-31 -20t-72 -9.5v-140h-114v150q-23 3 -46 11.5t-45 22.5t-35 34.5
t-13 47.5q0 18 14 33t38 15q27 0 41 -12.5t20.5 -23t11.5 -22.5q6 -13 14 -16z" />
    <glyph glyph-name="uni179D17B6" horiz-adv-x="2353" 
d="M2173 253h-250v792l-522 151l-276 -151h-96l-614 151l-109 -63v-29l297 -118h622q109 0 188 -46q96 -55 96 -155v-258q53 0 90.5 35t50.5 35q30 0 30 -36q0 -63 -57 -104q-50 -36 -114 -36v-168h-250v168q-72 6 -126 35q-70 40 -70 107q0 79 73 79q38 0 69 -39
q38 -49 54 -57v102q0 65 -56 98q-46 28 -114 28h-500q-63 0 -108 -32q-51 -36 -51 -96v-184q27 55 68 104q82 99 154 99q83 0 83 -94q0 -81 -57 -81q-7 0 -24.5 4t-29.5 4q-67 0 -130.5 -71.5t-63.5 -150.5v-23h-250v534q0 122 106 167l-213 76v141l400 243h69l610 -164
l289 164h51l681 -210v-951z" />
    <glyph glyph-name="uni179D17C5.sechalf" horiz-adv-x="2353" 
d="M2206 1463q0 -115 -33 -297v-913h-250v792l-522 151l-276 -151h-96l-614 151l-109 -63v-29l297 -118h622q108 0 188 -47q96 -56 96 -156v-256q53 0 90.5 35t50.5 35q30 0 30 -36q0 -63 -57 -104q-50 -36 -114 -36v-168h-250v168q-72 6 -126 35q-70 40 -70 107q0 79 73 79
q38 0 69 -39q38 -49 54 -57v102q0 65 -56 98q-46 28 -114 28h-500q-63 0 -108 -32q-51 -36 -51 -96v-184q27 55 68 104q82 99 154 99q83 0 83 -94q0 -81 -57 -81q-7 0 -24.5 4t-29.5 4q-67 0 -130.5 -71.5t-63.5 -150.5v-23h-250v534q0 122 106 167l-213 76v141l400 243h69
l610 -164l289 164h51l551 -170q36 65 36 160q0 118 -52 118q-8 0 -26.5 -2t-30.5 -2q-32 0 -54.5 26.5t-22.5 62.5q0 51 30 89q35 43 94 43q89 0 141 -84q48 -77 48 -192z" />
    <glyph glyph-name="uni179E" unicode="&#x179e;" horiz-adv-x="1713" 
d="M1704 790q0 -63 -57 -104q-50 -36 -114 -36v-178q0 -93 -91 -159q-82 -60 -176 -60h-798q-93 0 -173 52q-91 59 -91 147v512q0 50 -63 50q-10 0 -27.5 -4t-27.5 -4q-13 0 -22 19l-54 114l328 275h29l153 -77q14 -7 30 -7q25 0 33 2l20 -32l-111 -153q-69 49 -146 49
q-64 0 -111 -55l5 -9q42 7 59 7q54 0 100 -26q55 -32 55 -84v-436q0 -60 50 -96q44 -32 106 -32h554q119 0 119 126v59q-72 6 -126 35q-70 40 -70 107q0 79 73 79q38 0 69 -39q38 -49 54 -57v189q0 50 -63 50q-10 0 -27.5 -4t-27.5 -4q-13 0 -22 19l-54 114l328 275h29
l153 -77q14 -7 30 -7q25 0 33 2l20 -32l-111 -153q-69 49 -146 49q-64 0 -111 -55l5 -9q42 7 59 7q55 0 100 -24q55 -30 55 -83v-276q53 0 90.5 35t50.5 35q30 0 30 -36z" />
    <glyph glyph-name="uni179E.sub1" 
d="M-292 -265q-32 3 -53 8q-25 4 -47 11t-36 17.5t-14 23.5q0 12 14 19t40 7q25 0 44 -7.5t30.5 -17.5t21.5 -13v54q0 26 -22.5 37t-52.5 11q-11 0 -21.5 -3.5t-20.5 -3.5q-14 0 -21 12l-38 45l189 132h26l136 -54q11 -3 21 -3q7 0 15 1l17 -21l-84 -55q-5 0 -17.5 6
t-30.5 14t-43 14t-53 6q-42 0 -77 -30l2 -3q12 2 22.5 2.5t20.5 0.5q68 0 101.5 -20t42.5 -47v-107q24 0 39 4t27 8.5t20 8t18 3.5q12 0 12 -10q0 -7 -5 -15t-24 -20q-12 -6 -18 -8t-16.5 -5t-26 -4.5t-26.5 -1.5v-29q0 -54 -58.5 -90.5t-175.5 -36.5h-369q-25 0 -67 4
t-82.5 19.5t-70 43t-29.5 69.5v126q0 21 -19.5 34.5t-55.5 13.5q-10 0 -20.5 -3.5t-21.5 -3.5q-13 0 -21 12l-37 45l189 132h25l137 -54q10 -3 21 -3q7 0 15 1l15 -21l-83 -55q-6 0 -18 6t-30.5 14t-42.5 14t-54 6q-38 0 -77 -30l3 -3q12 2 22.5 2.5t21.5 0.5q67 0 101 -20
t43 -47v-144q0 -26 15 -42.5t36.5 -26t48 -13.5t50.5 -4h337q24 0 49 5.5t45 16t33 27t13 38.5z" />
    <glyph glyph-name="uni179E.sub2" horiz-adv-x="630" 
d="M621 540q0 -63 -57 -104q-50 -36 -114 -36v-603q0 -93 -91 -159q-82 -60 -176 -60h-134q-95 0 -185 73q-95 -73 -196 -73h-144q-103 0 -183 57q-90 64 -90 165v311q0 132 119 132h117q104 0 184 -64q89 -71 89 -182q0 -129 -124 -129q-98 0 -98 84q0 30 27.5 65t27.5 60
q0 47 -50 47q-42 0 -42 -53v-205q0 -126 119 -126h28q52 0 85 47q27 38 27 79h230q0 -43 23 -79q29 -47 81 -47h17q89 0 89 106v554q-72 6 -126 35q-70 40 -70 107q0 79 73 79q38 0 69 -39q38 -49 54 -57v439q0 50 -63 50q-10 0 -27.5 -4t-27.5 -4q-13 0 -22 19l-54 114
l328 275h29l153 -77q14 -7 30 -7q25 0 33 2l20 -32l-111 -153q-69 49 -146 49q-64 0 -111 -55l5 -9q42 7 59 7q55 0 100 -24q55 -30 55 -83v-526q53 0 90.5 35t50.5 35q30 0 30 -36z" />
    <glyph glyph-name="uni179E17B6" horiz-adv-x="2382" 
d="M2202 253h-250v812l-354 154l-173 -57q-48 -16 -66 -23q-33 -14 -45 -28l5 -9q42 7 59 7q55 0 100 -24q55 -30 55 -83v-246q53 0 90.5 35t50.5 35q30 0 30 -36q0 -63 -57 -104q-50 -36 -114 -36v-178q0 -93 -91 -159q-82 -60 -176 -60h-798q-93 0 -173 52q-91 59 -91 147
v512q0 50 -63 50q-10 0 -27.5 -4t-27.5 -4q-13 0 -22 19l-54 114l328 275h29l153 -77q14 -7 30 -7q25 0 33 2l20 -32l-111 -153q-69 49 -146 49q-64 0 -111 -55l5 -9q42 7 59 7q54 0 100 -26q55 -32 55 -84v-436q0 -60 50 -96q44 -32 106 -32h554q119 0 119 126v59
q-72 6 -126 35q-70 40 -70 107q0 79 73 79q38 0 69 -39q38 -49 54 -57v159q0 50 -57 50q-10 0 -26 -3.5t-26 -3.5q-18 0 -22 19l-48 208l586 210h51l461 -210v-951z" />
    <glyph glyph-name="uni179E17B6.sub1" horiz-adv-x="1299" 
d="M1119 253h-250v812l-354 154l-173 -57q-48 -16 -66 -23q-33 -14 -45 -28l5 -9q42 7 59 7q56 0 100 -22q55 -29 55 -81v-500q53 0 90.5 35t50.5 35q30 0 30 -36q0 -63 -57 -104q-50 -36 -114 -36v-603q0 -93 -91 -159q-82 -60 -176 -60h-134q-95 0 -185 73
q-95 -73 -196 -73h-144q-103 0 -183 57q-90 64 -90 165v311q0 132 119 132h117q104 0 184 -64q89 -71 89 -182q0 -129 -124 -129q-98 0 -98 84q0 30 27.5 65t27.5 60q0 47 -50 47q-42 0 -42 -53v-205q0 -126 119 -126h28q52 0 85 47q27 38 27 79h230q0 -43 23 -79
q29 -47 81 -47h17q89 0 89 106v554q-72 6 -126 35q-70 40 -70 107q0 79 73 79q38 0 69 -39q38 -49 54 -57v409q0 50 -57 50q-10 0 -26 -3.5t-26 -3.5q-18 0 -22 19l-48 208l586 210h51l461 -210v-951z" />
    <glyph glyph-name="uni179E17B6.sub2" horiz-adv-x="1299" 
d="M1119 253h-250v812l-354 154l-173 -57q-48 -16 -66 -23q-33 -14 -45 -28l5 -9q42 7 59 7q56 0 100 -22q55 -29 55 -81v-500q53 0 90.5 35t50.5 35q30 0 30 -36q0 -63 -57 -104q-50 -36 -114 -36v-603q0 -93 -91 -159q-82 -60 -176 -60h-134q-95 0 -185 73
q-95 -73 -196 -73h-144q-103 0 -183 57q-90 64 -90 165v311q0 132 119 132h117q104 0 184 -64q89 -71 89 -182q0 -129 -124 -129q-98 0 -98 84q0 30 27.5 65t27.5 60q0 47 -50 47q-42 0 -42 -53v-205q0 -126 119 -126h28q52 0 85 47q27 38 27 79h230q0 -43 23 -79
q29 -47 81 -47h17q89 0 89 106v554q-72 6 -126 35q-70 40 -70 107q0 79 73 79q38 0 69 -39q38 -49 54 -57v409q0 50 -57 50q-10 0 -26 -3.5t-26 -3.5q-18 0 -22 19l-48 208l586 210h51l461 -210v-951z" />
    <glyph glyph-name="uni179E17C5.sechalf" horiz-adv-x="2382" 
d="M2235 1463q0 -115 -33 -297v-913h-250v812l-354 154l-173 -57q-48 -16 -66 -23q-33 -14 -45 -28l5 -9q42 7 59 7q55 0 100 -24q55 -30 55 -83v-246q53 0 90.5 35t50.5 35q30 0 30 -36q0 -63 -57 -104q-50 -36 -114 -36v-178q0 -93 -91 -159q-82 -60 -176 -60h-798
q-93 0 -173 52q-91 59 -91 147v512q0 50 -63 50q-10 0 -27.5 -4t-27.5 -4q-13 0 -22 19l-54 114l328 275h29l153 -77q14 -7 30 -7q25 0 33 2l20 -32l-111 -153q-69 49 -146 49q-64 0 -111 -55l5 -9q42 7 59 7q54 0 100 -26q55 -32 55 -84v-436q0 -60 50 -96q44 -32 106 -32
h554q119 0 119 126v59q-72 6 -126 35q-70 40 -70 107q0 79 73 79q38 0 69 -39q38 -49 54 -57v159q0 50 -57 50q-10 0 -26 -3.5t-26 -3.5q-18 0 -22 19l-48 208l586 210h51l339 -154q28 65 28 144q0 118 -52 118q-8 0 -26.5 -2t-30.5 -2q-32 0 -54.5 26.5t-22.5 62.5
q0 51 30 89q35 43 94 43q89 0 141 -84q48 -77 48 -192z" />
    <glyph glyph-name="uni179E17C5.sub1sechalf" horiz-adv-x="1299" 
d="M1152 1463q0 -115 -33 -297v-913h-250v812l-354 154l-173 -57q-48 -16 -66 -23q-33 -14 -45 -28l5 -9q42 7 59 7q56 0 100 -22q55 -29 55 -81v-500q53 0 90.5 35t50.5 35q30 0 30 -36q0 -63 -57 -104q-50 -36 -114 -36v-603q0 -93 -91 -159q-82 -60 -176 -60h-134
q-95 0 -185 73q-95 -73 -196 -73h-144q-103 0 -183 57q-90 64 -90 165v311q0 132 119 132h117q104 0 184 -64q89 -71 89 -182q0 -129 -124 -129q-98 0 -98 84q0 30 27.5 65t27.5 60q0 47 -50 47q-42 0 -42 -53v-205q0 -126 119 -126h28q52 0 85 47q27 38 27 79h230
q0 -43 23 -79q29 -47 81 -47h17q89 0 89 106v554q-72 6 -126 35q-70 40 -70 107q0 79 73 79q38 0 69 -39q38 -49 54 -57v409q0 50 -57 50q-10 0 -26 -3.5t-26 -3.5q-18 0 -22 19l-48 208l586 210h51l339 -154q28 65 28 144q0 118 -52 118q-8 0 -26.5 -2t-30.5 -2
q-32 0 -54.5 26.5t-22.5 62.5q0 51 30 89q35 43 94 43q89 0 141 -84q48 -77 48 -192z" />
    <glyph glyph-name="uni179E17C5.sub2sechalf" horiz-adv-x="1299" 
d="M1152 1463q0 -115 -33 -297v-913h-250v812l-354 154l-173 -57q-48 -16 -66 -23q-33 -14 -45 -28l5 -9q42 7 59 7q56 0 100 -22q55 -29 55 -81v-500q53 0 90.5 35t50.5 35q30 0 30 -36q0 -63 -57 -104q-50 -36 -114 -36v-603q0 -93 -91 -159q-82 -60 -176 -60h-134
q-95 0 -185 73q-95 -73 -196 -73h-144q-103 0 -183 57q-90 64 -90 165v311q0 132 119 132h117q104 0 184 -64q89 -71 89 -182q0 -129 -124 -129q-98 0 -98 84q0 30 27.5 65t27.5 60q0 47 -50 47q-42 0 -42 -53v-205q0 -126 119 -126h28q52 0 85 47q27 38 27 79h230
q0 -43 23 -79q29 -47 81 -47h17q89 0 89 106v554q-72 6 -126 35q-70 40 -70 107q0 79 73 79q38 0 69 -39q38 -49 54 -57v409q0 50 -57 50q-10 0 -26 -3.5t-26 -3.5q-18 0 -22 19l-48 208l586 210h51l339 -154q28 65 28 144q0 118 -52 118q-8 0 -26.5 -2t-30.5 -2
q-32 0 -54.5 26.5t-22.5 62.5q0 51 30 89q35 43 94 43q89 0 141 -84q48 -77 48 -192z" />
    <glyph glyph-name="uni179F" unicode="&#x179f;" horiz-adv-x="1952" 
d="M1921 1300l-111 -153q-69 49 -146 49q-64 0 -111 -55l5 -9q42 7 59 7q55 0 100 -24q55 -30 55 -83v-560q0 -93 -91 -159q-82 -60 -176 -60h-363q-104 0 -189 57q-97 64 -97 165v189q0 120 -129 120h-168q-129 0 -129 -123v-216q0 -53 42 -53q50 0 50 67q0 23 -37.5 64
t-37.5 77q0 109 108 109q140 0 140 -180q0 -133 -91 -210q-79 -66 -188 -66h-117q-119 0 -119 134v384q0 78 60 137q52 52 134 75q-1 13 -21.5 27t-41.5 14q-10 0 -27.5 -4t-27.5 -4q-12 0 -22 19l-54 104l328 275h29l153 -77q14 -7 30 -7q25 0 33 2l20 -32l-111 -153
q-69 49 -146 49q-64 0 -111 -55l5 -9q24 4 54 4q59 0 112 -70t128 -70h116q104 0 189 -58q97 -66 97 -167v-180q0 -126 129 -126h168q119 0 119 126v373q0 50 -63 50q-10 0 -27.5 -4t-27.5 -4q-13 0 -22 19l-54 114l328 275h29l153 -77q14 -7 30 -7q25 0 33 2z" />
    <glyph glyph-name="uni179F.sub1" horiz-adv-x="630" 
d="M621 540q0 -63 -57 -104q-50 -36 -114 -36v-603q0 -93 -91 -159q-82 -60 -176 -60h-404q-103 0 -183 57q-90 64 -90 165v311q0 132 119 132h117q104 0 184 -64q89 -71 89 -182q0 -129 -124 -129q-98 0 -98 84q0 30 27.5 65t27.5 60q0 47 -50 47q-42 0 -42 -53v-205
q0 -126 116 -126h239q89 0 89 106v554q-72 6 -126 35q-70 40 -70 107q0 79 73 79q38 0 69 -39q38 -49 54 -57v439q0 50 -63 50q-10 0 -27.5 -4t-27.5 -4q-13 0 -22 19l-54 114l328 275h29l153 -77q14 -7 30 -7q25 0 33 2l20 -32l-111 -153q-69 49 -146 49q-64 0 -111 -55
l5 -9q42 7 59 7q55 0 100 -24q55 -30 55 -83v-526q53 0 90.5 35t50.5 35q30 0 30 -36z" />
    <glyph glyph-name="uni179F.sub2" horiz-adv-x="630" 
d="M621 540q0 -63 -57 -104q-50 -36 -114 -36v-603q0 -93 -91 -159q-82 -60 -176 -60h-404q-103 0 -183 57q-90 64 -90 165v311q0 132 119 132h117q104 0 184 -64q89 -71 89 -182q0 -129 -124 -129q-98 0 -98 84q0 30 27.5 65t27.5 60q0 47 -50 47q-42 0 -42 -53v-205
q0 -126 116 -126h239q89 0 89 106v554q-72 6 -126 35q-70 40 -70 107q0 79 73 79q38 0 69 -39q38 -49 54 -57v439q0 50 -63 50q-10 0 -27.5 -4t-27.5 -4q-13 0 -22 19l-54 114l328 275h29l153 -77q14 -7 30 -7q25 0 33 2l20 -32l-111 -153q-69 49 -146 49q-64 0 -111 -55
l5 -9q42 7 59 7q55 0 100 -24q55 -30 55 -83v-526q53 0 90.5 35t50.5 35q30 0 30 -36z" />
    <glyph glyph-name="uni179F17B6" horiz-adv-x="2621" 
d="M2441 253h-250v812l-354 154l-173 -57q-48 -16 -66 -23q-33 -14 -45 -28l5 -9q42 7 59 7q55 0 100 -24q55 -31 55 -83v-530q0 -93 -91 -159q-82 -60 -176 -60h-363q-104 0 -189 57q-97 64 -97 165v189q0 120 -129 120h-168q-129 0 -129 -123v-216q0 -53 42 -53
q50 0 50 67q0 23 -37.5 64t-37.5 77q0 109 108 109q140 0 140 -180q0 -133 -91 -210q-79 -66 -188 -66h-117q-119 0 -119 134v384q0 78 60 137q52 52 134 75q-1 13 -21.5 27t-41.5 14q-10 0 -27.5 -4t-27.5 -4q-12 0 -22 19l-54 104l328 275h29l153 -77q14 -7 30 -7
q25 0 33 2l20 -32l-111 -153q-69 49 -146 49q-64 0 -111 -55l5 -9q24 4 54 4q59 0 112 -70t128 -70h116q104 0 189 -58q97 -66 97 -167v-180q0 -126 129 -126h168q119 0 119 126v343q0 50 -57 50q-10 0 -26 -3.5t-26 -3.5q-18 0 -22 19l-48 208l586 210h51l461 -210v-951z
" />
    <glyph glyph-name="uni179F17B6.sub1" horiz-adv-x="1299" 
d="M1119 253h-250v812l-354 154l-173 -57q-48 -16 -66 -23q-33 -14 -45 -28l5 -9q42 7 59 7q58 0 100 -21q55 -27 55 -78v-504q53 0 90.5 35t50.5 35q30 0 30 -36q0 -63 -57 -104q-50 -36 -114 -36v-603q0 -93 -91 -159q-82 -60 -176 -60h-404q-103 0 -183 57
q-90 64 -90 165v311q0 132 119 132h117q104 0 184 -64q89 -71 89 -182q0 -129 -124 -129q-98 0 -98 84q0 30 27.5 65t27.5 60q0 47 -50 47q-42 0 -42 -53v-205q0 -126 116 -126h239q89 0 89 106v554q-72 6 -126 35q-70 40 -70 107q0 79 73 79q38 0 69 -39q38 -49 54 -57v409
q0 50 -57 50q-10 0 -26 -3.5t-26 -3.5q-18 0 -22 19l-48 208l586 210h51l461 -210v-951z" />
    <glyph glyph-name="uni179F17B6.sub2" horiz-adv-x="1299" 
d="M1119 253h-250v812l-354 154l-173 -57q-48 -16 -66 -23q-33 -14 -45 -28l5 -9q42 7 59 7q58 0 100 -21q55 -27 55 -78v-504q53 0 90.5 35t50.5 35q30 0 30 -36q0 -63 -57 -104q-50 -36 -114 -36v-603q0 -93 -91 -159q-82 -60 -176 -60h-404q-103 0 -183 57
q-90 64 -90 165v311q0 132 119 132h117q104 0 184 -64q89 -71 89 -182q0 -129 -124 -129q-98 0 -98 84q0 30 27.5 65t27.5 60q0 47 -50 47q-42 0 -42 -53v-205q0 -126 116 -126h239q89 0 89 106v554q-72 6 -126 35q-70 40 -70 107q0 79 73 79q38 0 69 -39q38 -49 54 -57v409
q0 50 -57 50q-10 0 -26 -3.5t-26 -3.5q-18 0 -22 19l-48 208l586 210h51l461 -210v-951z" />
    <glyph glyph-name="uni179F17C5.sechalf" horiz-adv-x="2621" 
d="M2474 1463q0 -115 -33 -297v-913h-250v812l-354 154l-173 -57q-48 -16 -66 -23q-33 -14 -45 -28l5 -9q42 7 59 7q55 0 100 -24q55 -31 55 -83v-530q0 -93 -91 -159q-82 -60 -176 -60h-363q-104 0 -189 57q-97 64 -97 165v189q0 120 -129 120h-168q-129 0 -129 -123v-216
q0 -53 42 -53q50 0 50 67q0 23 -37.5 64t-37.5 77q0 109 108 109q140 0 140 -180q0 -133 -91 -210q-79 -66 -188 -66h-117q-119 0 -119 134v384q0 78 60 137q52 52 134 75q-1 13 -21.5 27t-41.5 14q-10 0 -27.5 -4t-27.5 -4q-12 0 -22 19l-54 104l328 275h29l153 -77
q14 -7 30 -7q25 0 33 2l20 -32l-111 -153q-69 49 -146 49q-64 0 -111 -55l5 -9q24 4 54 4q59 0 112 -70t128 -70h116q104 0 189 -58q97 -66 97 -167v-180q0 -126 129 -126h168q119 0 119 126v343q0 50 -57 50q-10 0 -26 -3.5t-26 -3.5q-18 0 -22 19l-48 208l586 210h51
l343 -156q24 65 24 146q0 118 -52 118q-8 0 -26.5 -2t-30.5 -2q-32 0 -54.5 26.5t-22.5 62.5q0 51 30 89q35 43 94 43q89 0 141 -84q48 -77 48 -192z" />
    <glyph glyph-name="uni179F17C5.sub1sechalf" horiz-adv-x="1299" 
d="M1152 1463q0 -115 -33 -297v-913h-250v812l-354 154l-173 -57q-48 -16 -66 -23q-33 -14 -45 -28l5 -9q42 7 59 7q58 0 100 -21q55 -27 55 -78v-504q53 0 90.5 35t50.5 35q30 0 30 -36q0 -63 -57 -104q-50 -36 -114 -36v-603q0 -93 -91 -159q-82 -60 -176 -60h-404
q-103 0 -183 57q-90 64 -90 165v311q0 132 119 132h117q104 0 184 -64q89 -71 89 -182q0 -129 -124 -129q-98 0 -98 84q0 30 27.5 65t27.5 60q0 47 -50 47q-42 0 -42 -53v-205q0 -126 116 -126h239q89 0 89 106v554q-72 6 -126 35q-70 40 -70 107q0 79 73 79q38 0 69 -39
q38 -49 54 -57v409q0 50 -57 50q-10 0 -26 -3.5t-26 -3.5q-18 0 -22 19l-48 208l586 210h51l339 -154q28 65 28 144q0 118 -52 118q-8 0 -26.5 -2t-30.5 -2q-32 0 -54.5 26.5t-22.5 62.5q0 51 30 89q35 43 94 43q89 0 141 -84q48 -77 48 -192z" />
    <glyph glyph-name="uni179F17C5.sub2sechalf" horiz-adv-x="1299" 
d="M1152 1463q0 -115 -33 -297v-913h-250v812l-354 154l-173 -57q-48 -16 -66 -23q-33 -14 -45 -28l5 -9q42 7 59 7q58 0 100 -21q55 -27 55 -78v-504q53 0 90.5 35t50.5 35q30 0 30 -36q0 -63 -57 -104q-50 -36 -114 -36v-603q0 -93 -91 -159q-82 -60 -176 -60h-404
q-103 0 -183 57q-90 64 -90 165v311q0 132 119 132h117q104 0 184 -64q89 -71 89 -182q0 -129 -124 -129q-98 0 -98 84q0 30 27.5 65t27.5 60q0 47 -50 47q-42 0 -42 -53v-205q0 -126 116 -126h239q89 0 89 106v554q-72 6 -126 35q-70 40 -70 107q0 79 73 79q38 0 69 -39
q38 -49 54 -57v409q0 50 -57 50q-10 0 -26 -3.5t-26 -3.5q-18 0 -22 19l-48 208l586 210h51l339 -154q28 65 28 144q0 118 -52 118q-8 0 -26.5 -2t-30.5 -2q-32 0 -54.5 26.5t-22.5 62.5q0 51 30 89q35 43 94 43q89 0 141 -84q48 -77 48 -192z" />
    <glyph glyph-name="uni17A0" unicode="&#x17a0;" horiz-adv-x="1975" 
d="M1795 253h-250v785q0 126 -119 126h-168q-129 0 -129 -126v-560q0 -101 -97 -167q-85 -58 -189 -58h-375q-93 0 -173 52q-91 59 -91 147v512q0 50 -63 50q-10 0 -27.5 -4t-27.5 -4q-13 0 -22 19l-54 114l328 275h29l153 -77q14 -7 30 -7q25 0 33 2l20 -32l-111 -153
q-69 49 -146 49q-64 0 -111 -55l5 -9q42 7 59 7q54 0 100 -26q55 -32 55 -84v-436q0 -60 50 -96q44 -32 106 -32h140q129 0 129 120v569q0 101 97 165q85 57 189 57h363q94 0 176 -60q91 -66 91 -159v-904z" />
    <glyph glyph-name="uni17A0.sub1" 
d="M-180 -376q0 -27 -18.5 -40.5t-41.5 -13.5h-39q-16 0 -42.5 9t-47.5 30t-35 55.5t-14 85.5q0 21 8.5 41t22 28t26.5 8q19 0 32.5 -13.5t13.5 -42.5q0 -25 -9.5 -36.5t-18 -15t-15 -6t-6.5 -14.5q0 -18 15 -39t51 -21v342q0 48 -54 48h-107q-16 0 -28 -10.5t-12 -37.5
v-310q0 -53 -28.5 -77t-73.5 -24h-279q-38 0 -65.5 22t-27.5 74v435h121v-411q0 -28 19 -33.5t41 -5.5h127q21 0 32 5.5t11 29.5v313q0 60 38 82t95 22h165q27 0 53.5 -4.5t46.5 -16t32 -31t12 -49.5v-378z" />
    <glyph glyph-name="uni17A0.sub2" 
d="M-180 -376q0 -27 -18.5 -40.5t-41.5 -13.5h-39q-16 0 -37.5 9t-42.5 30t-35 55.5t-14 85.5q0 21 8.5 41t22 28t26.5 8q19 0 32.5 -13.5t13.5 -42.5q0 -25 -9.5 -36.5t-18 -15t-15 -6t-6.5 -14.5q0 -18 15 -39t41 -21v342q0 48 -44 48h-57q-16 0 -28 -10.5t-12 -37.5v-310
q0 -53 -28.5 -77t-73.5 -24h-144q-38 0 -65.5 22t-27.5 74v435h121v-411q0 -28 11.5 -33.5t33.5 -5.5h13q21 0 29 5.5t8 29.5v313q0 60 38 82t95 22h115q17 0 43.5 -4.5t46.5 -16t32 -31t12 -49.5v-378z" />
    <glyph glyph-name="uni17A017B6" horiz-adv-x="2539" 
d="M2359 253h-250v786q0 128 -169 128h-27q-69 0 -115 -28q-54 -34 -54 -98v-788h-250v786q0 128 -169 128h-27q-68 0 -115 -30q-54 -35 -54 -99v-560q0 -101 -97 -167q-85 -58 -189 -58h-375q-93 0 -173 52q-91 59 -91 147v512q0 50 -63 50q-10 0 -27.5 -4t-27.5 -4
q-13 0 -22 19l-54 114l328 275h29l153 -77q14 -7 30 -7q25 0 33 2l20 -32l-111 -153q-69 49 -146 49q-64 0 -111 -55l5 -9q42 7 59 7q54 0 100 -26q55 -32 55 -84v-436q0 -60 50 -96q44 -32 106 -32h140q129 0 129 120v569q0 101 96 167q86 58 189 58h268q125 0 212 -55
q78 55 199 55h204q122 0 209 -53q103 -63 103 -176v-897z" />
    <glyph glyph-name="uni17A017C5.sechalf" horiz-adv-x="2539" 
d="M2392 1463q0 -145 -33 -327v-883h-250v786q0 128 -169 128h-27q-69 0 -115 -28q-54 -34 -54 -98v-788h-250v786q0 128 -169 128h-27q-68 0 -115 -30q-54 -35 -54 -99v-560q0 -101 -97 -167q-85 -58 -189 -58h-375q-93 0 -173 52q-91 59 -91 147v512q0 50 -63 50
q-10 0 -27.5 -4t-27.5 -4q-13 0 -22 19l-54 114l328 275h29l153 -77q14 -7 30 -7q25 0 33 2l20 -32l-111 -153q-69 49 -146 49q-64 0 -111 -55l5 -9q42 7 59 7q54 0 100 -26q55 -32 55 -84v-436q0 -60 50 -96q44 -32 106 -32h140q129 0 129 120v569q0 101 96 167
q86 58 189 58h268q125 0 212 -55q78 55 199 55h204q122 0 209 -53q9 44 9 78q0 118 -52 118q-8 0 -26.5 -2t-30.5 -2q-32 0 -54.5 26.5t-22.5 62.5q0 51 30 89q35 43 94 43q89 0 141 -84q48 -77 48 -192z" />
    <glyph glyph-name="uni17A1" unicode="&#x17a1;" horiz-adv-x="2222" 
d="M1402 928q0 -39 -28 -67t-68 -28h-127q-248 0 -248 194q0 104 99 104q97 0 97 -87q0 -39 -35 -54t-35 -27q0 -43 53 -43q42 0 42 37v146q0 68 -87 68h-525q-110 0 -110 -78v-84q0 -65 50 -85l527 -209h45q38 80 141 80q61 0 100 -43q34 -38 34 -85q0 -98 -85 -133v-91
q0 -95 -100 -147q-82 -43 -189 -43h-328q-118 0 -198 46q-97 56 -97 164v110l44 27h160l46 -27v-17q0 -91 117 -91h214q81 0 81 49v20h-36l-510 190q-116 43 -151 66q-115 74 -115 194v179q0 106 99 167q85 52 199 52h638q99 0 187 -54q99 -61 99 -152v-248zM2191 1300
l-111 -153q-69 49 -146 49q-64 0 -111 -55l5 -9q42 7 59 7q55 0 100 -24q55 -30 55 -83v-1454h-315l-210 185l-210 -185h-315v444q0 53 -42 53q-50 0 -50 -67q0 -23 37.5 -64t37.5 -77q0 -109 -108 -109q-140 0 -140 180q0 133 91 210q79 66 188 66h117q119 0 119 -134v-323
l275 238l275 -238v1207q0 50 -63 50q-10 0 -27.5 -4t-27.5 -4q-13 0 -22 19l-54 114l328 275h29l153 -77q14 -7 30 -7q25 0 33 2z" />
    <glyph glyph-name="uni17A1.sub1" 
d="M-465 40q0 -8 -21 -16t-39 -8h-25q-26 0 -51.5 2t-47 9t-35 18t-13.5 28q0 33 51 33q22 0 37 -7t15 -25q0 -12 -6 -17t-14 -7.5t-14 -3t-6 -2.5q0 -6 25 -6h17q16 0 16 8v49q0 20 -28.5 29.5t-67.5 9.5h-49q-41 0 -61 -6.5t-20 -27.5v-72q0 -26 29 -37t86 -11h30
q0 7 7.5 11.5t19 7.5t22.5 4t20 1h29q29 0 41 -7t12 -20q0 -6 -2 -12t-9.5 -11.5t-26.5 -5.5v-75q0 -9 -10.5 -15.5t-25 -10.5t-29.5 -5.5t-24 -1.5h-139q-8 0 -26 2.5t-36 6t-32 9.5t-14 15v65l34 7h60l29 -7v-50q0 -15 37 -15h38q18 0 21.5 4.5t3.5 12.5v58h-39
q-37 2 -77.5 5.5t-74.5 11t-55.5 19.5t-21.5 32v91q0 18 20 29.5t49.5 17.5t61 8t53.5 2h87q30 0 64 -3.5t61.5 -11t45.5 -19t18 -24.5v-66zM-157 41h-8q-25 17 -53 27.5t-61 10.5q-22 0 -38 -10.5t-25 -19.5q11 1 19 1h16q58 0 92.5 -19.5t34.5 -43.5v-409h-99l-139 91
l-129 -91h-101v165q0 16 -27 16q-16 0 -24.5 -6.5t-8.5 -12.5q0 -5 7.5 -5t16.5 -2t16.5 -8t7.5 -21q0 -18 -13 -29.5t-42 -12.5q-53 0 -53 42q0 48 42 72t98 24h25q20 0 38 -10t18 -23v-111l129 90l139 -90v294q0 24 -17 34.5t-44 10.5q-12 0 -19.5 -1.5t-15.5 -1.5
q-15 0 -24 13l-28 35l159 124h22l116 -48q9 -4 18 -4q7 0 19 4l21 -19z" />
    <glyph glyph-name="uni17A1.sub2" 
d="M-465 40q0 -8 -21 -16t-39 -8h-25q-26 0 -51.5 2t-47 9t-35 18t-13.5 28q0 33 51 33q22 0 37 -7t15 -25q0 -12 -6 -17t-14 -7.5t-14 -3t-6 -2.5q0 -6 25 -6h17q16 0 16 8v49q0 20 -28.5 29.5t-67.5 9.5h-49q-41 0 -61 -6.5t-20 -27.5v-72q0 -26 29 -37t86 -11h30
q0 7 7.5 11.5t19 7.5t22.5 4t20 1h29q29 0 41 -7t12 -20q0 -6 -2 -12t-9.5 -11.5t-26.5 -5.5v-75q0 -9 -10.5 -15.5t-25 -10.5t-29.5 -5.5t-24 -1.5h-139q-8 0 -26 2.5t-36 6t-32 9.5t-14 15v65l34 7h60l29 -7v-50q0 -15 37 -15h38q18 0 21.5 4.5t3.5 12.5v58h-39
q-37 2 -77.5 5.5t-74.5 11t-55.5 19.5t-21.5 32v91q0 18 20 29.5t49.5 17.5t61 8t53.5 2h87q30 0 64 -3.5t61.5 -11t45.5 -19t18 -24.5v-66zM-157 41h-8q-25 17 -53 27.5t-61 10.5q-22 0 -38 -10.5t-25 -19.5q11 1 19 1h16q58 0 92.5 -19.5t34.5 -43.5v-409h-99l-139 91
l-129 -91h-101v165q0 16 -27 16q-16 0 -24.5 -6.5t-8.5 -12.5q0 -5 7.5 -5t16.5 -2t16.5 -8t7.5 -21q0 -18 -13 -29.5t-42 -12.5q-53 0 -53 42q0 48 42 72t98 24h25q20 0 38 -10t18 -23v-111l129 90l139 -90v294q0 24 -17 34.5t-44 10.5q-12 0 -19.5 -1.5t-15.5 -1.5
q-15 0 -24 13l-28 35l159 124h22l116 -48q9 -4 18 -4q7 0 19 4l21 -19z" />
    <glyph glyph-name="uni17A117B6" horiz-adv-x="2891" 
d="M1402 928q0 -39 -28 -67t-68 -28h-127q-248 0 -248 194q0 104 99 104q97 0 97 -87q0 -39 -35 -54t-35 -27q0 -43 53 -43q42 0 42 37v146q0 68 -87 68h-525q-110 0 -110 -78v-84q0 -65 50 -85l527 -209h45q38 80 141 80q61 0 100 -43q34 -38 34 -85q0 -98 -85 -133v-91
q0 -95 -100 -147q-82 -43 -189 -43h-328q-118 0 -198 46q-97 56 -97 164v110l44 27h160l46 -27v-17q0 -91 117 -91h214q81 0 81 49v20h-36l-510 190q-116 43 -151 66q-115 74 -115 194v179q0 106 99 167q85 52 199 52h638q99 0 187 -54q99 -61 99 -152v-248zM2711 253h-250
v812l-354 154l-173 -57q-48 -16 -66 -23q-33 -14 -45 -28l5 -9q42 7 59 7q55 0 100 -24q55 -31 55 -83v-1424h-315l-210 185l-210 -185h-315v444q0 53 -42 53q-50 0 -50 -67q0 -23 37.5 -64t37.5 -77q0 -109 -108 -109q-140 0 -140 180q0 133 91 210q79 66 188 66h117
q119 0 119 -134v-323l275 238l275 -238v1177q0 50 -57 50q-10 0 -26 -3.5t-26 -3.5q-18 0 -22 19l-48 208l586 210h51l461 -210v-951z" />
    <glyph glyph-name="uni17A117C5.sechalf" horiz-adv-x="2891" 
d="M1402 928q0 -39 -28 -67t-68 -28h-127q-248 0 -248 194q0 104 99 104q97 0 97 -87q0 -39 -35 -54t-35 -27q0 -43 53 -43q42 0 42 37v146q0 68 -87 68h-525q-110 0 -110 -78v-84q0 -65 50 -85l527 -209h45q38 80 141 80q61 0 100 -43q34 -38 34 -85q0 -98 -85 -133v-91
q0 -95 -100 -147q-82 -43 -189 -43h-328q-118 0 -198 46q-97 56 -97 164v110l44 27h160l46 -27v-17q0 -91 117 -91h214q81 0 81 49v20h-36l-510 190q-116 43 -151 66q-115 74 -115 194v179q0 106 99 167q85 52 199 52h638q99 0 187 -54q99 -61 99 -152v-248zM2744 1463
q0 -115 -33 -297v-913h-250v812l-354 154l-173 -57q-48 -16 -66 -23q-33 -14 -45 -28l5 -9q42 7 59 7q55 0 100 -24q55 -31 55 -83v-1424h-315l-210 185l-210 -185h-315v444q0 53 -42 53q-50 0 -50 -67q0 -23 37.5 -64t37.5 -77q0 -109 -108 -109q-140 0 -140 180
q0 133 91 210q79 66 188 66h117q119 0 119 -134v-323l275 238l275 -238v1177q0 50 -57 50q-10 0 -26 -3.5t-26 -3.5q-18 0 -22 19l-48 208l586 210h51l339 -154q28 65 28 144q0 118 -52 118q-8 0 -26.5 -2t-30.5 -2q-32 0 -54.5 26.5t-22.5 62.5q0 51 30 89q35 43 94 43
q89 0 141 -84q48 -77 48 -192z" />
    <glyph glyph-name="uni17A2" unicode="&#x17a2;" horiz-adv-x="1648" 
d="M1617 1300l-111 -153q-69 49 -146 49q-64 0 -111 -55l5 -9q42 7 59 7q54 0 100 -26q55 -32 55 -84v-646q0 -130 -119 -130h-117q-114 0 -187 51q-92 64 -92 195q0 160 140 160q108 0 108 -99q0 -36 -37.5 -67t-37.5 -54q0 -47 50 -47q42 0 42 53v272h-693v-334
q0 -130 -119 -130h-117q-114 0 -187 51q-92 64 -92 195q0 160 140 160q108 0 108 -99q0 -36 -37.5 -67t-37.5 -54q0 -47 50 -47q42 0 42 53v519q0 50 -63 50q-10 0 -27.5 -4t-27.5 -4q-13 0 -22 19l-54 114l328 275h29l153 -77q14 -7 30 -7q25 0 33 2l20 -32l-111 -153
q-69 49 -146 49q-64 0 -111 -55l5 -9q42 7 59 7q54 0 100 -26q55 -32 55 -84v-140h693v75q0 50 -63 50q-10 0 -27.5 -4t-27.5 -4q-13 0 -22 19l-54 114l328 275h29l153 -77q14 -7 30 -7q25 0 33 2z" />
    <glyph glyph-name="uni17A2.sub1" 
d="M-849 -35v-77h575v50q-3 15 -17.5 24.5t-45.5 9.5q-8 0 -15.5 -1.5t-16.5 -1.5t-18 4t-13 16l-20 48l156 141h21l113 -57q8 -3 18 -3q6 0 12 1l12 -22l-68 -60q-4 0 -14 6.5t-25 15t-35 15t-46 6.5q-15 0 -32 -8t-31 -34l2 -3q21 2 36 2q55 0 83 -21t38 -51v-333
q0 -23 -15.5 -38.5t-35.5 -15.5h-24q-28 0 -57.5 6.5t-52.5 21.5t-38 37t-15 52q0 51 22.5 70.5t47.5 19.5q33 0 47.5 -16.5t14.5 -37.5t-8.5 -28.5t-19 -10t-18.5 -7t-8 -13.5q0 -7 7.5 -13t25.5 -6q10 0 19 3.5t14 15.5v155h-575v-195q0 -23 -15.5 -38.5t-35.5 -15.5h-24
q-28 0 -57.5 6.5t-52.5 21.5t-38 37t-15 52q0 43 20.5 65.5t51.5 22.5q30 0 45 -15.5t15 -36.5t-9 -28.5t-19 -10.5t-19 -7t-9 -11q0 -6 8.5 -13.5t24.5 -7.5q12 0 21 3.5t14 15.5v263q-6 37 -63 37q-8 0 -15.5 -1.5t-16.5 -1.5t-18 4t-13 16l-20 48l156 141h21l113 -57
q7 -3 18 -3q7 0 12 1l12 -22l-68 -60q-4 0 -14 6.5t-25 15t-35 15t-46 6.5q-15 0 -32 -8t-31 -35l2 -3q25 3 36 3q55 0 83 -21t38 -51z" />
    <glyph glyph-name="uni17A2.sub2" 
d="M-624 -35v-77h350v50q-3 15 -17.5 24.5t-45.5 9.5q-8 0 -15.5 -1.5t-16.5 -1.5t-18 4t-13 16l-20 48l156 141h21l113 -57q8 -3 18 -3q6 0 12 1l12 -22l-68 -60q-4 0 -14 6.5t-25 15t-35 15t-46 6.5q-15 0 -32 -8t-31 -34l2 -3q21 2 36 2q55 0 83 -21t38 -51v-333
q0 -23 -15.5 -38.5t-35.5 -15.5h-24q-28 0 -57.5 6.5t-52.5 21.5t-38 37t-15 52q0 51 22.5 70.5t47.5 19.5q33 0 47.5 -16.5t14.5 -37.5t-8.5 -28.5t-19 -10t-18.5 -7t-8 -13.5q0 -7 7.5 -13t25.5 -6q10 0 19 3.5t14 15.5v155h-350v-195q0 -23 -15.5 -38.5t-35.5 -15.5h-24
q-28 0 -57.5 6.5t-52.5 21.5t-38 37t-15 52q0 43 20.5 65.5t51.5 22.5q30 0 45 -15.5t15 -36.5t-9 -28.5t-19 -10.5t-19 -7t-9 -11q0 -6 8.5 -13.5t24.5 -7.5q12 0 21 3.5t14 15.5v263q-6 37 -63 37q-8 0 -15.5 -1.5t-16.5 -1.5t-18 4t-13 16l-20 48l156 141h21l113 -57
q7 -3 18 -3q7 0 12 1l12 -22l-68 -60q-4 0 -14 6.5t-25 15t-35 15t-46 6.5q-15 0 -32 -8t-31 -35l2 -3q25 3 36 3q55 0 83 -21t38 -51z" />
    <glyph glyph-name="uni17A217B6" horiz-adv-x="2317" 
d="M2137 253h-250v812l-354 154l-173 -57q-48 -16 -66 -23q-33 -14 -45 -28l5 -9q42 7 59 7q54 0 100 -26q55 -31 55 -84v-616q0 -130 -119 -130h-117q-114 0 -187 51q-92 64 -92 195q0 160 140 160q108 0 108 -99q0 -36 -37.5 -67t-37.5 -54q0 -47 50 -47q42 0 42 53v272
h-693v-334q0 -130 -119 -130h-117q-114 0 -187 51q-92 64 -92 195q0 160 140 160q108 0 108 -99q0 -36 -37.5 -67t-37.5 -54q0 -47 50 -47q42 0 42 53v519q0 50 -63 50q-10 0 -27.5 -4t-27.5 -4q-13 0 -22 19l-54 114l328 275h29l153 -77q14 -7 30 -7q25 0 33 2l20 -32
l-111 -153q-69 49 -146 49q-64 0 -111 -55l5 -9q42 7 59 7q54 0 100 -26q55 -32 55 -84v-140h693v45q0 50 -57 50q-10 0 -26 -3.5t-26 -3.5q-18 0 -22 19l-48 208l586 210h51l461 -210v-951z" />
    <glyph glyph-name="uni17A217C5.sechalf" horiz-adv-x="2317" 
d="M2170 1463q0 -115 -33 -297v-913h-250v812l-354 154l-173 -57q-48 -16 -66 -23q-33 -14 -45 -28l5 -9q42 7 59 7q54 0 100 -26q55 -31 55 -84v-616q0 -130 -119 -130h-117q-114 0 -187 51q-92 64 -92 195q0 160 140 160q108 0 108 -99q0 -36 -37.5 -67t-37.5 -54
q0 -47 50 -47q42 0 42 53v272h-693v-334q0 -130 -119 -130h-117q-114 0 -187 51q-92 64 -92 195q0 160 140 160q108 0 108 -99q0 -36 -37.5 -67t-37.5 -54q0 -47 50 -47q42 0 42 53v519q0 50 -63 50q-10 0 -27.5 -4t-27.5 -4q-13 0 -22 19l-54 114l328 275h29l153 -77
q14 -7 30 -7q25 0 33 2l20 -32l-111 -153q-69 49 -146 49q-64 0 -111 -55l5 -9q42 7 59 7q54 0 100 -26q55 -32 55 -84v-140h693v45q0 50 -57 50q-10 0 -26 -3.5t-26 -3.5q-18 0 -22 19l-48 208l586 210h51l343 -156q24 65 24 146q0 118 -52 118q-8 0 -26.5 -2t-30.5 -2
q-32 0 -54.5 26.5t-22.5 62.5q0 51 30 89q35 43 94 43q89 0 141 -84q48 -77 48 -192z" />
    <glyph glyph-name="uni17A3" unicode="&#x17a3;" horiz-adv-x="1648" 
d="M1617 1300l-111 -153q-69 49 -146 49q-64 0 -111 -55l5 -9q42 7 59 7q54 0 100 -26q55 -32 55 -84v-646q0 -130 -119 -130h-117q-114 0 -187 51q-92 64 -92 195q0 160 140 160q108 0 108 -99q0 -36 -37.5 -67t-37.5 -54q0 -47 50 -47q42 0 42 53v272h-693v-334
q0 -130 -119 -130h-117q-114 0 -187 51q-92 64 -92 195q0 160 140 160q108 0 108 -99q0 -36 -37.5 -67t-37.5 -54q0 -47 50 -47q42 0 42 53v519q0 50 -63 50q-10 0 -27.5 -4t-27.5 -4q-13 0 -22 19l-54 114l328 275h29l153 -77q14 -7 30 -7q25 0 33 2l20 -32l-111 -153
q-69 49 -146 49q-64 0 -111 -55l5 -9q42 7 59 7q54 0 100 -26q55 -32 55 -84v-140h693v75q0 50 -63 50q-10 0 -27.5 -4t-27.5 -4q-13 0 -22 19l-54 114l328 275h29l153 -77q14 -7 30 -7q25 0 33 2z" />
    <glyph glyph-name="uni17A3.sub1" 
d="M-849 -35v-77h575v50q-3 15 -17.5 24.5t-45.5 9.5q-8 0 -15.5 -1.5t-16.5 -1.5t-18 4t-13 16l-20 48l156 141h21l113 -57q8 -3 18 -3q6 0 12 1l12 -22l-68 -60q-4 0 -14 6.5t-25 15t-35 15t-46 6.5q-15 0 -32 -8t-31 -34l2 -3q21 2 36 2q55 0 83 -21t38 -51v-333
q0 -23 -15.5 -38.5t-35.5 -15.5h-24q-28 0 -57.5 6.5t-52.5 21.5t-38 37t-15 52q0 51 22.5 70.5t47.5 19.5q33 0 47.5 -16.5t14.5 -37.5t-8.5 -28.5t-19 -10t-18.5 -7t-8 -13.5q0 -7 7.5 -13t25.5 -6q10 0 19 3.5t14 15.5v155h-575v-195q0 -23 -15.5 -38.5t-35.5 -15.5h-24
q-28 0 -57.5 6.5t-52.5 21.5t-38 37t-15 52q0 43 20.5 65.5t51.5 22.5q30 0 45 -15.5t15 -36.5t-9 -28.5t-19 -10.5t-19 -7t-9 -11q0 -6 8.5 -13.5t24.5 -7.5q12 0 21 3.5t14 15.5v263q-6 37 -63 37q-8 0 -15.5 -1.5t-16.5 -1.5t-18 4t-13 16l-20 48l156 141h21l113 -57
q7 -3 18 -3q7 0 12 1l12 -22l-68 -60q-4 0 -14 6.5t-25 15t-35 15t-46 6.5q-15 0 -32 -8t-31 -35l2 -3q25 3 36 3q55 0 83 -21t38 -51z" />
    <glyph glyph-name="uni17A3.sub2" 
d="M-624 -35v-77h350v50q-3 15 -17.5 24.5t-45.5 9.5q-8 0 -15.5 -1.5t-16.5 -1.5t-18 4t-13 16l-20 48l156 141h21l113 -57q8 -3 18 -3q6 0 12 1l12 -22l-68 -60q-4 0 -14 6.5t-25 15t-35 15t-46 6.5q-15 0 -32 -8t-31 -34l2 -3q21 2 36 2q55 0 83 -21t38 -51v-333
q0 -23 -15.5 -38.5t-35.5 -15.5h-24q-28 0 -57.5 6.5t-52.5 21.5t-38 37t-15 52q0 51 22.5 70.5t47.5 19.5q33 0 47.5 -16.5t14.5 -37.5t-8.5 -28.5t-19 -10t-18.5 -7t-8 -13.5q0 -7 7.5 -13t25.5 -6q10 0 19 3.5t14 15.5v155h-350v-195q0 -23 -15.5 -38.5t-35.5 -15.5h-24
q-28 0 -57.5 6.5t-52.5 21.5t-38 37t-15 52q0 43 20.5 65.5t51.5 22.5q30 0 45 -15.5t15 -36.5t-9 -28.5t-19 -10.5t-19 -7t-9 -11q0 -6 8.5 -13.5t24.5 -7.5q12 0 21 3.5t14 15.5v263q-6 37 -63 37q-8 0 -15.5 -1.5t-16.5 -1.5t-18 4t-13 16l-20 48l156 141h21l113 -57
q7 -3 18 -3q7 0 12 1l12 -22l-68 -60q-4 0 -14 6.5t-25 15t-35 15t-46 6.5q-15 0 -32 -8t-31 -35l2 -3q25 3 36 3q55 0 83 -21t38 -51z" />
    <glyph glyph-name="uni17A4" unicode="&#x17a4;" horiz-adv-x="2317" 
d="M2137 253h-250v812l-354 154l-173 -57q-48 -16 -66 -23q-33 -14 -45 -28l5 -9q42 7 59 7q54 0 100 -26q55 -31 55 -84v-616q0 -130 -119 -130h-117q-114 0 -187 51q-92 64 -92 195q0 160 140 160q108 0 108 -99q0 -36 -37.5 -67t-37.5 -54q0 -47 50 -47q42 0 42 53v272
h-693v-334q0 -130 -119 -130h-117q-114 0 -187 51q-92 64 -92 195q0 160 140 160q108 0 108 -99q0 -36 -37.5 -67t-37.5 -54q0 -47 50 -47q42 0 42 53v519q0 50 -63 50q-10 0 -27.5 -4t-27.5 -4q-13 0 -22 19l-54 114l328 275h29l153 -77q14 -7 30 -7q25 0 33 2l20 -32
l-111 -153q-69 49 -146 49q-64 0 -111 -55l5 -9q42 7 59 7q54 0 100 -26q55 -32 55 -84v-140h693v45q0 50 -57 50q-10 0 -26 -3.5t-26 -3.5q-18 0 -22 19l-48 208l586 210h51l461 -210v-951z" />
    <glyph glyph-name="uni17A4.sub1" 
d="M-292 -422v358l-211 72l-124 -70q12 3 29 3q24 0 45 -7t35 -16t22.5 -18.5t8.5 -14.5v-249q0 -31 -16 -44.5t-35 -13.5h-27q-65 0 -97 35.5t-32 86.5q0 22 9.5 36.5t32.5 14.5q16 0 29 -10t13 -37q0 -16 -5.5 -23t-12 -11t-12 -6.5t-5.5 -7.5q0 -9 7 -15t19 -6q10 0 16 6
v121h-235v-130q0 -30 -14.5 -42t-32.5 -12h-31q-15 0 -36 6t-40.5 21.5t-34 42.5t-14.5 71q0 22 11.5 38t30.5 16q16 0 24 -5.5t13 -15t5 -27.5q0 -17 -5 -24t-12 -11t-12 -6.5t-5 -9.5q0 -9 6 -16t18 -7q10 0 16 6v192q0 12 -6 21t-28 9q-5 0 -9.5 -1.5t-8.5 -1.5
q-12 0 -24 23l-26 52l140 150h19l72 -48q8 -4 17 -4q7 0 16 4l20 -25l-75 -66h-8q-8 12 -25 22.5t-38 10.5q-20 0 -37.5 -16.5t-25.5 -27.5q20 5 39 5q47 0 74.5 -19t27.5 -38v-59h234v9q0 12 -6 21t-21 9q-5 0 -11.5 -1.5t-10.5 -1.5q-12 0 -23 23l-27 52l230 150h40
l252 -93v-430h-112z" />
    </font>
</defs>
</svg>
